<?xml version="1.0" encoding="utf-8"?>
<svg xmlns="http://www.w3.org/2000/svg" xmlns:xlink="http://www.w3.org/1999/xlink" width="600" height="400" viewBox="0 0 2400 1600">
<defs>
  <clipPath id="clip900">
    <rect x="0" y="0" width="2400" height="1600"/>
  </clipPath>
</defs>
<path clip-path="url(#clip900)" d="M0 1600 L2400 1600 L2400 8.88178e-14 L0 8.88178e-14  Z" fill="#ffffff" fill-rule="evenodd" fill-opacity="1"/>
<defs>
  <clipPath id="clip901">
    <rect x="480" y="0" width="1681" height="1600"/>
  </clipPath>
</defs>
<path clip-path="url(#clip900)" d="M202.227 1423.18 L2352.76 1423.18 L2352.76 300.469 L202.227 300.469  Z" fill="#ffffff" fill-rule="evenodd" fill-opacity="1"/>
<defs>
  <clipPath id="clip902">
    <rect x="202" y="300" width="2152" height="1124"/>
  </clipPath>
</defs>
<polyline clip-path="url(#clip902)" style="stroke:#000000; stroke-linecap:round; stroke-linejoin:round; stroke-width:2; stroke-opacity:0.1; fill:none" points="377.991,1423.18 377.991,300.469 "/>
<polyline clip-path="url(#clip902)" style="stroke:#000000; stroke-linecap:round; stroke-linejoin:round; stroke-width:2; stroke-opacity:0.1; fill:none" points="968.236,1423.18 968.236,300.469 "/>
<polyline clip-path="url(#clip902)" style="stroke:#000000; stroke-linecap:round; stroke-linejoin:round; stroke-width:2; stroke-opacity:0.1; fill:none" points="1558.48,1423.18 1558.48,300.469 "/>
<polyline clip-path="url(#clip902)" style="stroke:#000000; stroke-linecap:round; stroke-linejoin:round; stroke-width:2; stroke-opacity:0.1; fill:none" points="2148.73,1423.18 2148.73,300.469 "/>
<polyline clip-path="url(#clip902)" style="stroke:#000000; stroke-linecap:round; stroke-linejoin:round; stroke-width:2; stroke-opacity:0.1; fill:none" points="202.227,1391.41 2352.76,1391.41 "/>
<polyline clip-path="url(#clip902)" style="stroke:#000000; stroke-linecap:round; stroke-linejoin:round; stroke-width:2; stroke-opacity:0.1; fill:none" points="202.227,1039.22 2352.76,1039.22 "/>
<polyline clip-path="url(#clip902)" style="stroke:#000000; stroke-linecap:round; stroke-linejoin:round; stroke-width:2; stroke-opacity:0.1; fill:none" points="202.227,687.03 2352.76,687.03 "/>
<polyline clip-path="url(#clip902)" style="stroke:#000000; stroke-linecap:round; stroke-linejoin:round; stroke-width:2; stroke-opacity:0.1; fill:none" points="202.227,334.842 2352.76,334.842 "/>
<polyline clip-path="url(#clip900)" style="stroke:#000000; stroke-linecap:round; stroke-linejoin:round; stroke-width:4; stroke-opacity:1; fill:none" points="202.227,1423.18 2352.76,1423.18 "/>
<polyline clip-path="url(#clip900)" style="stroke:#000000; stroke-linecap:round; stroke-linejoin:round; stroke-width:4; stroke-opacity:1; fill:none" points="377.991,1423.18 377.991,1407.76 "/>
<polyline clip-path="url(#clip900)" style="stroke:#000000; stroke-linecap:round; stroke-linejoin:round; stroke-width:4; stroke-opacity:1; fill:none" points="968.236,1423.18 968.236,1407.76 "/>
<polyline clip-path="url(#clip900)" style="stroke:#000000; stroke-linecap:round; stroke-linejoin:round; stroke-width:4; stroke-opacity:1; fill:none" points="1558.48,1423.18 1558.48,1407.76 "/>
<polyline clip-path="url(#clip900)" style="stroke:#000000; stroke-linecap:round; stroke-linejoin:round; stroke-width:4; stroke-opacity:1; fill:none" points="2148.73,1423.18 2148.73,1407.76 "/>
<path clip-path="url(#clip900)" d="M355.989 1454.1 Q352.378 1454.1 350.549 1457.66 Q348.744 1461.2 348.744 1468.33 Q348.744 1475.44 350.549 1479.01 Q352.378 1482.55 355.989 1482.55 Q359.623 1482.55 361.429 1479.01 Q363.257 1475.44 363.257 1468.33 Q363.257 1461.2 361.429 1457.66 Q359.623 1454.1 355.989 1454.1 M355.989 1450.39 Q361.799 1450.39 364.855 1455 Q367.933 1459.58 367.933 1468.33 Q367.933 1477.06 364.855 1481.67 Q361.799 1486.25 355.989 1486.25 Q350.179 1486.25 347.1 1481.67 Q344.044 1477.06 344.044 1468.33 Q344.044 1459.58 347.1 1455 Q350.179 1450.39 355.989 1450.39 Z" fill="#000000" fill-rule="nonzero" fill-opacity="1" /><path clip-path="url(#clip900)" d="M376.151 1479.7 L381.035 1479.7 L381.035 1485.58 L376.151 1485.58 L376.151 1479.7 Z" fill="#000000" fill-rule="nonzero" fill-opacity="1" /><path clip-path="url(#clip900)" d="M392.03 1481.64 L399.669 1481.64 L399.669 1455.28 L391.359 1456.95 L391.359 1452.69 L399.623 1451.02 L404.299 1451.02 L404.299 1481.64 L411.938 1481.64 L411.938 1485.58 L392.03 1485.58 L392.03 1481.64 Z" fill="#000000" fill-rule="nonzero" fill-opacity="1" /><path clip-path="url(#clip900)" d="M946.419 1454.1 Q942.808 1454.1 940.98 1457.66 Q939.174 1461.2 939.174 1468.33 Q939.174 1475.44 940.98 1479.01 Q942.808 1482.55 946.419 1482.55 Q950.054 1482.55 951.859 1479.01 Q953.688 1475.44 953.688 1468.33 Q953.688 1461.2 951.859 1457.66 Q950.054 1454.1 946.419 1454.1 M946.419 1450.39 Q952.23 1450.39 955.285 1455 Q958.364 1459.58 958.364 1468.33 Q958.364 1477.06 955.285 1481.67 Q952.23 1486.25 946.419 1486.25 Q940.609 1486.25 937.531 1481.67 Q934.475 1477.06 934.475 1468.33 Q934.475 1459.58 937.531 1455 Q940.609 1450.39 946.419 1450.39 Z" fill="#000000" fill-rule="nonzero" fill-opacity="1" /><path clip-path="url(#clip900)" d="M966.581 1479.7 L971.466 1479.7 L971.466 1485.58 L966.581 1485.58 L966.581 1479.7 Z" fill="#000000" fill-rule="nonzero" fill-opacity="1" /><path clip-path="url(#clip900)" d="M985.678 1481.64 L1002 1481.64 L1002 1485.58 L980.053 1485.58 L980.053 1481.64 Q982.715 1478.89 987.299 1474.26 Q991.905 1469.61 993.086 1468.27 Q995.331 1465.74 996.211 1464.01 Q997.114 1462.25 997.114 1460.56 Q997.114 1457.8 995.169 1456.07 Q993.248 1454.33 990.146 1454.33 Q987.947 1454.33 985.493 1455.09 Q983.063 1455.86 980.285 1457.41 L980.285 1452.69 Q983.109 1451.55 985.563 1450.97 Q988.016 1450.39 990.053 1450.39 Q995.424 1450.39 998.618 1453.08 Q1001.81 1455.77 1001.81 1460.26 Q1001.81 1462.39 1001 1464.31 Q1000.22 1466.2 998.109 1468.8 Q997.53 1469.47 994.428 1472.69 Q991.327 1475.88 985.678 1481.64 Z" fill="#000000" fill-rule="nonzero" fill-opacity="1" /><path clip-path="url(#clip900)" d="M1536.19 1454.1 Q1532.58 1454.1 1530.75 1457.66 Q1528.94 1461.2 1528.94 1468.33 Q1528.94 1475.44 1530.75 1479.01 Q1532.58 1482.55 1536.19 1482.55 Q1539.82 1482.55 1541.63 1479.01 Q1543.46 1475.44 1543.46 1468.33 Q1543.46 1461.2 1541.63 1457.66 Q1539.82 1454.1 1536.19 1454.1 M1536.19 1450.39 Q1542 1450.39 1545.06 1455 Q1548.13 1459.58 1548.13 1468.33 Q1548.13 1477.06 1545.06 1481.67 Q1542 1486.25 1536.19 1486.25 Q1530.38 1486.25 1527.3 1481.67 Q1524.25 1477.06 1524.25 1468.33 Q1524.25 1459.58 1527.3 1455 Q1530.38 1450.39 1536.19 1450.39 Z" fill="#000000" fill-rule="nonzero" fill-opacity="1" /><path clip-path="url(#clip900)" d="M1556.35 1479.7 L1561.24 1479.7 L1561.24 1485.58 L1556.35 1485.58 L1556.35 1479.7 Z" fill="#000000" fill-rule="nonzero" fill-opacity="1" /><path clip-path="url(#clip900)" d="M1585.59 1466.95 Q1588.94 1467.66 1590.82 1469.93 Q1592.72 1472.2 1592.72 1475.53 Q1592.72 1480.65 1589.2 1483.45 Q1585.68 1486.25 1579.2 1486.25 Q1577.02 1486.25 1574.71 1485.81 Q1572.42 1485.39 1569.96 1484.54 L1569.96 1480.02 Q1571.91 1481.16 1574.22 1481.74 Q1576.54 1482.32 1579.06 1482.32 Q1583.46 1482.32 1585.75 1480.58 Q1588.06 1478.84 1588.06 1475.53 Q1588.06 1472.48 1585.91 1470.77 Q1583.78 1469.03 1579.96 1469.03 L1575.94 1469.03 L1575.94 1465.19 L1580.15 1465.19 Q1583.6 1465.19 1585.43 1463.82 Q1587.25 1462.43 1587.25 1459.84 Q1587.25 1457.18 1585.36 1455.77 Q1583.48 1454.33 1579.96 1454.33 Q1578.04 1454.33 1575.84 1454.75 Q1573.64 1455.16 1571 1456.04 L1571 1451.88 Q1573.67 1451.14 1575.98 1450.77 Q1578.32 1450.39 1580.38 1450.39 Q1585.7 1450.39 1588.81 1452.83 Q1591.91 1455.23 1591.91 1459.35 Q1591.91 1462.22 1590.26 1464.21 Q1588.62 1466.18 1585.59 1466.95 Z" fill="#000000" fill-rule="nonzero" fill-opacity="1" /><path clip-path="url(#clip900)" d="M2125.87 1454.1 Q2122.26 1454.1 2120.43 1457.66 Q2118.62 1461.2 2118.62 1468.33 Q2118.62 1475.44 2120.43 1479.01 Q2122.26 1482.55 2125.87 1482.55 Q2129.5 1482.55 2131.31 1479.01 Q2133.14 1475.44 2133.14 1468.33 Q2133.14 1461.2 2131.31 1457.66 Q2129.5 1454.1 2125.87 1454.1 M2125.87 1450.39 Q2131.68 1450.39 2134.73 1455 Q2137.81 1459.58 2137.81 1468.33 Q2137.81 1477.06 2134.73 1481.67 Q2131.68 1486.25 2125.87 1486.25 Q2120.06 1486.25 2116.98 1481.67 Q2113.92 1477.06 2113.92 1468.33 Q2113.92 1459.58 2116.98 1455 Q2120.06 1450.39 2125.87 1450.39 Z" fill="#000000" fill-rule="nonzero" fill-opacity="1" /><path clip-path="url(#clip900)" d="M2146.03 1479.7 L2150.91 1479.7 L2150.91 1485.58 L2146.03 1485.58 L2146.03 1479.7 Z" fill="#000000" fill-rule="nonzero" fill-opacity="1" /><path clip-path="url(#clip900)" d="M2173.95 1455.09 L2162.14 1473.54 L2173.95 1473.54 L2173.95 1455.09 M2172.72 1451.02 L2178.6 1451.02 L2178.6 1473.54 L2183.53 1473.54 L2183.53 1477.43 L2178.6 1477.43 L2178.6 1485.58 L2173.95 1485.58 L2173.95 1477.43 L2158.35 1477.43 L2158.35 1472.92 L2172.72 1451.02 Z" fill="#000000" fill-rule="nonzero" fill-opacity="1" /><path clip-path="url(#clip900)" d="M1007.68 1520.52 L1047.88 1520.52 L1047.88 1525.93 L1031.01 1525.93 L1031.01 1568.04 L1024.55 1568.04 L1024.55 1525.93 L1007.68 1525.93 L1007.68 1520.52 Z" fill="#000000" fill-rule="nonzero" fill-opacity="1" /><path clip-path="url(#clip900)" d="M1064.91 1537.87 Q1063.92 1537.3 1062.74 1537.04 Q1061.6 1536.76 1060.2 1536.76 Q1055.23 1536.76 1052.56 1540 Q1049.92 1543.22 1049.92 1549.27 L1049.92 1568.04 L1044.03 1568.04 L1044.03 1532.4 L1049.92 1532.4 L1049.92 1537.93 Q1051.76 1534.69 1054.72 1533.13 Q1057.68 1531.54 1061.92 1531.54 Q1062.52 1531.54 1063.25 1531.63 Q1063.99 1531.7 1064.88 1531.85 L1064.91 1537.87 Z" fill="#000000" fill-rule="nonzero" fill-opacity="1" /><path clip-path="url(#clip900)" d="M1100.11 1548.76 L1100.11 1551.62 L1073.18 1551.62 Q1073.57 1557.67 1076.81 1560.85 Q1080.09 1564 1085.92 1564 Q1089.29 1564 1092.44 1563.17 Q1095.62 1562.35 1098.74 1560.69 L1098.74 1566.23 Q1095.59 1567.57 1092.28 1568.27 Q1088.97 1568.97 1085.57 1568.97 Q1077.04 1568.97 1072.04 1564 Q1067.07 1559.04 1067.07 1550.57 Q1067.07 1541.82 1071.78 1536.69 Q1076.53 1531.54 1084.55 1531.54 Q1091.74 1531.54 1095.91 1536.18 Q1100.11 1540.8 1100.11 1548.76 M1094.25 1547.04 Q1094.19 1542.23 1091.55 1539.37 Q1088.94 1536.5 1084.61 1536.5 Q1079.71 1536.5 1076.75 1539.27 Q1073.82 1542.04 1073.38 1547.07 L1094.25 1547.04 Z" fill="#000000" fill-rule="nonzero" fill-opacity="1" /><path clip-path="url(#clip900)" d="M1125.92 1550.12 Q1118.83 1550.12 1116.09 1551.75 Q1113.35 1553.37 1113.35 1557.29 Q1113.35 1560.4 1115.39 1562.25 Q1117.46 1564.07 1120.99 1564.07 Q1125.86 1564.07 1128.79 1560.63 Q1131.75 1557.16 1131.75 1551.43 L1131.75 1550.12 L1125.92 1550.12 M1137.61 1547.71 L1137.61 1568.04 L1131.75 1568.04 L1131.75 1562.63 Q1129.74 1565.88 1126.75 1567.44 Q1123.76 1568.97 1119.43 1568.97 Q1113.96 1568.97 1110.71 1565.91 Q1107.5 1562.82 1107.5 1557.67 Q1107.5 1551.65 1111.51 1548.6 Q1115.55 1545.54 1123.54 1545.54 L1131.75 1545.54 L1131.75 1544.97 Q1131.75 1540.93 1129.08 1538.73 Q1126.43 1536.5 1121.63 1536.5 Q1118.57 1536.5 1115.68 1537.23 Q1112.78 1537.97 1110.11 1539.43 L1110.11 1534.02 Q1113.32 1532.78 1116.34 1532.17 Q1119.37 1531.54 1122.23 1531.54 Q1129.97 1531.54 1133.79 1535.55 Q1137.61 1539.56 1137.61 1547.71 Z" fill="#000000" fill-rule="nonzero" fill-opacity="1" /><path clip-path="url(#clip900)" d="M1155.46 1522.27 L1155.46 1532.4 L1167.52 1532.4 L1167.52 1536.95 L1155.46 1536.95 L1155.46 1556.3 Q1155.46 1560.66 1156.64 1561.9 Q1157.85 1563.14 1161.51 1563.14 L1167.52 1563.14 L1167.52 1568.04 L1161.51 1568.04 Q1154.73 1568.04 1152.15 1565.53 Q1149.57 1562.98 1149.57 1556.3 L1149.57 1536.95 L1145.28 1536.95 L1145.28 1532.4 L1149.57 1532.4 L1149.57 1522.27 L1155.46 1522.27 Z" fill="#000000" fill-rule="nonzero" fill-opacity="1" /><path clip-path="url(#clip900)" d="M1202.98 1539.24 Q1205.18 1535.29 1208.23 1533.41 Q1211.29 1531.54 1215.43 1531.54 Q1221 1531.54 1224.02 1535.45 Q1227.04 1539.33 1227.04 1546.53 L1227.04 1568.04 L1221.16 1568.04 L1221.16 1546.72 Q1221.16 1541.59 1219.34 1539.11 Q1217.53 1536.63 1213.8 1536.63 Q1209.25 1536.63 1206.61 1539.65 Q1203.97 1542.68 1203.97 1547.9 L1203.97 1568.04 L1198.08 1568.04 L1198.08 1546.72 Q1198.08 1541.56 1196.27 1539.11 Q1194.45 1536.63 1190.66 1536.63 Q1186.18 1536.63 1183.53 1539.68 Q1180.89 1542.71 1180.89 1547.9 L1180.89 1568.04 L1175 1568.04 L1175 1532.4 L1180.89 1532.4 L1180.89 1537.93 Q1182.9 1534.66 1185.7 1533.1 Q1188.5 1531.54 1192.35 1531.54 Q1196.23 1531.54 1198.94 1533.51 Q1201.68 1535.48 1202.98 1539.24 Z" fill="#000000" fill-rule="nonzero" fill-opacity="1" /><path clip-path="url(#clip900)" d="M1269.22 1548.76 L1269.22 1551.62 L1242.29 1551.62 Q1242.67 1557.67 1245.92 1560.85 Q1249.2 1564 1255.02 1564 Q1258.39 1564 1261.55 1563.17 Q1264.73 1562.35 1267.85 1560.69 L1267.85 1566.23 Q1264.7 1567.57 1261.39 1568.27 Q1258.08 1568.97 1254.67 1568.97 Q1246.14 1568.97 1241.14 1564 Q1236.18 1559.04 1236.18 1550.57 Q1236.18 1541.82 1240.89 1536.69 Q1245.63 1531.54 1253.65 1531.54 Q1260.85 1531.54 1265.01 1536.18 Q1269.22 1540.8 1269.22 1548.76 M1263.36 1547.04 Q1263.3 1542.23 1260.65 1539.37 Q1258.04 1536.5 1253.72 1536.5 Q1248.81 1536.5 1245.85 1539.27 Q1242.93 1542.04 1242.48 1547.07 L1263.36 1547.04 Z" fill="#000000" fill-rule="nonzero" fill-opacity="1" /><path clip-path="url(#clip900)" d="M1308.46 1546.53 L1308.46 1568.04 L1302.6 1568.04 L1302.6 1546.72 Q1302.6 1541.66 1300.63 1539.14 Q1298.66 1536.63 1294.71 1536.63 Q1289.97 1536.63 1287.23 1539.65 Q1284.49 1542.68 1284.49 1547.9 L1284.49 1568.04 L1278.61 1568.04 L1278.61 1532.4 L1284.49 1532.4 L1284.49 1537.93 Q1286.59 1534.72 1289.43 1533.13 Q1292.29 1531.54 1296.02 1531.54 Q1302.16 1531.54 1305.31 1535.36 Q1308.46 1539.14 1308.46 1546.53 Z" fill="#000000" fill-rule="nonzero" fill-opacity="1" /><path clip-path="url(#clip900)" d="M1325.93 1522.27 L1325.93 1532.4 L1338 1532.4 L1338 1536.95 L1325.93 1536.95 L1325.93 1556.3 Q1325.93 1560.66 1327.11 1561.9 Q1328.32 1563.14 1331.98 1563.14 L1338 1563.14 L1338 1568.04 L1331.98 1568.04 Q1325.2 1568.04 1322.62 1565.53 Q1320.05 1562.98 1320.05 1556.3 L1320.05 1536.95 L1315.75 1536.95 L1315.75 1532.4 L1320.05 1532.4 L1320.05 1522.27 L1325.93 1522.27 Z" fill="#000000" fill-rule="nonzero" fill-opacity="1" /><path clip-path="url(#clip900)" d="M1366.68 1520.52 L1396.72 1520.52 L1396.72 1525.93 L1373.1 1525.93 L1373.1 1540 L1395.73 1540 L1395.73 1545.41 L1373.1 1545.41 L1373.1 1562.63 L1397.29 1562.63 L1397.29 1568.04 L1366.68 1568.04 L1366.68 1520.52 Z" fill="#000000" fill-rule="nonzero" fill-opacity="1" /><path clip-path="url(#clip900)" d="M1425.65 1518.52 L1425.65 1523.39 L1420.05 1523.39 Q1416.9 1523.39 1415.66 1524.66 Q1414.45 1525.93 1414.45 1529.24 L1414.45 1532.4 L1424.09 1532.4 L1424.09 1536.95 L1414.45 1536.95 L1414.45 1568.04 L1408.56 1568.04 L1408.56 1536.95 L1402.96 1536.95 L1402.96 1532.4 L1408.56 1532.4 L1408.56 1529.91 Q1408.56 1523.96 1411.33 1521.26 Q1414.1 1518.52 1420.12 1518.52 L1425.65 1518.52 Z" fill="#000000" fill-rule="nonzero" fill-opacity="1" /><path clip-path="url(#clip900)" d="M1448.6 1518.52 L1448.6 1523.39 L1443 1523.39 Q1439.85 1523.39 1438.61 1524.66 Q1437.4 1525.93 1437.4 1529.24 L1437.4 1532.4 L1447.04 1532.4 L1447.04 1536.95 L1437.4 1536.95 L1437.4 1568.04 L1431.51 1568.04 L1431.51 1536.95 L1425.91 1536.95 L1425.91 1532.4 L1431.51 1532.4 L1431.51 1529.91 Q1431.51 1523.96 1434.28 1521.26 Q1437.05 1518.52 1443.06 1518.52 L1448.6 1518.52 Z" fill="#000000" fill-rule="nonzero" fill-opacity="1" /><path clip-path="url(#clip900)" d="M1484 1548.76 L1484 1551.62 L1457.07 1551.62 Q1457.45 1557.67 1460.7 1560.85 Q1463.98 1564 1469.8 1564 Q1473.17 1564 1476.32 1563.17 Q1479.51 1562.35 1482.63 1560.69 L1482.63 1566.23 Q1479.48 1567.57 1476.17 1568.27 Q1472.86 1568.97 1469.45 1568.97 Q1460.92 1568.97 1455.92 1564 Q1450.96 1559.04 1450.96 1550.57 Q1450.96 1541.82 1455.67 1536.69 Q1460.41 1531.54 1468.43 1531.54 Q1475.62 1531.54 1479.79 1536.18 Q1484 1540.8 1484 1548.76 M1478.14 1547.04 Q1478.08 1542.23 1475.43 1539.37 Q1472.82 1536.5 1468.49 1536.5 Q1463.59 1536.5 1460.63 1539.27 Q1457.7 1542.04 1457.26 1547.07 L1478.14 1547.04 Z" fill="#000000" fill-rule="nonzero" fill-opacity="1" /><path clip-path="url(#clip900)" d="M1519.26 1533.76 L1519.26 1539.24 Q1516.78 1537.87 1514.26 1537.2 Q1511.78 1536.5 1509.24 1536.5 Q1503.54 1536.5 1500.39 1540.13 Q1497.24 1543.73 1497.24 1550.25 Q1497.24 1556.78 1500.39 1560.4 Q1503.54 1564 1509.24 1564 Q1511.78 1564 1514.26 1563.33 Q1516.78 1562.63 1519.26 1561.26 L1519.26 1566.68 Q1516.81 1567.82 1514.17 1568.39 Q1511.56 1568.97 1508.6 1568.97 Q1500.55 1568.97 1495.8 1563.91 Q1491.06 1558.85 1491.06 1550.25 Q1491.06 1541.53 1495.84 1536.53 Q1500.64 1531.54 1508.98 1531.54 Q1511.69 1531.54 1514.26 1532.11 Q1516.84 1532.65 1519.26 1533.76 Z" fill="#000000" fill-rule="nonzero" fill-opacity="1" /><path clip-path="url(#clip900)" d="M1535.24 1522.27 L1535.24 1532.4 L1547.3 1532.4 L1547.3 1536.95 L1535.24 1536.95 L1535.24 1556.3 Q1535.24 1560.66 1536.42 1561.9 Q1537.63 1563.14 1541.29 1563.14 L1547.3 1563.14 L1547.3 1568.04 L1541.29 1568.04 Q1534.51 1568.04 1531.93 1565.53 Q1529.35 1562.98 1529.35 1556.3 L1529.35 1536.95 L1525.05 1536.95 L1525.05 1532.4 L1529.35 1532.4 L1529.35 1522.27 L1535.24 1522.27 Z" fill="#000000" fill-rule="nonzero" fill-opacity="1" /><polyline clip-path="url(#clip900)" style="stroke:#000000; stroke-linecap:round; stroke-linejoin:round; stroke-width:4; stroke-opacity:1; fill:none" points="202.227,1423.18 202.227,300.469 "/>
<polyline clip-path="url(#clip900)" style="stroke:#000000; stroke-linecap:round; stroke-linejoin:round; stroke-width:4; stroke-opacity:1; fill:none" points="202.227,1391.41 221.125,1391.41 "/>
<polyline clip-path="url(#clip900)" style="stroke:#000000; stroke-linecap:round; stroke-linejoin:round; stroke-width:4; stroke-opacity:1; fill:none" points="202.227,1039.22 221.125,1039.22 "/>
<polyline clip-path="url(#clip900)" style="stroke:#000000; stroke-linecap:round; stroke-linejoin:round; stroke-width:4; stroke-opacity:1; fill:none" points="202.227,687.03 221.125,687.03 "/>
<polyline clip-path="url(#clip900)" style="stroke:#000000; stroke-linecap:round; stroke-linejoin:round; stroke-width:4; stroke-opacity:1; fill:none" points="202.227,334.842 221.125,334.842 "/>
<path clip-path="url(#clip900)" d="M154.283 1377.21 Q150.672 1377.21 148.843 1380.77 Q147.038 1384.31 147.038 1391.44 Q147.038 1398.55 148.843 1402.11 Q150.672 1405.66 154.283 1405.66 Q157.917 1405.66 159.723 1402.11 Q161.552 1398.55 161.552 1391.44 Q161.552 1384.31 159.723 1380.77 Q157.917 1377.21 154.283 1377.21 M154.283 1373.5 Q160.093 1373.5 163.149 1378.11 Q166.227 1382.69 166.227 1391.44 Q166.227 1400.17 163.149 1404.78 Q160.093 1409.36 154.283 1409.36 Q148.473 1409.36 145.394 1404.78 Q142.339 1400.17 142.339 1391.44 Q142.339 1382.69 145.394 1378.11 Q148.473 1373.5 154.283 1373.5 Z" fill="#000000" fill-rule="nonzero" fill-opacity="1" /><path clip-path="url(#clip900)" d="M145.325 1021.94 L163.681 1021.94 L163.681 1025.87 L149.607 1025.87 L149.607 1034.35 Q150.626 1034 151.644 1033.84 Q152.663 1033.65 153.681 1033.65 Q159.468 1033.65 162.848 1036.82 Q166.227 1039.99 166.227 1045.41 Q166.227 1050.99 162.755 1054.09 Q159.283 1057.17 152.964 1057.17 Q150.788 1057.17 148.519 1056.8 Q146.274 1056.43 143.866 1055.69 L143.866 1050.99 Q145.95 1052.12 148.172 1052.68 Q150.394 1053.24 152.871 1053.24 Q156.876 1053.24 159.214 1051.13 Q161.552 1049.02 161.552 1045.41 Q161.552 1041.8 159.214 1039.69 Q156.876 1037.59 152.871 1037.59 Q150.996 1037.59 149.121 1038 Q147.269 1038.42 145.325 1039.3 L145.325 1021.94 Z" fill="#000000" fill-rule="nonzero" fill-opacity="1" /><path clip-path="url(#clip900)" d="M114.931 700.375 L122.57 700.375 L122.57 674.01 L114.26 675.676 L114.26 671.417 L122.524 669.75 L127.2 669.75 L127.2 700.375 L134.839 700.375 L134.839 704.31 L114.931 704.31 L114.931 700.375 Z" fill="#000000" fill-rule="nonzero" fill-opacity="1" /><path clip-path="url(#clip900)" d="M154.283 672.829 Q150.672 672.829 148.843 676.394 Q147.038 679.936 147.038 687.065 Q147.038 694.172 148.843 697.736 Q150.672 701.278 154.283 701.278 Q157.917 701.278 159.723 697.736 Q161.552 694.172 161.552 687.065 Q161.552 679.936 159.723 676.394 Q157.917 672.829 154.283 672.829 M154.283 669.125 Q160.093 669.125 163.149 673.732 Q166.227 678.315 166.227 687.065 Q166.227 695.792 163.149 700.398 Q160.093 704.982 154.283 704.982 Q148.473 704.982 145.394 700.398 Q142.339 695.792 142.339 687.065 Q142.339 678.315 145.394 673.732 Q148.473 669.125 154.283 669.125 Z" fill="#000000" fill-rule="nonzero" fill-opacity="1" /><path clip-path="url(#clip900)" d="M115.927 348.187 L123.566 348.187 L123.566 321.821 L115.256 323.488 L115.256 319.228 L123.519 317.562 L128.195 317.562 L128.195 348.187 L135.834 348.187 L135.834 352.122 L115.927 352.122 L115.927 348.187 Z" fill="#000000" fill-rule="nonzero" fill-opacity="1" /><path clip-path="url(#clip900)" d="M145.325 317.562 L163.681 317.562 L163.681 321.497 L149.607 321.497 L149.607 329.969 Q150.626 329.622 151.644 329.46 Q152.663 329.275 153.681 329.275 Q159.468 329.275 162.848 332.446 Q166.227 335.617 166.227 341.034 Q166.227 346.612 162.755 349.714 Q159.283 352.793 152.964 352.793 Q150.788 352.793 148.519 352.423 Q146.274 352.052 143.866 351.312 L143.866 346.612 Q145.95 347.747 148.172 348.302 Q150.394 348.858 152.871 348.858 Q156.876 348.858 159.214 346.751 Q161.552 344.645 161.552 341.034 Q161.552 337.423 159.214 335.316 Q156.876 333.21 152.871 333.21 Q150.996 333.21 149.121 333.626 Q147.269 334.043 145.325 334.923 L145.325 317.562 Z" fill="#000000" fill-rule="nonzero" fill-opacity="1" /><path clip-path="url(#clip900)" d="M21.7677 975.134 L58.7206 975.134 L58.7206 967.368 Q58.7206 957.533 54.2646 952.981 Q49.8086 948.398 40.1964 948.398 Q30.6479 948.398 26.2237 952.981 Q21.7677 957.533 21.7677 967.368 L21.7677 975.134 M16.4842 981.563 L16.4842 968.354 Q16.4842 954.541 22.2451 948.08 Q27.9743 941.618 40.1964 941.618 Q52.4822 941.618 58.2432 948.111 Q64.0042 954.604 64.0042 968.354 L64.0042 981.563 L16.4842 981.563 Z" fill="#000000" fill-rule="nonzero" fill-opacity="1" /><path clip-path="url(#clip900)" d="M44.7161 901.132 L47.5806 901.132 L47.5806 928.059 Q53.6281 927.677 56.8109 924.431 Q59.9619 921.153 59.9619 915.328 Q59.9619 911.954 59.1344 908.803 Q58.3069 905.62 56.6518 902.501 L62.1899 902.501 Q63.5267 905.652 64.227 908.962 Q64.9272 912.272 64.9272 915.678 Q64.9272 924.208 59.9619 929.205 Q54.9967 934.17 46.5303 934.17 Q37.7774 934.17 32.6531 929.46 Q27.4968 924.717 27.4968 916.697 Q27.4968 909.503 32.1438 905.334 Q36.7589 901.132 44.7161 901.132 M42.9973 906.989 Q38.1912 907.053 35.3266 909.694 Q32.4621 912.304 32.4621 916.633 Q32.4621 921.535 35.2312 924.495 Q38.0002 927.423 43.0292 927.868 L42.9973 906.989 Z" fill="#000000" fill-rule="nonzero" fill-opacity="1" /><path clip-path="url(#clip900)" d="M42.4881 861.888 L64.0042 861.888 L64.0042 867.744 L42.679 867.744 Q37.6183 867.744 35.1038 869.718 Q32.5894 871.691 32.5894 875.638 Q32.5894 880.38 35.6131 883.118 Q38.6368 885.855 43.8567 885.855 L64.0042 885.855 L64.0042 891.743 L28.3562 891.743 L28.3562 885.855 L33.8944 885.855 Q30.6797 883.754 29.0883 880.921 Q27.4968 878.057 27.4968 874.333 Q27.4968 868.19 31.3163 865.039 Q35.1038 861.888 42.4881 861.888 Z" fill="#000000" fill-rule="nonzero" fill-opacity="1" /><path clip-path="url(#clip900)" d="M29.4065 827.481 L34.9447 827.481 Q33.6716 829.964 33.035 832.637 Q32.3984 835.311 32.3984 838.176 Q32.3984 842.536 33.7352 844.732 Q35.072 846.897 37.7456 846.897 Q39.7826 846.897 40.9603 845.337 Q42.1061 843.777 43.1565 839.067 L43.6021 837.062 Q44.9389 830.823 47.3897 828.213 Q49.8086 825.572 54.1691 825.572 Q59.1344 825.572 62.0308 829.518 Q64.9272 833.433 64.9272 840.308 Q64.9272 843.173 64.3543 846.292 Q63.8132 849.379 62.6992 852.817 L56.6518 852.817 Q58.3387 849.57 59.198 846.419 Q60.0256 843.268 60.0256 840.181 Q60.0256 836.043 58.6251 833.815 Q57.1929 831.587 54.6147 831.587 Q52.2276 831.587 50.9545 833.21 Q49.6813 834.802 48.5037 840.244 L48.0262 842.282 Q46.8804 847.724 44.5251 850.143 Q42.138 852.562 38.0002 852.562 Q32.9713 852.562 30.2341 848.997 Q27.4968 845.433 27.4968 838.876 Q27.4968 835.629 27.9743 832.765 Q28.4517 829.9 29.4065 827.481 Z" fill="#000000" fill-rule="nonzero" fill-opacity="1" /><path clip-path="url(#clip900)" d="M28.3562 816.246 L28.3562 810.389 L64.0042 810.389 L64.0042 816.246 L28.3562 816.246 M14.479 816.246 L14.479 810.389 L21.895 810.389 L21.895 816.246 L14.479 816.246 Z" fill="#000000" fill-rule="nonzero" fill-opacity="1" /><path clip-path="url(#clip900)" d="M18.2347 792.343 L28.3562 792.343 L28.3562 780.28 L32.9077 780.28 L32.9077 792.343 L52.2594 792.343 Q56.6199 792.343 57.8613 791.165 Q59.1026 789.955 59.1026 786.295 L59.1026 780.28 L64.0042 780.28 L64.0042 786.295 Q64.0042 793.075 61.4897 795.653 Q58.9434 798.231 52.2594 798.231 L32.9077 798.231 L32.9077 802.528 L28.3562 802.528 L28.3562 798.231 L18.2347 798.231 L18.2347 792.343 Z" fill="#000000" fill-rule="nonzero" fill-opacity="1" /><path clip-path="url(#clip900)" d="M67.3143 757.745 Q73.68 760.228 75.6216 762.583 Q77.5631 764.938 77.5631 768.885 L77.5631 773.564 L72.6615 773.564 L72.6615 770.126 Q72.6615 767.707 71.5157 766.37 Q70.3699 765.034 66.1048 763.41 L63.4312 762.36 L28.3562 776.778 L28.3562 770.572 L56.238 759.432 L28.3562 748.292 L28.3562 742.085 L67.3143 757.745 Z" fill="#000000" fill-rule="nonzero" fill-opacity="1" /><polyline clip-path="url(#clip902)" style="stroke:#009af9; stroke-linecap:round; stroke-linejoin:round; stroke-width:8; stroke-opacity:1; fill:none" points="263.091,1391.4 269.456,1391.4 275.821,1391.4 282.186,1391.39 288.551,1391.38 294.916,1391.35 301.281,1391.31 307.646,1391.24 314.011,1391.13 320.375,1390.98 326.74,1390.75 333.105,1390.43 339.47,1390 345.835,1389.44 352.2,1388.73 358.565,1387.88 364.93,1386.89 371.295,1385.77 377.659,1384.54 384.024,1383.23 390.389,1381.87 396.754,1380.48 403.119,1379.07 409.484,1377.62 415.849,1376.13 422.214,1374.56 428.579,1372.89 434.943,1371.11 441.308,1369.22 447.673,1367.27 454.038,1365.3 460.403,1363.38 466.768,1361.58 473.133,1359.91 479.498,1358.36 485.863,1356.86 492.227,1355.27 498.592,1353.36 504.957,1350.88 511.322,1347.55 517.687,1343.08 524.052,1337.24 530.417,1329.84 536.782,1320.81 543.147,1310.18 549.512,1298.09 555.876,1284.83 562.241,1270.73 568.606,1256.21 574.971,1241.71 581.336,1227.63 587.701,1214.31 594.066,1201.97 600.431,1190.68 606.796,1180.36 613.16,1170.79 619.525,1161.59 625.89,1152.28 632.255,1142.36 638.62,1131.31 644.985,1118.67 651.35,1104.09 657.715,1087.37 664.08,1068.46 670.444,1047.45 676.809,1024.56 683.174,1000.07 689.539,974.307 695.904,947.597 702.269,920.223 708.634,892.427 714.999,864.407 721.364,836.331 727.728,808.357 734.093,780.646 740.458,753.371 746.823,726.713 753.188,700.839 759.553,675.881 765.918,651.912 772.283,628.919 778.648,606.802 785.012,585.382 791.377,564.424 797.742,543.68 804.107,522.934 810.472,502.047 816.837,480.995 823.202,459.887 829.567,438.973 835.932,418.628 842.296,399.321 848.661,381.575 855.026,365.919 861.391,352.839 867.756,342.732 874.121,335.872 880.486,332.386 886.851,332.243 893.216,335.268 899.58,341.156 905.945,349.513 912.31,359.896 918.675,371.85 925.04,384.947 931.405,398.816 937.77,413.166 944.135,427.799 950.5,442.626 956.864,457.668 963.229,473.058 969.594,489.03 975.959,505.894 982.324,523.986 988.689,543.616 995.054,564.989 1001.42,588.141 1007.78,612.887 1014.15,638.804 1020.51,665.255 1026.88,691.458 1033.24,716.587 1039.61,739.895 1045.97,760.829 1052.34,779.126 1058.7,794.853 1065.07,808.41 1071.43,820.47 1077.8,831.886 1084.16,843.571 1090.53,856.38 1096.89,870.996 1103.26,887.854 1109.62,907.104 1115.99,928.601 1122.35,951.951 1128.72,976.57 1135.08,1001.77 1141.45,1026.86 1147.81,1051.21 1154.18,1074.33 1160.54,1095.91 1166.91,1115.81 1173.27,1134.08 1179.64,1150.87 1186,1166.44 1192.37,1181.02 1198.73,1194.85 1205.1,1208.08 1211.46,1220.79 1217.82,1232.99 1224.19,1244.62 1230.55,1255.6 1236.92,1265.83 1243.28,1275.26 1249.65,1283.89 1256.01,1291.77 1262.38,1299 1268.74,1305.72 1275.11,1312.08 1281.47,1318.24 1287.84,1324.29 1294.2,1330.32 1300.57,1336.32 1306.93,1342.26 1313.3,1348.08 1319.66,1353.66 1326.03,1358.91 1332.39,1363.72 1338.76,1368.02 1345.12,1371.76 1351.49,1374.93 1357.85,1377.55 1364.22,1379.67 1370.58,1381.37 1376.95,1382.72 1383.31,1383.82 1389.68,1384.74 1396.04,1385.55 1402.41,1386.29 1408.77,1386.99 1415.14,1387.65 1421.5,1388.28 1427.87,1388.86 1434.23,1389.39 1440.6,1389.85 1446.96,1390.24 1453.33,1390.56 1459.69,1390.81 1466.06,1391 1472.42,1391.14 1478.79,1391.23 1485.15,1391.3 1491.52,1391.34 1497.88,1391.37 1504.24,1391.39 1510.61,1391.4 1516.97,1391.4 1523.34,1391.4 1529.7,1391.4 "/>
<polyline clip-path="url(#clip902)" style="stroke:#e26f46; stroke-linecap:round; stroke-linejoin:round; stroke-width:8; stroke-opacity:1; fill:none" stroke-dasharray="32, 20" points="1036.12,1391.4 1042.43,1391.4 1048.74,1391.4 1055.05,1391.4 1061.36,1391.39 1067.67,1391.37 1073.98,1391.34 1080.3,1391.3 1086.61,1391.23 1092.92,1391.13 1099.23,1390.98 1105.54,1390.77 1111.85,1390.48 1118.16,1390.1 1124.47,1389.61 1130.78,1389.01 1137.09,1388.29 1143.4,1387.45 1149.71,1386.5 1156.02,1385.45 1162.33,1384.34 1168.64,1383.18 1174.95,1381.99 1181.26,1380.77 1187.57,1379.53 1193.88,1378.26 1200.19,1376.93 1206.5,1375.52 1212.81,1374 1219.12,1372.34 1225.43,1370.52 1231.74,1368.54 1238.06,1366.4 1244.37,1364.1 1250.68,1361.63 1256.99,1358.99 1263.3,1356.14 1269.61,1353.05 1275.92,1349.64 1282.23,1345.87 1288.54,1341.66 1294.85,1336.96 1301.16,1331.72 1307.47,1325.91 1313.78,1319.52 1320.09,1312.53 1326.4,1304.93 1332.71,1296.71 1339.02,1287.84 1345.33,1278.33 1351.64,1268.16 1357.95,1257.35 1364.26,1245.93 1370.57,1233.95 1376.88,1221.48 1383.19,1208.57 1389.5,1195.27 1395.82,1181.61 1402.13,1167.56 1408.44,1153.05 1414.75,1137.98 1421.06,1122.23 1427.37,1105.67 1433.68,1088.19 1439.99,1069.76 1446.3,1050.38 1452.61,1030.11 1458.92,1009.09 1465.23,987.47 1471.54,965.412 1477.85,943.054 1484.16,920.488 1490.47,897.745 1496.78,874.8 1503.09,851.581 1509.4,828.006 1515.71,804.006 1522.02,779.561 1528.33,754.728 1534.64,729.643 1540.95,704.522 1547.26,679.639 1553.58,655.287 1559.89,631.743 1566.2,609.232 1572.51,587.892 1578.82,567.761 1585.13,548.78 1591.44,530.8 1597.75,513.613 1604.06,496.989 1610.37,480.706 1616.68,464.594 1622.99,448.556 1629.3,432.595 1635.61,416.817 1641.92,401.434 1648.23,386.747 1654.54,373.127 1660.85,360.983 1667.16,350.741 1673.47,342.807 1679.78,337.549 1686.09,335.274 1692.4,336.211 1698.71,340.5 1705.02,348.177 1711.34,359.168 1717.65,373.282 1723.96,390.222 1730.27,409.593 1736.58,430.939 1742.89,453.778 1749.2,477.645 1755.51,502.14 1761.82,526.949 1768.13,551.854 1774.44,576.722 1780.75,601.471 1787.06,626.03 1793.37,650.298 1799.68,674.122 1805.99,697.293 1812.3,719.561 1818.61,740.67 1824.92,760.407 1831.23,778.633 1837.54,795.314 1843.85,810.527 1850.16,824.455 1856.47,837.358 1862.78,849.55 1869.1,861.363 1875.41,873.124 1881.72,885.129 1888.03,897.635 1894.34,910.844 1900.65,924.903 1906.96,939.902 1913.27,955.881 1919.58,972.834 1925.89,990.727 1932.2,1009.5 1938.51,1029.07 1944.82,1049.34 1951.13,1070.19 1957.44,1091.45 1963.75,1112.93 1970.06,1134.38 1976.37,1155.49 1982.68,1175.92 1988.99,1195.36 1995.3,1213.47 2001.61,1230 2007.92,1244.76 2014.23,1257.67 2020.54,1268.75 2026.86,1278.11 2033.17,1285.95 2039.48,1292.52 2045.79,1298.1 2052.1,1303 2058.41,1307.46 2064.72,1311.72 2071.03,1315.95 2077.34,1320.27 2083.65,1324.72 2089.96,1329.32 2096.27,1334.04 2102.58,1338.81 2108.89,1343.57 2115.2,1348.25 2121.51,1352.77 2127.82,1357.11 2134.13,1361.21 2140.44,1365.06 2146.75,1368.66 2153.06,1371.98 2159.37,1375.02 2165.68,1377.78 2171.99,1380.26 2178.3,1382.45 2184.62,1384.34 2190.93,1385.94 2197.24,1387.28 2203.55,1388.36 2209.86,1389.21 2216.17,1389.86 2222.48,1390.35 2228.79,1390.7 2235.1,1390.95 2241.41,1391.12 2247.72,1391.23 2254.03,1391.3 2260.34,1391.35 2266.65,1391.37 2272.96,1391.39 2279.27,1391.4 2285.58,1391.4 2291.89,1391.4 "/>
<polyline clip-path="url(#clip902)" style="stroke:#000000; stroke-linecap:round; stroke-linejoin:round; stroke-width:8; stroke-opacity:1; fill:none" stroke-dasharray="4, 8" points="899.431,2545.89 899.431,-822.243 "/>
<path clip-path="url(#clip900)" d="M781.171 254.604 L1773.81 254.604 L1773.81 47.2441 L781.171 47.2441  Z" fill="#ffffff" fill-rule="evenodd" fill-opacity="1"/>
<polyline clip-path="url(#clip900)" style="stroke:#000000; stroke-linecap:round; stroke-linejoin:round; stroke-width:4; stroke-opacity:1; fill:none" points="781.171,254.604 1773.81,254.604 1773.81,47.2441 781.171,47.2441 781.171,254.604 "/>
<polyline clip-path="url(#clip900)" style="stroke:#009af9; stroke-linecap:round; stroke-linejoin:round; stroke-width:8; stroke-opacity:1; fill:none" points="805.066,99.0841 948.434,99.0841 "/>
<path clip-path="url(#clip900)" d="M994.574 82.9383 L994.574 87.4985 Q991.912 86.2254 989.551 85.6004 Q987.19 84.9754 984.991 84.9754 Q981.172 84.9754 979.088 86.4568 Q977.028 87.9383 977.028 90.6698 Q977.028 92.9614 978.394 94.142 Q979.783 95.2994 983.625 96.017 L986.449 96.5957 Q991.681 97.591 994.158 100.114 Q996.658 102.614 996.658 106.827 Q996.658 111.85 993.278 114.443 Q989.922 117.035 983.417 117.035 Q980.963 117.035 978.186 116.48 Q975.431 115.924 972.468 114.836 L972.468 110.022 Q975.315 111.619 978.047 112.429 Q980.778 113.239 983.417 113.239 Q987.422 113.239 989.598 111.665 Q991.773 110.091 991.773 107.174 Q991.773 104.628 990.199 103.193 Q988.648 101.758 985.084 101.04 L982.236 100.485 Q977.005 99.4429 974.667 97.2207 Q972.329 94.9985 972.329 91.0402 Q972.329 86.4568 975.547 83.818 Q978.787 81.1791 984.459 81.1791 Q986.889 81.1791 989.412 81.6189 Q991.936 82.0587 994.574 82.9383 Z" fill="#000000" fill-rule="nonzero" fill-opacity="1" /><path clip-path="url(#clip900)" d="M1015.55 103.332 Q1010.38 103.332 1008.39 104.512 Q1006.4 105.693 1006.4 108.54 Q1006.4 110.809 1007.88 112.151 Q1009.39 113.471 1011.96 113.471 Q1015.5 113.471 1017.63 110.971 Q1019.78 108.447 1019.78 104.281 L1019.78 103.332 L1015.55 103.332 M1024.04 101.573 L1024.04 116.364 L1019.78 116.364 L1019.78 112.429 Q1018.32 114.79 1016.15 115.924 Q1013.97 117.035 1010.82 117.035 Q1006.84 117.035 1004.48 114.813 Q1002.14 112.568 1002.14 108.818 Q1002.14 104.443 1005.06 102.221 Q1008 99.9984 1013.81 99.9984 L1019.78 99.9984 L1019.78 99.5818 Q1019.78 96.642 1017.84 95.0448 Q1015.92 93.4244 1012.42 93.4244 Q1010.2 93.4244 1008.09 93.9568 Q1005.99 94.4892 1004.04 95.554 L1004.04 91.6189 Q1006.38 90.7161 1008.58 90.2763 Q1010.78 89.8133 1012.86 89.8133 Q1018.49 89.8133 1021.26 92.73 Q1024.04 95.6466 1024.04 101.573 Z" fill="#000000" fill-rule="nonzero" fill-opacity="1" /><path clip-path="url(#clip900)" d="M1053 95.4151 Q1054.6 92.5448 1056.82 91.179 Q1059.04 89.8133 1062.05 89.8133 Q1066.1 89.8133 1068.3 92.6605 Q1070.5 95.4846 1070.5 100.716 L1070.5 116.364 L1066.22 116.364 L1066.22 100.855 Q1066.22 97.1281 1064.9 95.3225 Q1063.58 93.517 1060.87 93.517 Q1057.56 93.517 1055.64 95.7161 Q1053.72 97.9151 1053.72 101.711 L1053.72 116.364 L1049.44 116.364 L1049.44 100.855 Q1049.44 97.1049 1048.12 95.3225 Q1046.8 93.517 1044.04 93.517 Q1040.78 93.517 1038.86 95.7392 Q1036.94 97.9383 1036.94 101.711 L1036.94 116.364 L1032.65 116.364 L1032.65 90.4383 L1036.94 90.4383 L1036.94 94.4661 Q1038.39 92.0818 1040.43 90.9476 Q1042.47 89.8133 1045.27 89.8133 Q1048.09 89.8133 1050.06 91.2485 Q1052.05 92.6837 1053 95.4151 Z" fill="#000000" fill-rule="nonzero" fill-opacity="1" /><path clip-path="url(#clip900)" d="M1083.12 112.475 L1083.12 126.225 L1078.83 126.225 L1078.83 90.4383 L1083.12 90.4383 L1083.12 94.3735 Q1084.46 92.0587 1086.5 90.9476 Q1088.56 89.8133 1091.4 89.8133 Q1096.12 89.8133 1099.06 93.5633 Q1102.03 97.3133 1102.03 103.424 Q1102.03 109.535 1099.06 113.285 Q1096.12 117.035 1091.4 117.035 Q1088.56 117.035 1086.5 115.924 Q1084.46 114.79 1083.12 112.475 M1097.61 103.424 Q1097.61 98.7253 1095.66 96.0633 Q1093.74 93.3781 1090.36 93.3781 Q1086.98 93.3781 1085.04 96.0633 Q1083.12 98.7253 1083.12 103.424 Q1083.12 108.123 1085.04 110.809 Q1086.98 113.471 1090.36 113.471 Q1093.74 113.471 1095.66 110.809 Q1097.61 108.123 1097.61 103.424 Z" fill="#000000" fill-rule="nonzero" fill-opacity="1" /><path clip-path="url(#clip900)" d="M1109.09 80.3458 L1113.35 80.3458 L1113.35 116.364 L1109.09 116.364 L1109.09 80.3458 Z" fill="#000000" fill-rule="nonzero" fill-opacity="1" /><path clip-path="url(#clip900)" d="M1144.43 102.336 L1144.43 104.42 L1124.85 104.42 Q1125.13 108.818 1127.49 111.133 Q1129.87 113.424 1134.11 113.424 Q1136.56 113.424 1138.86 112.822 Q1141.17 112.221 1143.44 111.017 L1143.44 115.045 Q1141.15 116.017 1138.74 116.526 Q1136.33 117.035 1133.86 117.035 Q1127.65 117.035 1124.02 113.424 Q1120.41 109.813 1120.41 103.656 Q1120.41 97.2901 1123.83 93.5633 Q1127.28 89.8133 1133.12 89.8133 Q1138.35 89.8133 1141.38 93.1929 Q1144.43 96.5494 1144.43 102.336 M1140.18 101.086 Q1140.13 97.591 1138.21 95.5077 Q1136.31 93.4244 1133.16 93.4244 Q1129.6 93.4244 1127.44 95.4383 Q1125.31 97.4522 1124.99 101.11 L1140.18 101.086 Z" fill="#000000" fill-rule="nonzero" fill-opacity="1" /><path clip-path="url(#clip900)" d="M1161.89 81.8041 L1191.12 81.8041 L1191.12 85.7393 L1178.86 85.7393 L1178.86 116.364 L1174.16 116.364 L1174.16 85.7393 L1161.89 85.7393 L1161.89 81.8041 Z" fill="#000000" fill-rule="nonzero" fill-opacity="1" /><path clip-path="url(#clip900)" d="M1197.44 93.4244 Q1194.02 93.4244 1192.03 96.1096 Q1190.04 98.7716 1190.04 103.424 Q1190.04 108.077 1192 110.762 Q1193.99 113.424 1197.44 113.424 Q1200.85 113.424 1202.84 110.739 Q1204.83 108.054 1204.83 103.424 Q1204.83 98.8179 1202.84 96.1327 Q1200.85 93.4244 1197.44 93.4244 M1197.44 89.8133 Q1203 89.8133 1206.17 93.4244 Q1209.34 97.0355 1209.34 103.424 Q1209.34 109.79 1206.17 113.424 Q1203 117.035 1197.44 117.035 Q1191.86 117.035 1188.69 113.424 Q1185.55 109.79 1185.55 103.424 Q1185.55 97.0355 1188.69 93.4244 Q1191.86 89.8133 1197.44 89.8133 Z" fill="#000000" fill-rule="nonzero" fill-opacity="1" /><path clip-path="url(#clip900)" d="M1220.61 83.0772 L1220.61 90.4383 L1229.39 90.4383 L1229.39 93.7485 L1220.61 93.7485 L1220.61 107.822 Q1220.61 110.994 1221.47 111.897 Q1222.35 112.799 1225.01 112.799 L1229.39 112.799 L1229.39 116.364 L1225.01 116.364 Q1220.08 116.364 1218.21 114.535 Q1216.33 112.684 1216.33 107.822 L1216.33 93.7485 L1213.21 93.7485 L1213.21 90.4383 L1216.33 90.4383 L1216.33 83.0772 L1220.61 83.0772 Z" fill="#000000" fill-rule="nonzero" fill-opacity="1" /><path clip-path="url(#clip900)" d="M1246.77 103.332 Q1241.61 103.332 1239.62 104.512 Q1237.63 105.693 1237.63 108.54 Q1237.63 110.809 1239.11 112.151 Q1240.61 113.471 1243.18 113.471 Q1246.73 113.471 1248.86 110.971 Q1251.01 108.447 1251.01 104.281 L1251.01 103.332 L1246.77 103.332 M1255.27 101.573 L1255.27 116.364 L1251.01 116.364 L1251.01 112.429 Q1249.55 114.79 1247.37 115.924 Q1245.2 117.035 1242.05 117.035 Q1238.07 117.035 1235.71 114.813 Q1233.37 112.568 1233.37 108.818 Q1233.37 104.443 1236.29 102.221 Q1239.23 99.9984 1245.04 99.9984 L1251.01 99.9984 L1251.01 99.5818 Q1251.01 96.642 1249.06 95.0448 Q1247.14 93.4244 1243.65 93.4244 Q1241.42 93.4244 1239.32 93.9568 Q1237.21 94.4892 1235.27 95.554 L1235.27 91.6189 Q1237.61 90.7161 1239.8 90.2763 Q1242 89.8133 1244.09 89.8133 Q1249.71 89.8133 1252.49 92.73 Q1255.27 95.6466 1255.27 101.573 Z" fill="#000000" fill-rule="nonzero" fill-opacity="1" /><path clip-path="url(#clip900)" d="M1264.04 80.3458 L1268.3 80.3458 L1268.3 116.364 L1264.04 116.364 L1264.04 80.3458 Z" fill="#000000" fill-rule="nonzero" fill-opacity="1" /><path clip-path="url(#clip900)" d="M1287.67 81.8041 L1316.91 81.8041 L1316.91 85.7393 L1304.64 85.7393 L1304.64 116.364 L1299.94 116.364 L1299.94 85.7393 L1287.67 85.7393 L1287.67 81.8041 Z" fill="#000000" fill-rule="nonzero" fill-opacity="1" /><path clip-path="url(#clip900)" d="M1329.29 94.4198 Q1328.58 94.0031 1327.72 93.8179 Q1326.89 93.6096 1325.87 93.6096 Q1322.26 93.6096 1320.31 95.9707 Q1318.39 98.3086 1318.39 102.707 L1318.39 116.364 L1314.11 116.364 L1314.11 90.4383 L1318.39 90.4383 L1318.39 94.4661 Q1319.73 92.105 1321.89 90.9707 Q1324.04 89.8133 1327.12 89.8133 Q1327.56 89.8133 1328.09 89.8828 Q1328.62 89.9291 1329.27 90.0448 L1329.29 94.4198 Z" fill="#000000" fill-rule="nonzero" fill-opacity="1" /><path clip-path="url(#clip900)" d="M1354.9 102.336 L1354.9 104.42 L1335.31 104.42 Q1335.59 108.818 1337.95 111.133 Q1340.34 113.424 1344.57 113.424 Q1347.03 113.424 1349.32 112.822 Q1351.63 112.221 1353.9 111.017 L1353.9 115.045 Q1351.61 116.017 1349.2 116.526 Q1346.79 117.035 1344.32 117.035 Q1338.11 117.035 1334.48 113.424 Q1330.87 109.813 1330.87 103.656 Q1330.87 97.2901 1334.29 93.5633 Q1337.74 89.8133 1343.58 89.8133 Q1348.81 89.8133 1351.84 93.1929 Q1354.9 96.5494 1354.9 102.336 M1350.64 101.086 Q1350.59 97.591 1348.67 95.5077 Q1346.77 93.4244 1343.62 93.4244 Q1340.06 93.4244 1337.91 95.4383 Q1335.78 97.4522 1335.45 101.11 L1350.64 101.086 Z" fill="#000000" fill-rule="nonzero" fill-opacity="1" /><path clip-path="url(#clip900)" d="M1373.67 103.332 Q1368.51 103.332 1366.52 104.512 Q1364.53 105.693 1364.53 108.54 Q1364.53 110.809 1366.01 112.151 Q1367.51 113.471 1370.08 113.471 Q1373.62 113.471 1375.75 110.971 Q1377.91 108.447 1377.91 104.281 L1377.91 103.332 L1373.67 103.332 M1382.16 101.573 L1382.16 116.364 L1377.91 116.364 L1377.91 112.429 Q1376.45 114.79 1374.27 115.924 Q1372.1 117.035 1368.95 117.035 Q1364.97 117.035 1362.6 114.813 Q1360.27 112.568 1360.27 108.818 Q1360.27 104.443 1363.18 102.221 Q1366.12 99.9984 1371.93 99.9984 L1377.91 99.9984 L1377.91 99.5818 Q1377.91 96.642 1375.96 95.0448 Q1374.04 93.4244 1370.54 93.4244 Q1368.32 93.4244 1366.22 93.9568 Q1364.11 94.4892 1362.17 95.554 L1362.17 91.6189 Q1364.5 90.7161 1366.7 90.2763 Q1368.9 89.8133 1370.98 89.8133 Q1376.61 89.8133 1379.39 92.73 Q1382.16 95.6466 1382.16 101.573 Z" fill="#000000" fill-rule="nonzero" fill-opacity="1" /><path clip-path="url(#clip900)" d="M1395.15 83.0772 L1395.15 90.4383 L1403.92 90.4383 L1403.92 93.7485 L1395.15 93.7485 L1395.15 107.822 Q1395.15 110.994 1396.01 111.897 Q1396.89 112.799 1399.55 112.799 L1403.92 112.799 L1403.92 116.364 L1399.55 116.364 Q1394.62 116.364 1392.74 114.535 Q1390.87 112.684 1390.87 107.822 L1390.87 93.7485 L1387.74 93.7485 L1387.74 90.4383 L1390.87 90.4383 L1390.87 83.0772 L1395.15 83.0772 Z" fill="#000000" fill-rule="nonzero" fill-opacity="1" /><path clip-path="url(#clip900)" d="M1429.71 95.4151 Q1431.31 92.5448 1433.53 91.179 Q1435.75 89.8133 1438.76 89.8133 Q1442.81 89.8133 1445.01 92.6605 Q1447.21 95.4846 1447.21 100.716 L1447.21 116.364 L1442.93 116.364 L1442.93 100.855 Q1442.93 97.1281 1441.61 95.3225 Q1440.29 93.517 1437.58 93.517 Q1434.27 93.517 1432.35 95.7161 Q1430.43 97.9151 1430.43 101.711 L1430.43 116.364 L1426.15 116.364 L1426.15 100.855 Q1426.15 97.1049 1424.83 95.3225 Q1423.51 93.517 1420.75 93.517 Q1417.49 93.517 1415.57 95.7392 Q1413.65 97.9383 1413.65 101.711 L1413.65 116.364 L1409.36 116.364 L1409.36 90.4383 L1413.65 90.4383 L1413.65 94.4661 Q1415.1 92.0818 1417.14 90.9476 Q1419.18 89.8133 1421.98 89.8133 Q1424.8 89.8133 1426.77 91.2485 Q1428.76 92.6837 1429.71 95.4151 Z" fill="#000000" fill-rule="nonzero" fill-opacity="1" /><path clip-path="url(#clip900)" d="M1477.88 102.336 L1477.88 104.42 L1458.3 104.42 Q1458.58 108.818 1460.94 111.133 Q1463.32 113.424 1467.56 113.424 Q1470.01 113.424 1472.3 112.822 Q1474.62 112.221 1476.89 111.017 L1476.89 115.045 Q1474.59 116.017 1472.19 116.526 Q1469.78 117.035 1467.3 117.035 Q1461.1 117.035 1457.47 113.424 Q1453.85 109.813 1453.85 103.656 Q1453.85 97.2901 1457.28 93.5633 Q1460.73 89.8133 1466.56 89.8133 Q1471.79 89.8133 1474.83 93.1929 Q1477.88 96.5494 1477.88 102.336 M1473.62 101.086 Q1473.58 97.591 1471.66 95.5077 Q1469.76 93.4244 1466.61 93.4244 Q1463.04 93.4244 1460.89 95.4383 Q1458.76 97.4522 1458.44 101.11 L1473.62 101.086 Z" fill="#000000" fill-rule="nonzero" fill-opacity="1" /><path clip-path="url(#clip900)" d="M1506.42 100.716 L1506.42 116.364 L1502.16 116.364 L1502.16 100.855 Q1502.16 97.1744 1500.73 95.3457 Q1499.29 93.517 1496.42 93.517 Q1492.97 93.517 1490.98 95.7161 Q1488.99 97.9151 1488.99 101.711 L1488.99 116.364 L1484.71 116.364 L1484.71 90.4383 L1488.99 90.4383 L1488.99 94.4661 Q1490.52 92.1281 1492.58 90.9707 Q1494.66 89.8133 1497.37 89.8133 Q1501.84 89.8133 1504.13 92.5911 Q1506.42 95.3457 1506.42 100.716 Z" fill="#000000" fill-rule="nonzero" fill-opacity="1" /><path clip-path="url(#clip900)" d="M1519.13 83.0772 L1519.13 90.4383 L1527.9 90.4383 L1527.9 93.7485 L1519.13 93.7485 L1519.13 107.822 Q1519.13 110.994 1519.99 111.897 Q1520.87 112.799 1523.53 112.799 L1527.9 112.799 L1527.9 116.364 L1523.53 116.364 Q1518.6 116.364 1516.72 114.535 Q1514.85 112.684 1514.85 107.822 L1514.85 93.7485 L1511.72 93.7485 L1511.72 90.4383 L1514.85 90.4383 L1514.85 83.0772 L1519.13 83.0772 Z" fill="#000000" fill-rule="nonzero" fill-opacity="1" /><path clip-path="url(#clip900)" d="M1548.76 81.8041 L1570.61 81.8041 L1570.61 85.7393 L1553.44 85.7393 L1553.44 95.9707 L1569.9 95.9707 L1569.9 99.9058 L1553.44 99.9058 L1553.44 112.429 L1571.03 112.429 L1571.03 116.364 L1548.76 116.364 L1548.76 81.8041 Z" fill="#000000" fill-rule="nonzero" fill-opacity="1" /><path clip-path="url(#clip900)" d="M1591.65 80.3458 L1591.65 83.8874 L1587.58 83.8874 Q1585.29 83.8874 1584.39 84.8133 Q1583.51 85.7393 1583.51 88.1467 L1583.51 90.4383 L1590.52 90.4383 L1590.52 93.7485 L1583.51 93.7485 L1583.51 116.364 L1579.22 116.364 L1579.22 93.7485 L1575.15 93.7485 L1575.15 90.4383 L1579.22 90.4383 L1579.22 88.6328 Q1579.22 84.3041 1581.24 82.3365 Q1583.25 80.3458 1587.63 80.3458 L1591.65 80.3458 Z" fill="#000000" fill-rule="nonzero" fill-opacity="1" /><path clip-path="url(#clip900)" d="M1608.34 80.3458 L1608.34 83.8874 L1604.27 83.8874 Q1601.98 83.8874 1601.08 84.8133 Q1600.2 85.7393 1600.2 88.1467 L1600.2 90.4383 L1607.21 90.4383 L1607.21 93.7485 L1600.2 93.7485 L1600.2 116.364 L1595.91 116.364 L1595.91 93.7485 L1591.84 93.7485 L1591.84 90.4383 L1595.91 90.4383 L1595.91 88.6328 Q1595.91 84.3041 1597.93 82.3365 Q1599.94 80.3458 1604.32 80.3458 L1608.34 80.3458 Z" fill="#000000" fill-rule="nonzero" fill-opacity="1" /><path clip-path="url(#clip900)" d="M1634.08 102.336 L1634.08 104.42 L1614.5 104.42 Q1614.78 108.818 1617.14 111.133 Q1619.52 113.424 1623.76 113.424 Q1626.21 113.424 1628.51 112.822 Q1630.82 112.221 1633.09 111.017 L1633.09 115.045 Q1630.8 116.017 1628.39 116.526 Q1625.98 117.035 1623.51 117.035 Q1617.3 117.035 1613.67 113.424 Q1610.06 109.813 1610.06 103.656 Q1610.06 97.2901 1613.48 93.5633 Q1616.93 89.8133 1622.77 89.8133 Q1628 89.8133 1631.03 93.1929 Q1634.08 96.5494 1634.08 102.336 M1629.83 101.086 Q1629.78 97.591 1627.86 95.5077 Q1625.96 93.4244 1622.81 93.4244 Q1619.25 93.4244 1617.09 95.4383 Q1614.96 97.4522 1614.64 101.11 L1629.83 101.086 Z" fill="#000000" fill-rule="nonzero" fill-opacity="1" /><path clip-path="url(#clip900)" d="M1659.73 91.4337 L1659.73 95.4151 Q1657.93 94.4198 1656.1 93.9337 Q1654.29 93.4244 1652.44 93.4244 Q1648.3 93.4244 1646.01 96.0633 Q1643.71 98.679 1643.71 103.424 Q1643.71 108.17 1646.01 110.809 Q1648.3 113.424 1652.44 113.424 Q1654.29 113.424 1656.1 112.938 Q1657.93 112.429 1659.73 111.434 L1659.73 115.369 Q1657.95 116.202 1656.03 116.619 Q1654.13 117.035 1651.98 117.035 Q1646.12 117.035 1642.67 113.355 Q1639.22 109.674 1639.22 103.424 Q1639.22 97.0818 1642.7 93.4476 Q1646.19 89.8133 1652.26 89.8133 Q1654.22 89.8133 1656.1 90.23 Q1657.97 90.6235 1659.73 91.4337 Z" fill="#000000" fill-rule="nonzero" fill-opacity="1" /><path clip-path="url(#clip900)" d="M1671.35 83.0772 L1671.35 90.4383 L1680.13 90.4383 L1680.13 93.7485 L1671.35 93.7485 L1671.35 107.822 Q1671.35 110.994 1672.21 111.897 Q1673.09 112.799 1675.75 112.799 L1680.13 112.799 L1680.13 116.364 L1675.75 116.364 Q1670.82 116.364 1668.95 114.535 Q1667.07 112.684 1667.07 107.822 L1667.07 93.7485 L1663.95 93.7485 L1663.95 90.4383 L1667.07 90.4383 L1667.07 83.0772 L1671.35 83.0772 Z" fill="#000000" fill-rule="nonzero" fill-opacity="1" /><polyline clip-path="url(#clip900)" style="stroke:#e26f46; stroke-linecap:round; stroke-linejoin:round; stroke-width:8; stroke-opacity:1; fill:none" stroke-dasharray="32, 20" points="805.066,150.924 948.434,150.924 "/>
<path clip-path="url(#clip900)" d="M994.574 134.778 L994.574 139.339 Q991.912 138.065 989.551 137.44 Q987.19 136.815 984.991 136.815 Q981.172 136.815 979.088 138.297 Q977.028 139.778 977.028 142.51 Q977.028 144.801 978.394 145.982 Q979.783 147.139 983.625 147.857 L986.449 148.436 Q991.681 149.431 994.158 151.954 Q996.658 154.454 996.658 158.667 Q996.658 163.69 993.278 166.283 Q989.922 168.875 983.417 168.875 Q980.963 168.875 978.186 168.32 Q975.431 167.764 972.468 166.676 L972.468 161.862 Q975.315 163.459 978.047 164.269 Q980.778 165.079 983.417 165.079 Q987.422 165.079 989.598 163.505 Q991.773 161.931 991.773 159.014 Q991.773 156.468 990.199 155.033 Q988.648 153.598 985.084 152.88 L982.236 152.325 Q977.005 151.283 974.667 149.061 Q972.329 146.838 972.329 142.88 Q972.329 138.297 975.547 135.658 Q978.787 133.019 984.459 133.019 Q986.889 133.019 989.412 133.459 Q991.936 133.899 994.574 134.778 Z" fill="#000000" fill-rule="nonzero" fill-opacity="1" /><path clip-path="url(#clip900)" d="M1015.55 155.172 Q1010.38 155.172 1008.39 156.352 Q1006.4 157.533 1006.4 160.38 Q1006.4 162.649 1007.88 163.991 Q1009.39 165.311 1011.96 165.311 Q1015.5 165.311 1017.63 162.811 Q1019.78 160.287 1019.78 156.121 L1019.78 155.172 L1015.55 155.172 M1024.04 153.413 L1024.04 168.204 L1019.78 168.204 L1019.78 164.269 Q1018.32 166.63 1016.15 167.764 Q1013.97 168.875 1010.82 168.875 Q1006.84 168.875 1004.48 166.653 Q1002.14 164.408 1002.14 160.658 Q1002.14 156.283 1005.06 154.061 Q1008 151.838 1013.81 151.838 L1019.78 151.838 L1019.78 151.422 Q1019.78 148.482 1017.84 146.885 Q1015.92 145.264 1012.42 145.264 Q1010.2 145.264 1008.09 145.797 Q1005.99 146.329 1004.04 147.394 L1004.04 143.459 Q1006.38 142.556 1008.58 142.116 Q1010.78 141.653 1012.86 141.653 Q1018.49 141.653 1021.26 144.57 Q1024.04 147.487 1024.04 153.413 Z" fill="#000000" fill-rule="nonzero" fill-opacity="1" /><path clip-path="url(#clip900)" d="M1053 147.255 Q1054.6 144.385 1056.82 143.019 Q1059.04 141.653 1062.05 141.653 Q1066.1 141.653 1068.3 144.501 Q1070.5 147.325 1070.5 152.556 L1070.5 168.204 L1066.22 168.204 L1066.22 152.695 Q1066.22 148.968 1064.9 147.163 Q1063.58 145.357 1060.87 145.357 Q1057.56 145.357 1055.64 147.556 Q1053.72 149.755 1053.72 153.551 L1053.72 168.204 L1049.44 168.204 L1049.44 152.695 Q1049.44 148.945 1048.12 147.163 Q1046.8 145.357 1044.04 145.357 Q1040.78 145.357 1038.86 147.579 Q1036.94 149.778 1036.94 153.551 L1036.94 168.204 L1032.65 168.204 L1032.65 142.278 L1036.94 142.278 L1036.94 146.306 Q1038.39 143.922 1040.43 142.788 Q1042.47 141.653 1045.27 141.653 Q1048.09 141.653 1050.06 143.088 Q1052.05 144.524 1053 147.255 Z" fill="#000000" fill-rule="nonzero" fill-opacity="1" /><path clip-path="url(#clip900)" d="M1083.12 164.315 L1083.12 178.065 L1078.83 178.065 L1078.83 142.278 L1083.12 142.278 L1083.12 146.213 Q1084.46 143.899 1086.5 142.788 Q1088.56 141.653 1091.4 141.653 Q1096.12 141.653 1099.06 145.403 Q1102.03 149.153 1102.03 155.264 Q1102.03 161.375 1099.06 165.125 Q1096.12 168.875 1091.4 168.875 Q1088.56 168.875 1086.5 167.764 Q1084.46 166.63 1083.12 164.315 M1097.61 155.264 Q1097.61 150.565 1095.66 147.903 Q1093.74 145.218 1090.36 145.218 Q1086.98 145.218 1085.04 147.903 Q1083.12 150.565 1083.12 155.264 Q1083.12 159.963 1085.04 162.649 Q1086.98 165.311 1090.36 165.311 Q1093.74 165.311 1095.66 162.649 Q1097.61 159.963 1097.61 155.264 Z" fill="#000000" fill-rule="nonzero" fill-opacity="1" /><path clip-path="url(#clip900)" d="M1109.09 132.186 L1113.35 132.186 L1113.35 168.204 L1109.09 168.204 L1109.09 132.186 Z" fill="#000000" fill-rule="nonzero" fill-opacity="1" /><path clip-path="url(#clip900)" d="M1144.43 154.176 L1144.43 156.26 L1124.85 156.26 Q1125.13 160.658 1127.49 162.973 Q1129.87 165.264 1134.11 165.264 Q1136.56 165.264 1138.86 164.662 Q1141.17 164.061 1143.44 162.857 L1143.44 166.885 Q1141.15 167.857 1138.74 168.366 Q1136.33 168.875 1133.86 168.875 Q1127.65 168.875 1124.02 165.264 Q1120.41 161.653 1120.41 155.496 Q1120.41 149.13 1123.83 145.403 Q1127.28 141.653 1133.12 141.653 Q1138.35 141.653 1141.38 145.033 Q1144.43 148.389 1144.43 154.176 M1140.18 152.926 Q1140.13 149.431 1138.21 147.348 Q1136.31 145.264 1133.16 145.264 Q1129.6 145.264 1127.44 147.278 Q1125.31 149.292 1124.99 152.95 L1140.18 152.926 Z" fill="#000000" fill-rule="nonzero" fill-opacity="1" /><path clip-path="url(#clip900)" d="M1178.23 138.251 L1171.89 155.45 L1184.6 155.45 L1178.23 138.251 M1175.59 133.644 L1180.89 133.644 L1194.06 168.204 L1189.2 168.204 L1186.05 159.338 L1170.48 159.338 L1167.33 168.204 L1162.4 168.204 L1175.59 133.644 Z" fill="#000000" fill-rule="nonzero" fill-opacity="1" /><path clip-path="url(#clip900)" d="M1193.09 142.278 L1197.61 142.278 L1205.71 164.037 L1213.81 142.278 L1218.32 142.278 L1208.6 168.204 L1202.81 168.204 L1193.09 142.278 Z" fill="#000000" fill-rule="nonzero" fill-opacity="1" /><path clip-path="url(#clip900)" d="M1246.38 154.176 L1246.38 156.26 L1226.8 156.26 Q1227.07 160.658 1229.43 162.973 Q1231.82 165.264 1236.05 165.264 Q1238.51 165.264 1240.8 164.662 Q1243.11 164.061 1245.38 162.857 L1245.38 166.885 Q1243.09 167.857 1240.68 168.366 Q1238.28 168.875 1235.8 168.875 Q1229.6 168.875 1225.96 165.264 Q1222.35 161.653 1222.35 155.496 Q1222.35 149.13 1225.78 145.403 Q1229.23 141.653 1235.06 141.653 Q1240.29 141.653 1243.32 145.033 Q1246.38 148.389 1246.38 154.176 M1242.12 152.926 Q1242.07 149.431 1240.15 147.348 Q1238.25 145.264 1235.11 145.264 Q1231.54 145.264 1229.39 147.278 Q1227.26 149.292 1226.93 152.95 L1242.12 152.926 Z" fill="#000000" fill-rule="nonzero" fill-opacity="1" /><path clip-path="url(#clip900)" d="M1268.39 146.26 Q1267.67 145.843 1266.82 145.658 Q1265.98 145.45 1264.97 145.45 Q1261.36 145.45 1259.41 147.811 Q1257.49 150.149 1257.49 154.547 L1257.49 168.204 L1253.21 168.204 L1253.21 142.278 L1257.49 142.278 L1257.49 146.306 Q1258.83 143.945 1260.98 142.811 Q1263.14 141.653 1266.22 141.653 Q1266.66 141.653 1267.19 141.723 Q1267.72 141.769 1268.37 141.885 L1268.39 146.26 Z" fill="#000000" fill-rule="nonzero" fill-opacity="1" /><path clip-path="url(#clip900)" d="M1284.64 155.172 Q1279.48 155.172 1277.49 156.352 Q1275.5 157.533 1275.5 160.38 Q1275.5 162.649 1276.98 163.991 Q1278.48 165.311 1281.05 165.311 Q1284.6 165.311 1286.73 162.811 Q1288.88 160.287 1288.88 156.121 L1288.88 155.172 L1284.64 155.172 M1293.14 153.413 L1293.14 168.204 L1288.88 168.204 L1288.88 164.269 Q1287.42 166.63 1285.24 167.764 Q1283.07 168.875 1279.92 168.875 Q1275.94 168.875 1273.58 166.653 Q1271.24 164.408 1271.24 160.658 Q1271.24 156.283 1274.16 154.061 Q1277.1 151.838 1282.91 151.838 L1288.88 151.838 L1288.88 151.422 Q1288.88 148.482 1286.93 146.885 Q1285.01 145.264 1281.52 145.264 Q1279.3 145.264 1277.19 145.797 Q1275.08 146.329 1273.14 147.394 L1273.14 143.459 Q1275.48 142.556 1277.67 142.116 Q1279.87 141.653 1281.96 141.653 Q1287.58 141.653 1290.36 144.57 Q1293.14 147.487 1293.14 153.413 Z" fill="#000000" fill-rule="nonzero" fill-opacity="1" /><path clip-path="url(#clip900)" d="M1318.97 154.94 Q1318.97 150.311 1317.05 147.764 Q1315.15 145.218 1311.7 145.218 Q1308.28 145.218 1306.36 147.764 Q1304.46 150.311 1304.46 154.94 Q1304.46 159.547 1306.36 162.093 Q1308.28 164.639 1311.7 164.639 Q1315.15 164.639 1317.05 162.093 Q1318.97 159.547 1318.97 154.94 M1323.23 164.987 Q1323.23 171.607 1320.29 174.824 Q1317.35 178.065 1311.29 178.065 Q1309.04 178.065 1307.05 177.718 Q1305.06 177.394 1303.18 176.699 L1303.18 172.556 Q1305.06 173.574 1306.89 174.061 Q1308.72 174.547 1310.61 174.547 Q1314.8 174.547 1316.89 172.348 Q1318.97 170.172 1318.97 165.75 L1318.97 163.644 Q1317.65 165.936 1315.59 167.07 Q1313.53 168.204 1310.66 168.204 Q1305.89 168.204 1302.98 164.57 Q1300.06 160.936 1300.06 154.94 Q1300.06 148.922 1302.98 145.288 Q1305.89 141.653 1310.66 141.653 Q1313.53 141.653 1315.59 142.788 Q1317.65 143.922 1318.97 146.213 L1318.97 142.278 L1323.23 142.278 L1323.23 164.987 Z" fill="#000000" fill-rule="nonzero" fill-opacity="1" /><path clip-path="url(#clip900)" d="M1354.18 154.176 L1354.18 156.26 L1334.6 156.26 Q1334.87 160.658 1337.23 162.973 Q1339.62 165.264 1343.85 165.264 Q1346.31 165.264 1348.6 164.662 Q1350.92 164.061 1353.18 162.857 L1353.18 166.885 Q1350.89 167.857 1348.48 168.366 Q1346.08 168.875 1343.6 168.875 Q1337.4 168.875 1333.76 165.264 Q1330.15 161.653 1330.15 155.496 Q1330.15 149.13 1333.58 145.403 Q1337.03 141.653 1342.86 141.653 Q1348.09 141.653 1351.12 145.033 Q1354.18 148.389 1354.18 154.176 M1349.92 152.926 Q1349.87 149.431 1347.95 147.348 Q1346.05 145.264 1342.91 145.264 Q1339.34 145.264 1337.19 147.278 Q1335.06 149.292 1334.73 152.95 L1349.92 152.926 Z" fill="#000000" fill-rule="nonzero" fill-opacity="1" /><path clip-path="url(#clip900)" d="M1381.1 137.487 L1381.1 164.362 L1386.75 164.362 Q1393.9 164.362 1397.21 161.121 Q1400.54 157.88 1400.54 150.889 Q1400.54 143.945 1397.21 140.727 Q1393.9 137.487 1386.75 137.487 L1381.1 137.487 M1376.42 133.644 L1386.03 133.644 Q1396.08 133.644 1400.78 137.834 Q1405.47 142.001 1405.47 150.889 Q1405.47 159.825 1400.75 164.014 Q1396.03 168.204 1386.03 168.204 L1376.42 168.204 L1376.42 133.644 Z" fill="#000000" fill-rule="nonzero" fill-opacity="1" /><path clip-path="url(#clip900)" d="M1412.74 142.278 L1417 142.278 L1417 168.204 L1412.74 168.204 L1412.74 142.278 M1412.74 132.186 L1417 132.186 L1417 137.579 L1412.74 137.579 L1412.74 132.186 Z" fill="#000000" fill-rule="nonzero" fill-opacity="1" /><path clip-path="url(#clip900)" d="M1440.94 146.26 Q1440.22 145.843 1439.36 145.658 Q1438.53 145.45 1437.51 145.45 Q1433.9 145.45 1431.96 147.811 Q1430.04 150.149 1430.04 154.547 L1430.04 168.204 L1425.75 168.204 L1425.75 142.278 L1430.04 142.278 L1430.04 146.306 Q1431.38 143.945 1433.53 142.811 Q1435.68 141.653 1438.76 141.653 Q1439.2 141.653 1439.73 141.723 Q1440.27 141.769 1440.91 141.885 L1440.94 146.26 Z" fill="#000000" fill-rule="nonzero" fill-opacity="1" /><path clip-path="url(#clip900)" d="M1466.54 154.176 L1466.54 156.26 L1446.96 156.26 Q1447.23 160.658 1449.6 162.973 Q1451.98 165.264 1456.22 165.264 Q1458.67 165.264 1460.96 164.662 Q1463.28 164.061 1465.54 162.857 L1465.54 166.885 Q1463.25 167.857 1460.85 168.366 Q1458.44 168.875 1455.96 168.875 Q1449.76 168.875 1446.12 165.264 Q1442.51 161.653 1442.51 155.496 Q1442.51 149.13 1445.94 145.403 Q1449.39 141.653 1455.22 141.653 Q1460.45 141.653 1463.48 145.033 Q1466.54 148.389 1466.54 154.176 M1462.28 152.926 Q1462.23 149.431 1460.31 147.348 Q1458.41 145.264 1455.27 145.264 Q1451.7 145.264 1449.55 147.278 Q1447.42 149.292 1447.1 152.95 L1462.28 152.926 Z" fill="#000000" fill-rule="nonzero" fill-opacity="1" /><path clip-path="url(#clip900)" d="M1492.19 143.274 L1492.19 147.255 Q1490.38 146.26 1488.55 145.774 Q1486.75 145.264 1484.9 145.264 Q1480.75 145.264 1478.46 147.903 Q1476.17 150.519 1476.17 155.264 Q1476.17 160.01 1478.46 162.649 Q1480.75 165.264 1484.9 165.264 Q1486.75 165.264 1488.55 164.778 Q1490.38 164.269 1492.19 163.274 L1492.19 167.209 Q1490.41 168.042 1488.48 168.459 Q1486.59 168.875 1484.43 168.875 Q1478.58 168.875 1475.13 165.195 Q1471.68 161.514 1471.68 155.264 Q1471.68 148.922 1475.15 145.288 Q1478.65 141.653 1484.71 141.653 Q1486.68 141.653 1488.55 142.07 Q1490.43 142.463 1492.19 143.274 Z" fill="#000000" fill-rule="nonzero" fill-opacity="1" /><path clip-path="url(#clip900)" d="M1503.81 134.917 L1503.81 142.278 L1512.58 142.278 L1512.58 145.588 L1503.81 145.588 L1503.81 159.662 Q1503.81 162.834 1504.66 163.737 Q1505.54 164.639 1508.21 164.639 L1512.58 164.639 L1512.58 168.204 L1508.21 168.204 Q1503.28 168.204 1501.4 166.375 Q1499.53 164.524 1499.53 159.662 L1499.53 145.588 L1496.4 145.588 L1496.4 142.278 L1499.53 142.278 L1499.53 134.917 L1503.81 134.917 Z" fill="#000000" fill-rule="nonzero" fill-opacity="1" /><path clip-path="url(#clip900)" d="M1533.44 133.644 L1555.29 133.644 L1555.29 137.579 L1538.11 137.579 L1538.11 147.811 L1554.57 147.811 L1554.57 151.746 L1538.11 151.746 L1538.11 164.269 L1555.71 164.269 L1555.71 168.204 L1533.44 168.204 L1533.44 133.644 Z" fill="#000000" fill-rule="nonzero" fill-opacity="1" /><path clip-path="url(#clip900)" d="M1576.33 132.186 L1576.33 135.727 L1572.26 135.727 Q1569.96 135.727 1569.06 136.653 Q1568.18 137.579 1568.18 139.987 L1568.18 142.278 L1575.2 142.278 L1575.2 145.588 L1568.18 145.588 L1568.18 168.204 L1563.9 168.204 L1563.9 145.588 L1559.83 145.588 L1559.83 142.278 L1563.9 142.278 L1563.9 140.473 Q1563.9 136.144 1565.91 134.176 Q1567.93 132.186 1572.3 132.186 L1576.33 132.186 Z" fill="#000000" fill-rule="nonzero" fill-opacity="1" /><path clip-path="url(#clip900)" d="M1593.02 132.186 L1593.02 135.727 L1588.95 135.727 Q1586.65 135.727 1585.75 136.653 Q1584.87 137.579 1584.87 139.987 L1584.87 142.278 L1591.89 142.278 L1591.89 145.588 L1584.87 145.588 L1584.87 168.204 L1580.59 168.204 L1580.59 145.588 L1576.52 145.588 L1576.52 142.278 L1580.59 142.278 L1580.59 140.473 Q1580.59 136.144 1582.6 134.176 Q1584.62 132.186 1588.99 132.186 L1593.02 132.186 Z" fill="#000000" fill-rule="nonzero" fill-opacity="1" /><path clip-path="url(#clip900)" d="M1618.76 154.176 L1618.76 156.26 L1599.18 156.26 Q1599.46 160.658 1601.82 162.973 Q1604.2 165.264 1608.44 165.264 Q1610.89 165.264 1613.18 164.662 Q1615.5 164.061 1617.77 162.857 L1617.77 166.885 Q1615.47 167.857 1613.07 168.366 Q1610.66 168.875 1608.18 168.875 Q1601.98 168.875 1598.34 165.264 Q1594.73 161.653 1594.73 155.496 Q1594.73 149.13 1598.16 145.403 Q1601.61 141.653 1607.44 141.653 Q1612.67 141.653 1615.71 145.033 Q1618.76 148.389 1618.76 154.176 M1614.5 152.926 Q1614.46 149.431 1612.53 147.348 Q1610.64 145.264 1607.49 145.264 Q1603.92 145.264 1601.77 147.278 Q1599.64 149.292 1599.32 152.95 L1614.5 152.926 Z" fill="#000000" fill-rule="nonzero" fill-opacity="1" /><path clip-path="url(#clip900)" d="M1644.41 143.274 L1644.41 147.255 Q1642.6 146.26 1640.77 145.774 Q1638.97 145.264 1637.12 145.264 Q1632.97 145.264 1630.68 147.903 Q1628.39 150.519 1628.39 155.264 Q1628.39 160.01 1630.68 162.649 Q1632.97 165.264 1637.12 165.264 Q1638.97 165.264 1640.77 164.778 Q1642.6 164.269 1644.41 163.274 L1644.41 167.209 Q1642.63 168.042 1640.71 168.459 Q1638.81 168.875 1636.65 168.875 Q1630.8 168.875 1627.35 165.195 Q1623.9 161.514 1623.9 155.264 Q1623.9 148.922 1627.37 145.288 Q1630.87 141.653 1636.93 141.653 Q1638.9 141.653 1640.77 142.07 Q1642.65 142.463 1644.41 143.274 Z" fill="#000000" fill-rule="nonzero" fill-opacity="1" /><path clip-path="url(#clip900)" d="M1656.03 134.917 L1656.03 142.278 L1664.8 142.278 L1664.8 145.588 L1656.03 145.588 L1656.03 159.662 Q1656.03 162.834 1656.89 163.737 Q1657.77 164.639 1660.43 164.639 L1664.8 164.639 L1664.8 168.204 L1660.43 168.204 Q1655.5 168.204 1653.62 166.375 Q1651.75 164.524 1651.75 159.662 L1651.75 145.588 L1648.62 145.588 L1648.62 142.278 L1651.75 142.278 L1651.75 134.917 L1656.03 134.917 Z" fill="#000000" fill-rule="nonzero" fill-opacity="1" /><polyline clip-path="url(#clip900)" style="stroke:#000000; stroke-linecap:round; stroke-linejoin:round; stroke-width:8; stroke-opacity:1; fill:none" stroke-dasharray="4, 8" points="805.066,202.764 948.434,202.764 "/>
<path clip-path="url(#clip900)" d="M977.005 189.327 L977.005 202.313 L982.885 202.313 Q986.149 202.313 987.931 200.623 Q989.713 198.933 989.713 195.808 Q989.713 192.706 987.931 191.016 Q986.149 189.327 982.885 189.327 L977.005 189.327 M972.329 185.484 L982.885 185.484 Q988.695 185.484 991.658 188.123 Q994.644 190.739 994.644 195.808 Q994.644 200.924 991.658 203.54 Q988.695 206.155 982.885 206.155 L977.005 206.155 L977.005 220.044 L972.329 220.044 L972.329 185.484 Z" fill="#000000" fill-rule="nonzero" fill-opacity="1" /><path clip-path="url(#clip900)" d="M1009.09 197.104 Q1005.66 197.104 1003.67 199.79 Q1001.68 202.452 1001.68 207.104 Q1001.68 211.757 1003.65 214.442 Q1005.64 217.104 1009.09 217.104 Q1012.49 217.104 1014.48 214.419 Q1016.47 211.734 1016.47 207.104 Q1016.47 202.498 1014.48 199.813 Q1012.49 197.104 1009.09 197.104 M1009.09 193.493 Q1014.64 193.493 1017.82 197.104 Q1020.99 200.715 1020.99 207.104 Q1020.99 213.47 1017.82 217.104 Q1014.64 220.715 1009.09 220.715 Q1003.51 220.715 1000.34 217.104 Q997.19 213.47 997.19 207.104 Q997.19 200.715 1000.34 197.104 Q1003.51 193.493 1009.09 193.493 Z" fill="#000000" fill-rule="nonzero" fill-opacity="1" /><path clip-path="url(#clip900)" d="M1032.17 216.155 L1032.17 229.905 L1027.88 229.905 L1027.88 194.118 L1032.17 194.118 L1032.17 198.053 Q1033.51 195.739 1035.55 194.628 Q1037.61 193.493 1040.45 193.493 Q1045.18 193.493 1048.12 197.243 Q1051.08 200.993 1051.08 207.104 Q1051.08 213.215 1048.12 216.965 Q1045.18 220.715 1040.45 220.715 Q1037.61 220.715 1035.55 219.604 Q1033.51 218.47 1032.17 216.155 M1046.66 207.104 Q1046.66 202.405 1044.71 199.743 Q1042.79 197.058 1039.41 197.058 Q1036.03 197.058 1034.09 199.743 Q1032.17 202.405 1032.17 207.104 Q1032.17 211.803 1034.09 214.489 Q1036.03 217.151 1039.41 217.151 Q1042.79 217.151 1044.71 214.489 Q1046.66 211.803 1046.66 207.104 Z" fill="#000000" fill-rule="nonzero" fill-opacity="1" /><path clip-path="url(#clip900)" d="M1057.7 209.813 L1057.7 194.118 L1061.96 194.118 L1061.96 209.651 Q1061.96 213.331 1063.39 215.183 Q1064.83 217.012 1067.7 217.012 Q1071.15 217.012 1073.14 214.813 Q1075.15 212.614 1075.15 208.817 L1075.15 194.118 L1079.41 194.118 L1079.41 220.044 L1075.15 220.044 L1075.15 216.063 Q1073.6 218.424 1071.54 219.581 Q1069.5 220.715 1066.8 220.715 Q1062.33 220.715 1060.01 217.938 Q1057.7 215.16 1057.7 209.813 M1068.42 193.493 L1068.42 193.493 Z" fill="#000000" fill-rule="nonzero" fill-opacity="1" /><path clip-path="url(#clip900)" d="M1088.18 184.026 L1092.44 184.026 L1092.44 220.044 L1088.18 220.044 L1088.18 184.026 Z" fill="#000000" fill-rule="nonzero" fill-opacity="1" /><path clip-path="url(#clip900)" d="M1113.14 207.012 Q1107.98 207.012 1105.99 208.192 Q1104 209.373 1104 212.22 Q1104 214.489 1105.48 215.831 Q1106.98 217.151 1109.55 217.151 Q1113.09 217.151 1115.22 214.651 Q1117.37 212.127 1117.37 207.961 L1117.37 207.012 L1113.14 207.012 M1121.63 205.253 L1121.63 220.044 L1117.37 220.044 L1117.37 216.109 Q1115.92 218.47 1113.74 219.604 Q1111.56 220.715 1108.42 220.715 Q1104.43 220.715 1102.07 218.493 Q1099.74 216.248 1099.74 212.498 Q1099.74 208.123 1102.65 205.901 Q1105.59 203.678 1111.4 203.678 L1117.37 203.678 L1117.37 203.262 Q1117.37 200.322 1115.43 198.725 Q1113.51 197.104 1110.01 197.104 Q1107.79 197.104 1105.68 197.637 Q1103.58 198.169 1101.63 199.234 L1101.63 195.299 Q1103.97 194.396 1106.17 193.956 Q1108.37 193.493 1110.45 193.493 Q1116.08 193.493 1118.86 196.41 Q1121.63 199.327 1121.63 205.253 Z" fill="#000000" fill-rule="nonzero" fill-opacity="1" /><path clip-path="url(#clip900)" d="M1134.62 186.757 L1134.62 194.118 L1143.39 194.118 L1143.39 197.428 L1134.62 197.428 L1134.62 211.502 Q1134.62 214.674 1135.48 215.577 Q1136.36 216.479 1139.02 216.479 L1143.39 216.479 L1143.39 220.044 L1139.02 220.044 Q1134.09 220.044 1132.21 218.215 Q1130.34 216.364 1130.34 211.502 L1130.34 197.428 L1127.21 197.428 L1127.21 194.118 L1130.34 194.118 L1130.34 186.757 L1134.62 186.757 Z" fill="#000000" fill-rule="nonzero" fill-opacity="1" /><path clip-path="url(#clip900)" d="M1148.99 194.118 L1153.25 194.118 L1153.25 220.044 L1148.99 220.044 L1148.99 194.118 M1148.99 184.026 L1153.25 184.026 L1153.25 189.419 L1148.99 189.419 L1148.99 184.026 Z" fill="#000000" fill-rule="nonzero" fill-opacity="1" /><path clip-path="url(#clip900)" d="M1172.21 197.104 Q1168.79 197.104 1166.8 199.79 Q1164.8 202.452 1164.8 207.104 Q1164.8 211.757 1166.77 214.442 Q1168.76 217.104 1172.21 217.104 Q1175.62 217.104 1177.61 214.419 Q1179.6 211.734 1179.6 207.104 Q1179.6 202.498 1177.61 199.813 Q1175.62 197.104 1172.21 197.104 M1172.21 193.493 Q1177.77 193.493 1180.94 197.104 Q1184.11 200.715 1184.11 207.104 Q1184.11 213.47 1180.94 217.104 Q1177.77 220.715 1172.21 220.715 Q1166.63 220.715 1163.46 217.104 Q1160.31 213.47 1160.31 207.104 Q1160.31 200.715 1163.46 197.104 Q1166.63 193.493 1172.21 193.493 Z" fill="#000000" fill-rule="nonzero" fill-opacity="1" /><path clip-path="url(#clip900)" d="M1212.72 204.396 L1212.72 220.044 L1208.46 220.044 L1208.46 204.535 Q1208.46 200.854 1207.03 199.026 Q1205.59 197.197 1202.72 197.197 Q1199.27 197.197 1197.28 199.396 Q1195.29 201.595 1195.29 205.391 L1195.29 220.044 L1191.01 220.044 L1191.01 194.118 L1195.29 194.118 L1195.29 198.146 Q1196.82 195.808 1198.88 194.651 Q1200.96 193.493 1203.67 193.493 Q1208.14 193.493 1210.43 196.271 Q1212.72 199.026 1212.72 204.396 Z" fill="#000000" fill-rule="nonzero" fill-opacity="1" /><path clip-path="url(#clip900)" d="M1231.68 185.484 L1260.92 185.484 L1260.92 189.419 L1248.65 189.419 L1248.65 220.044 L1243.95 220.044 L1243.95 189.419 L1231.68 189.419 L1231.68 185.484 Z" fill="#000000" fill-rule="nonzero" fill-opacity="1" /><path clip-path="url(#clip900)" d="M1267.23 197.104 Q1263.81 197.104 1261.82 199.79 Q1259.83 202.452 1259.83 207.104 Q1259.83 211.757 1261.8 214.442 Q1263.79 217.104 1267.23 217.104 Q1270.64 217.104 1272.63 214.419 Q1274.62 211.734 1274.62 207.104 Q1274.62 202.498 1272.63 199.813 Q1270.64 197.104 1267.23 197.104 M1267.23 193.493 Q1272.79 193.493 1275.96 197.104 Q1279.13 200.715 1279.13 207.104 Q1279.13 213.47 1275.96 217.104 Q1272.79 220.715 1267.23 220.715 Q1261.66 220.715 1258.49 217.104 Q1255.34 213.47 1255.34 207.104 Q1255.34 200.715 1258.49 197.104 Q1261.66 193.493 1267.23 193.493 Z" fill="#000000" fill-rule="nonzero" fill-opacity="1" /><path clip-path="url(#clip900)" d="M1290.41 186.757 L1290.41 194.118 L1299.18 194.118 L1299.18 197.428 L1290.41 197.428 L1290.41 211.502 Q1290.41 214.674 1291.26 215.577 Q1292.14 216.479 1294.8 216.479 L1299.18 216.479 L1299.18 220.044 L1294.8 220.044 Q1289.87 220.044 1288 218.215 Q1286.12 216.364 1286.12 211.502 L1286.12 197.428 L1283 197.428 L1283 194.118 L1286.12 194.118 L1286.12 186.757 L1290.41 186.757 Z" fill="#000000" fill-rule="nonzero" fill-opacity="1" /><path clip-path="url(#clip900)" d="M1316.56 207.012 Q1311.4 207.012 1309.41 208.192 Q1307.42 209.373 1307.42 212.22 Q1307.42 214.489 1308.9 215.831 Q1310.41 217.151 1312.98 217.151 Q1316.52 217.151 1318.65 214.651 Q1320.8 212.127 1320.8 207.961 L1320.8 207.012 L1316.56 207.012 M1325.06 205.253 L1325.06 220.044 L1320.8 220.044 L1320.8 216.109 Q1319.34 218.47 1317.17 219.604 Q1314.99 220.715 1311.84 220.715 Q1307.86 220.715 1305.5 218.493 Q1303.16 216.248 1303.16 212.498 Q1303.16 208.123 1306.08 205.901 Q1309.02 203.678 1314.83 203.678 L1320.8 203.678 L1320.8 203.262 Q1320.8 200.322 1318.86 198.725 Q1316.93 197.104 1313.44 197.104 Q1311.22 197.104 1309.11 197.637 Q1307 198.169 1305.06 199.234 L1305.06 195.299 Q1307.4 194.396 1309.6 193.956 Q1311.79 193.493 1313.88 193.493 Q1319.5 193.493 1322.28 196.41 Q1325.06 199.327 1325.06 205.253 Z" fill="#000000" fill-rule="nonzero" fill-opacity="1" /><path clip-path="url(#clip900)" d="M1333.83 184.026 L1338.09 184.026 L1338.09 220.044 L1333.83 220.044 L1333.83 184.026 Z" fill="#000000" fill-rule="nonzero" fill-opacity="1" /><path clip-path="url(#clip900)" d="M1357.47 185.484 L1386.7 185.484 L1386.7 189.419 L1374.43 189.419 L1374.43 220.044 L1369.73 220.044 L1369.73 189.419 L1357.47 189.419 L1357.47 185.484 Z" fill="#000000" fill-rule="nonzero" fill-opacity="1" /><path clip-path="url(#clip900)" d="M1399.09 198.1 Q1398.37 197.683 1397.51 197.498 Q1396.68 197.29 1395.66 197.29 Q1392.05 197.29 1390.1 199.651 Q1388.18 201.989 1388.18 206.387 L1388.18 220.044 L1383.9 220.044 L1383.9 194.118 L1388.18 194.118 L1388.18 198.146 Q1389.53 195.785 1391.68 194.651 Q1393.83 193.493 1396.91 193.493 Q1397.35 193.493 1397.88 193.563 Q1398.41 193.609 1399.06 193.725 L1399.09 198.1 Z" fill="#000000" fill-rule="nonzero" fill-opacity="1" /><path clip-path="url(#clip900)" d="M1424.69 206.016 L1424.69 208.1 L1405.1 208.1 Q1405.38 212.498 1407.74 214.813 Q1410.13 217.104 1414.36 217.104 Q1416.82 217.104 1419.11 216.502 Q1421.42 215.901 1423.69 214.697 L1423.69 218.725 Q1421.4 219.697 1418.99 220.206 Q1416.59 220.715 1414.11 220.715 Q1407.91 220.715 1404.27 217.104 Q1400.66 213.493 1400.66 207.336 Q1400.66 200.97 1404.09 197.243 Q1407.54 193.493 1413.37 193.493 Q1418.6 193.493 1421.63 196.873 Q1424.69 200.229 1424.69 206.016 M1420.43 204.766 Q1420.38 201.271 1418.46 199.188 Q1416.56 197.104 1413.41 197.104 Q1409.85 197.104 1407.7 199.118 Q1405.57 201.132 1405.24 204.79 L1420.43 204.766 Z" fill="#000000" fill-rule="nonzero" fill-opacity="1" /><path clip-path="url(#clip900)" d="M1443.46 207.012 Q1438.3 207.012 1436.31 208.192 Q1434.32 209.373 1434.32 212.22 Q1434.32 214.489 1435.8 215.831 Q1437.3 217.151 1439.87 217.151 Q1443.41 217.151 1445.54 214.651 Q1447.7 212.127 1447.7 207.961 L1447.7 207.012 L1443.46 207.012 M1451.96 205.253 L1451.96 220.044 L1447.7 220.044 L1447.7 216.109 Q1446.24 218.47 1444.06 219.604 Q1441.89 220.715 1438.74 220.715 Q1434.76 220.715 1432.4 218.493 Q1430.06 216.248 1430.06 212.498 Q1430.06 208.123 1432.97 205.901 Q1435.91 203.678 1441.72 203.678 L1447.7 203.678 L1447.7 203.262 Q1447.7 200.322 1445.75 198.725 Q1443.83 197.104 1440.34 197.104 Q1438.11 197.104 1436.01 197.637 Q1433.9 198.169 1431.96 199.234 L1431.96 195.299 Q1434.29 194.396 1436.49 193.956 Q1438.69 193.493 1440.78 193.493 Q1446.4 193.493 1449.18 196.41 Q1451.96 199.327 1451.96 205.253 Z" fill="#000000" fill-rule="nonzero" fill-opacity="1" /><path clip-path="url(#clip900)" d="M1464.94 186.757 L1464.94 194.118 L1473.72 194.118 L1473.72 197.428 L1464.94 197.428 L1464.94 211.502 Q1464.94 214.674 1465.8 215.577 Q1466.68 216.479 1469.34 216.479 L1473.72 216.479 L1473.72 220.044 L1469.34 220.044 Q1464.41 220.044 1462.53 218.215 Q1460.66 216.364 1460.66 211.502 L1460.66 197.428 L1457.53 197.428 L1457.53 194.118 L1460.66 194.118 L1460.66 186.757 L1464.94 186.757 Z" fill="#000000" fill-rule="nonzero" fill-opacity="1" /><path clip-path="url(#clip900)" d="M1499.5 199.095 Q1501.1 196.225 1503.32 194.859 Q1505.54 193.493 1508.55 193.493 Q1512.6 193.493 1514.8 196.341 Q1517 199.165 1517 204.396 L1517 220.044 L1512.72 220.044 L1512.72 204.535 Q1512.72 200.808 1511.4 199.003 Q1510.08 197.197 1507.37 197.197 Q1504.06 197.197 1502.14 199.396 Q1500.22 201.595 1500.22 205.391 L1500.22 220.044 L1495.94 220.044 L1495.94 204.535 Q1495.94 200.785 1494.62 199.003 Q1493.3 197.197 1490.54 197.197 Q1487.28 197.197 1485.36 199.419 Q1483.44 201.618 1483.44 205.391 L1483.44 220.044 L1479.16 220.044 L1479.16 194.118 L1483.44 194.118 L1483.44 198.146 Q1484.9 195.762 1486.93 194.628 Q1488.97 193.493 1491.77 193.493 Q1494.59 193.493 1496.56 194.928 Q1498.55 196.364 1499.5 199.095 Z" fill="#000000" fill-rule="nonzero" fill-opacity="1" /><path clip-path="url(#clip900)" d="M1547.67 206.016 L1547.67 208.1 L1528.09 208.1 Q1528.37 212.498 1530.73 214.813 Q1533.11 217.104 1537.35 217.104 Q1539.8 217.104 1542.09 216.502 Q1544.41 215.901 1546.68 214.697 L1546.68 218.725 Q1544.39 219.697 1541.98 220.206 Q1539.57 220.715 1537.09 220.715 Q1530.89 220.715 1527.26 217.104 Q1523.65 213.493 1523.65 207.336 Q1523.65 200.97 1527.07 197.243 Q1530.52 193.493 1536.35 193.493 Q1541.59 193.493 1544.62 196.873 Q1547.67 200.229 1547.67 206.016 M1543.41 204.766 Q1543.37 201.271 1541.45 199.188 Q1539.55 197.104 1536.4 197.104 Q1532.84 197.104 1530.68 199.118 Q1528.55 201.132 1528.23 204.79 L1543.41 204.766 Z" fill="#000000" fill-rule="nonzero" fill-opacity="1" /><path clip-path="url(#clip900)" d="M1576.21 204.396 L1576.21 220.044 L1571.96 220.044 L1571.96 204.535 Q1571.96 200.854 1570.52 199.026 Q1569.09 197.197 1566.21 197.197 Q1562.77 197.197 1560.78 199.396 Q1558.78 201.595 1558.78 205.391 L1558.78 220.044 L1554.5 220.044 L1554.5 194.118 L1558.78 194.118 L1558.78 198.146 Q1560.31 195.808 1562.37 194.651 Q1564.46 193.493 1567.16 193.493 Q1571.63 193.493 1573.92 196.271 Q1576.21 199.026 1576.21 204.396 Z" fill="#000000" fill-rule="nonzero" fill-opacity="1" /><path clip-path="url(#clip900)" d="M1588.92 186.757 L1588.92 194.118 L1597.7 194.118 L1597.7 197.428 L1588.92 197.428 L1588.92 211.502 Q1588.92 214.674 1589.78 215.577 Q1590.66 216.479 1593.32 216.479 L1597.7 216.479 L1597.7 220.044 L1593.32 220.044 Q1588.39 220.044 1586.52 218.215 Q1584.64 216.364 1584.64 211.502 L1584.64 197.428 L1581.52 197.428 L1581.52 194.118 L1584.64 194.118 L1584.64 186.757 L1588.92 186.757 Z" fill="#000000" fill-rule="nonzero" fill-opacity="1" /><path clip-path="url(#clip900)" d="M1618.55 185.484 L1640.4 185.484 L1640.4 189.419 L1623.23 189.419 L1623.23 199.651 L1639.69 199.651 L1639.69 203.586 L1623.23 203.586 L1623.23 216.109 L1640.82 216.109 L1640.82 220.044 L1618.55 220.044 L1618.55 185.484 Z" fill="#000000" fill-rule="nonzero" fill-opacity="1" /><path clip-path="url(#clip900)" d="M1661.45 184.026 L1661.45 187.567 L1657.37 187.567 Q1655.08 187.567 1654.18 188.493 Q1653.3 189.419 1653.3 191.827 L1653.3 194.118 L1660.31 194.118 L1660.31 197.428 L1653.3 197.428 L1653.3 220.044 L1649.02 220.044 L1649.02 197.428 L1644.94 197.428 L1644.94 194.118 L1649.02 194.118 L1649.02 192.313 Q1649.02 187.984 1651.03 186.016 Q1653.04 184.026 1657.42 184.026 L1661.45 184.026 Z" fill="#000000" fill-rule="nonzero" fill-opacity="1" /><path clip-path="url(#clip900)" d="M1678.14 184.026 L1678.14 187.567 L1674.06 187.567 Q1671.77 187.567 1670.87 188.493 Q1669.99 189.419 1669.99 191.827 L1669.99 194.118 L1677 194.118 L1677 197.428 L1669.99 197.428 L1669.99 220.044 L1665.71 220.044 L1665.71 197.428 L1661.63 197.428 L1661.63 194.118 L1665.71 194.118 L1665.71 192.313 Q1665.71 187.984 1667.72 186.016 Q1669.73 184.026 1674.11 184.026 L1678.14 184.026 Z" fill="#000000" fill-rule="nonzero" fill-opacity="1" /><path clip-path="url(#clip900)" d="M1703.88 206.016 L1703.88 208.1 L1684.29 208.1 Q1684.57 212.498 1686.93 214.813 Q1689.32 217.104 1693.55 217.104 Q1696.01 217.104 1698.3 216.502 Q1700.61 215.901 1702.88 214.697 L1702.88 218.725 Q1700.59 219.697 1698.18 220.206 Q1695.77 220.715 1693.3 220.715 Q1687.09 220.715 1683.46 217.104 Q1679.85 213.493 1679.85 207.336 Q1679.85 200.97 1683.27 197.243 Q1686.72 193.493 1692.56 193.493 Q1697.79 193.493 1700.82 196.873 Q1703.88 200.229 1703.88 206.016 M1699.62 204.766 Q1699.57 201.271 1697.65 199.188 Q1695.75 197.104 1692.6 197.104 Q1689.04 197.104 1686.89 199.118 Q1684.76 201.132 1684.43 204.79 L1699.62 204.766 Z" fill="#000000" fill-rule="nonzero" fill-opacity="1" /><path clip-path="url(#clip900)" d="M1729.52 195.114 L1729.52 199.095 Q1727.72 198.1 1725.89 197.614 Q1724.08 197.104 1722.23 197.104 Q1718.09 197.104 1715.8 199.743 Q1713.51 202.359 1713.51 207.104 Q1713.51 211.85 1715.8 214.489 Q1718.09 217.104 1722.23 217.104 Q1724.08 217.104 1725.89 216.618 Q1727.72 216.109 1729.52 215.114 L1729.52 219.049 Q1727.74 219.882 1725.82 220.299 Q1723.92 220.715 1721.77 220.715 Q1715.91 220.715 1712.46 217.035 Q1709.02 213.354 1709.02 207.104 Q1709.02 200.762 1712.49 197.128 Q1715.98 193.493 1722.05 193.493 Q1724.01 193.493 1725.89 193.91 Q1727.76 194.303 1729.52 195.114 Z" fill="#000000" fill-rule="nonzero" fill-opacity="1" /><path clip-path="url(#clip900)" d="M1741.14 186.757 L1741.14 194.118 L1749.92 194.118 L1749.92 197.428 L1741.14 197.428 L1741.14 211.502 Q1741.14 214.674 1742 215.577 Q1742.88 216.479 1745.54 216.479 L1749.92 216.479 L1749.92 220.044 L1745.54 220.044 Q1740.61 220.044 1738.74 218.215 Q1736.86 216.364 1736.86 211.502 L1736.86 197.428 L1733.74 197.428 L1733.74 194.118 L1736.86 194.118 L1736.86 186.757 L1741.14 186.757 Z" fill="#000000" fill-rule="nonzero" fill-opacity="1" /></svg>
