<?xml version="1.0" encoding="utf-8"?>
<svg xmlns="http://www.w3.org/2000/svg" xmlns:xlink="http://www.w3.org/1999/xlink" width="600" height="400" viewBox="0 0 2400 1600">
<defs>
  <clipPath id="clip870">
    <rect x="0" y="0" width="2400" height="1600"/>
  </clipPath>
</defs>
<path clip-path="url(#clip870)" d="M0 1600 L2400 1600 L2400 8.88178e-14 L0 8.88178e-14  Z" fill="#ffffff" fill-rule="evenodd" fill-opacity="1"/>
<defs>
  <clipPath id="clip871">
    <rect x="480" y="0" width="1681" height="1600"/>
  </clipPath>
</defs>
<path clip-path="url(#clip870)" d="M219.033 1423.18 L2352.76 1423.18 L2352.76 47.2441 L219.033 47.2441  Z" fill="#ffffff" fill-rule="evenodd" fill-opacity="1"/>
<defs>
  <clipPath id="clip872">
    <rect x="219" y="47" width="2135" height="1377"/>
  </clipPath>
</defs>
<polyline clip-path="url(#clip872)" style="stroke:#000000; stroke-linecap:round; stroke-linejoin:round; stroke-width:2; stroke-opacity:0.1; fill:none" points="279.421,1423.18 279.421,47.2441 "/>
<polyline clip-path="url(#clip872)" style="stroke:#000000; stroke-linecap:round; stroke-linejoin:round; stroke-width:2; stroke-opacity:0.1; fill:none" points="782.658,1423.18 782.658,47.2441 "/>
<polyline clip-path="url(#clip872)" style="stroke:#000000; stroke-linecap:round; stroke-linejoin:round; stroke-width:2; stroke-opacity:0.1; fill:none" points="1285.89,1423.18 1285.89,47.2441 "/>
<polyline clip-path="url(#clip872)" style="stroke:#000000; stroke-linecap:round; stroke-linejoin:round; stroke-width:2; stroke-opacity:0.1; fill:none" points="1789.13,1423.18 1789.13,47.2441 "/>
<polyline clip-path="url(#clip872)" style="stroke:#000000; stroke-linecap:round; stroke-linejoin:round; stroke-width:2; stroke-opacity:0.1; fill:none" points="2292.37,1423.18 2292.37,47.2441 "/>
<polyline clip-path="url(#clip872)" style="stroke:#000000; stroke-linecap:round; stroke-linejoin:round; stroke-width:2; stroke-opacity:0.1; fill:none" points="219.033,1422.2 2352.76,1422.2 "/>
<polyline clip-path="url(#clip872)" style="stroke:#000000; stroke-linecap:round; stroke-linejoin:round; stroke-width:2; stroke-opacity:0.1; fill:none" points="219.033,1129.79 2352.76,1129.79 "/>
<polyline clip-path="url(#clip872)" style="stroke:#000000; stroke-linecap:round; stroke-linejoin:round; stroke-width:2; stroke-opacity:0.1; fill:none" points="219.033,837.384 2352.76,837.384 "/>
<polyline clip-path="url(#clip872)" style="stroke:#000000; stroke-linecap:round; stroke-linejoin:round; stroke-width:2; stroke-opacity:0.1; fill:none" points="219.033,544.973 2352.76,544.973 "/>
<polyline clip-path="url(#clip872)" style="stroke:#000000; stroke-linecap:round; stroke-linejoin:round; stroke-width:2; stroke-opacity:0.1; fill:none" points="219.033,252.562 2352.76,252.562 "/>
<polyline clip-path="url(#clip870)" style="stroke:#000000; stroke-linecap:round; stroke-linejoin:round; stroke-width:4; stroke-opacity:1; fill:none" points="219.033,1423.18 2352.76,1423.18 "/>
<polyline clip-path="url(#clip870)" style="stroke:#000000; stroke-linecap:round; stroke-linejoin:round; stroke-width:4; stroke-opacity:1; fill:none" points="279.421,1423.18 279.421,1404.28 "/>
<polyline clip-path="url(#clip870)" style="stroke:#000000; stroke-linecap:round; stroke-linejoin:round; stroke-width:4; stroke-opacity:1; fill:none" points="782.658,1423.18 782.658,1404.28 "/>
<polyline clip-path="url(#clip870)" style="stroke:#000000; stroke-linecap:round; stroke-linejoin:round; stroke-width:4; stroke-opacity:1; fill:none" points="1285.89,1423.18 1285.89,1404.28 "/>
<polyline clip-path="url(#clip870)" style="stroke:#000000; stroke-linecap:round; stroke-linejoin:round; stroke-width:4; stroke-opacity:1; fill:none" points="1789.13,1423.18 1789.13,1404.28 "/>
<polyline clip-path="url(#clip870)" style="stroke:#000000; stroke-linecap:round; stroke-linejoin:round; stroke-width:4; stroke-opacity:1; fill:none" points="2292.37,1423.18 2292.37,1404.28 "/>
<path clip-path="url(#clip870)" d="M246.586 1451.02 L264.942 1451.02 L264.942 1454.96 L250.868 1454.96 L250.868 1463.43 Q251.887 1463.08 252.905 1462.92 Q253.924 1462.73 254.942 1462.73 Q260.729 1462.73 264.109 1465.9 Q267.489 1469.08 267.489 1474.49 Q267.489 1480.07 264.016 1483.17 Q260.544 1486.25 254.225 1486.25 Q252.049 1486.25 249.78 1485.88 Q247.535 1485.51 245.128 1484.77 L245.128 1480.07 Q247.211 1481.2 249.433 1481.76 Q251.655 1482.32 254.132 1482.32 Q258.137 1482.32 260.475 1480.21 Q262.813 1478.1 262.813 1474.49 Q262.813 1470.88 260.475 1468.77 Q258.137 1466.67 254.132 1466.67 Q252.257 1466.67 250.382 1467.08 Q248.53 1467.5 246.586 1468.38 L246.586 1451.02 Z" fill="#000000" fill-rule="nonzero" fill-opacity="1" /><path clip-path="url(#clip870)" d="M276.701 1479.7 L281.586 1479.7 L281.586 1485.58 L276.701 1485.58 L276.701 1479.7 Z" fill="#000000" fill-rule="nonzero" fill-opacity="1" /><path clip-path="url(#clip870)" d="M301.771 1454.1 Q298.16 1454.1 296.331 1457.66 Q294.525 1461.2 294.525 1468.33 Q294.525 1475.44 296.331 1479.01 Q298.16 1482.55 301.771 1482.55 Q305.405 1482.55 307.211 1479.01 Q309.039 1475.44 309.039 1468.33 Q309.039 1461.2 307.211 1457.66 Q305.405 1454.1 301.771 1454.1 M301.771 1450.39 Q307.581 1450.39 310.636 1455 Q313.715 1459.58 313.715 1468.33 Q313.715 1477.06 310.636 1481.67 Q307.581 1486.25 301.771 1486.25 Q295.961 1486.25 292.882 1481.67 Q289.826 1477.06 289.826 1468.33 Q289.826 1459.58 292.882 1455 Q295.961 1450.39 301.771 1450.39 Z" fill="#000000" fill-rule="nonzero" fill-opacity="1" /><path clip-path="url(#clip870)" d="M750.32 1451.02 L768.676 1451.02 L768.676 1454.96 L754.602 1454.96 L754.602 1463.43 Q755.621 1463.08 756.639 1462.92 Q757.658 1462.73 758.677 1462.73 Q764.464 1462.73 767.843 1465.9 Q771.223 1469.08 771.223 1474.49 Q771.223 1480.07 767.751 1483.17 Q764.278 1486.25 757.959 1486.25 Q755.783 1486.25 753.515 1485.88 Q751.269 1485.51 748.862 1484.77 L748.862 1480.07 Q750.945 1481.2 753.167 1481.76 Q755.389 1482.32 757.866 1482.32 Q761.871 1482.32 764.209 1480.21 Q766.547 1478.1 766.547 1474.49 Q766.547 1470.88 764.209 1468.77 Q761.871 1466.67 757.866 1466.67 Q755.991 1466.67 754.116 1467.08 Q752.265 1467.5 750.32 1468.38 L750.32 1451.02 Z" fill="#000000" fill-rule="nonzero" fill-opacity="1" /><path clip-path="url(#clip870)" d="M780.436 1479.7 L785.32 1479.7 L785.32 1485.58 L780.436 1485.58 L780.436 1479.7 Z" fill="#000000" fill-rule="nonzero" fill-opacity="1" /><path clip-path="url(#clip870)" d="M795.551 1451.02 L813.908 1451.02 L813.908 1454.96 L799.834 1454.96 L799.834 1463.43 Q800.852 1463.08 801.871 1462.92 Q802.889 1462.73 803.908 1462.73 Q809.695 1462.73 813.074 1465.9 Q816.454 1469.08 816.454 1474.49 Q816.454 1480.07 812.982 1483.17 Q809.51 1486.25 803.19 1486.25 Q801.014 1486.25 798.746 1485.88 Q796.5 1485.51 794.093 1484.77 L794.093 1480.07 Q796.176 1481.2 798.399 1481.76 Q800.621 1482.32 803.098 1482.32 Q807.102 1482.32 809.44 1480.21 Q811.778 1478.1 811.778 1474.49 Q811.778 1470.88 809.44 1468.77 Q807.102 1466.67 803.098 1466.67 Q801.223 1466.67 799.348 1467.08 Q797.496 1467.5 795.551 1468.38 L795.551 1451.02 Z" fill="#000000" fill-rule="nonzero" fill-opacity="1" /><path clip-path="url(#clip870)" d="M1263.76 1466.44 Q1260.62 1466.44 1258.76 1468.59 Q1256.94 1470.74 1256.94 1474.49 Q1256.94 1478.22 1258.76 1480.39 Q1260.62 1482.55 1263.76 1482.55 Q1266.91 1482.55 1268.74 1480.39 Q1270.59 1478.22 1270.59 1474.49 Q1270.59 1470.74 1268.74 1468.59 Q1266.91 1466.44 1263.76 1466.44 M1273.05 1451.78 L1273.05 1456.04 Q1271.29 1455.21 1269.48 1454.77 Q1267.7 1454.33 1265.94 1454.33 Q1261.31 1454.33 1258.86 1457.45 Q1256.43 1460.58 1256.08 1466.9 Q1257.45 1464.89 1259.51 1463.82 Q1261.57 1462.73 1264.04 1462.73 Q1269.25 1462.73 1272.26 1465.9 Q1275.29 1469.05 1275.29 1474.49 Q1275.29 1479.82 1272.14 1483.03 Q1269 1486.25 1263.76 1486.25 Q1257.77 1486.25 1254.6 1481.67 Q1251.43 1477.06 1251.43 1468.33 Q1251.43 1460.14 1255.32 1455.28 Q1259.2 1450.39 1265.76 1450.39 Q1267.51 1450.39 1269.3 1450.74 Q1271.1 1451.09 1273.05 1451.78 Z" fill="#000000" fill-rule="nonzero" fill-opacity="1" /><path clip-path="url(#clip870)" d="M1283.35 1479.7 L1288.23 1479.7 L1288.23 1485.58 L1283.35 1485.58 L1283.35 1479.7 Z" fill="#000000" fill-rule="nonzero" fill-opacity="1" /><path clip-path="url(#clip870)" d="M1308.42 1454.1 Q1304.81 1454.1 1302.98 1457.66 Q1301.17 1461.2 1301.17 1468.33 Q1301.17 1475.44 1302.98 1479.01 Q1304.81 1482.55 1308.42 1482.55 Q1312.05 1482.55 1313.86 1479.01 Q1315.69 1475.44 1315.69 1468.33 Q1315.69 1461.2 1313.86 1457.66 Q1312.05 1454.1 1308.42 1454.1 M1308.42 1450.39 Q1314.23 1450.39 1317.28 1455 Q1320.36 1459.58 1320.36 1468.33 Q1320.36 1477.06 1317.28 1481.67 Q1314.23 1486.25 1308.42 1486.25 Q1302.61 1486.25 1299.53 1481.67 Q1296.47 1477.06 1296.47 1468.33 Q1296.47 1459.58 1299.53 1455 Q1302.61 1450.39 1308.42 1450.39 Z" fill="#000000" fill-rule="nonzero" fill-opacity="1" /><path clip-path="url(#clip870)" d="M1767.5 1466.44 Q1764.35 1466.44 1762.5 1468.59 Q1760.67 1470.74 1760.67 1474.49 Q1760.67 1478.22 1762.5 1480.39 Q1764.35 1482.55 1767.5 1482.55 Q1770.65 1482.55 1772.48 1480.39 Q1774.33 1478.22 1774.33 1474.49 Q1774.33 1470.74 1772.48 1468.59 Q1770.65 1466.44 1767.5 1466.44 M1776.78 1451.78 L1776.78 1456.04 Q1775.02 1455.21 1773.22 1454.77 Q1771.43 1454.33 1769.68 1454.33 Q1765.05 1454.33 1762.59 1457.45 Q1760.16 1460.58 1759.81 1466.9 Q1761.18 1464.89 1763.24 1463.82 Q1765.3 1462.73 1767.78 1462.73 Q1772.99 1462.73 1775.99 1465.9 Q1779.03 1469.05 1779.03 1474.49 Q1779.03 1479.82 1775.88 1483.03 Q1772.73 1486.25 1767.5 1486.25 Q1761.5 1486.25 1758.33 1481.67 Q1755.16 1477.06 1755.16 1468.33 Q1755.16 1460.14 1759.05 1455.28 Q1762.94 1450.39 1769.49 1450.39 Q1771.25 1450.39 1773.03 1450.74 Q1774.84 1451.09 1776.78 1451.78 Z" fill="#000000" fill-rule="nonzero" fill-opacity="1" /><path clip-path="url(#clip870)" d="M1787.08 1479.7 L1791.97 1479.7 L1791.97 1485.58 L1787.08 1485.58 L1787.08 1479.7 Z" fill="#000000" fill-rule="nonzero" fill-opacity="1" /><path clip-path="url(#clip870)" d="M1802.2 1451.02 L1820.55 1451.02 L1820.55 1454.96 L1806.48 1454.96 L1806.48 1463.43 Q1807.5 1463.08 1808.52 1462.92 Q1809.54 1462.73 1810.55 1462.73 Q1816.34 1462.73 1819.72 1465.9 Q1823.1 1469.08 1823.1 1474.49 Q1823.1 1480.07 1819.63 1483.17 Q1816.16 1486.25 1809.84 1486.25 Q1807.66 1486.25 1805.39 1485.88 Q1803.15 1485.51 1800.74 1484.77 L1800.74 1480.07 Q1802.82 1481.2 1805.05 1481.76 Q1807.27 1482.32 1809.74 1482.32 Q1813.75 1482.32 1816.09 1480.21 Q1818.42 1478.1 1818.42 1474.49 Q1818.42 1470.88 1816.09 1468.77 Q1813.75 1466.67 1809.74 1466.67 Q1807.87 1466.67 1805.99 1467.08 Q1804.14 1467.5 1802.2 1468.38 L1802.2 1451.02 Z" fill="#000000" fill-rule="nonzero" fill-opacity="1" /><path clip-path="url(#clip870)" d="M2258.19 1451.02 L2280.41 1451.02 L2280.41 1453.01 L2267.87 1485.58 L2262.98 1485.58 L2274.79 1454.96 L2258.19 1454.96 L2258.19 1451.02 Z" fill="#000000" fill-rule="nonzero" fill-opacity="1" /><path clip-path="url(#clip870)" d="M2289.53 1479.7 L2294.42 1479.7 L2294.42 1485.58 L2289.53 1485.58 L2289.53 1479.7 Z" fill="#000000" fill-rule="nonzero" fill-opacity="1" /><path clip-path="url(#clip870)" d="M2314.6 1454.1 Q2310.99 1454.1 2309.16 1457.66 Q2307.36 1461.2 2307.36 1468.33 Q2307.36 1475.44 2309.16 1479.01 Q2310.99 1482.55 2314.6 1482.55 Q2318.24 1482.55 2320.04 1479.01 Q2321.87 1475.44 2321.87 1468.33 Q2321.87 1461.2 2320.04 1457.66 Q2318.24 1454.1 2314.6 1454.1 M2314.6 1450.39 Q2320.41 1450.39 2323.47 1455 Q2326.55 1459.58 2326.55 1468.33 Q2326.55 1477.06 2323.47 1481.67 Q2320.41 1486.25 2314.6 1486.25 Q2308.79 1486.25 2305.71 1481.67 Q2302.66 1477.06 2302.66 1468.33 Q2302.66 1459.58 2305.71 1455 Q2308.79 1450.39 2314.6 1450.39 Z" fill="#000000" fill-rule="nonzero" fill-opacity="1" /><path clip-path="url(#clip870)" d="M1217.75 1525.81 L1217.75 1543.66 L1225.83 1543.66 Q1230.32 1543.66 1232.77 1541.34 Q1235.22 1539.02 1235.22 1534.72 Q1235.22 1530.45 1232.77 1528.13 Q1230.32 1525.81 1225.83 1525.81 L1217.75 1525.81 M1211.32 1520.52 L1225.83 1520.52 Q1233.82 1520.52 1237.9 1524.15 Q1242 1527.75 1242 1534.72 Q1242 1541.75 1237.9 1545.35 Q1233.82 1548.95 1225.83 1548.95 L1217.75 1548.95 L1217.75 1568.04 L1211.32 1568.04 L1211.32 1520.52 Z" fill="#000000" fill-rule="nonzero" fill-opacity="1" /><path clip-path="url(#clip870)" d="M1269.88 1537.87 Q1268.9 1537.3 1267.72 1537.04 Q1266.57 1536.76 1265.17 1536.76 Q1260.21 1536.76 1257.54 1540 Q1254.89 1543.22 1254.89 1549.27 L1254.89 1568.04 L1249.01 1568.04 L1249.01 1532.4 L1254.89 1532.4 L1254.89 1537.93 Q1256.74 1534.69 1259.7 1533.13 Q1262.66 1531.54 1266.89 1531.54 Q1267.5 1531.54 1268.23 1531.63 Q1268.96 1531.7 1269.85 1531.85 L1269.88 1537.87 Z" fill="#000000" fill-rule="nonzero" fill-opacity="1" /><path clip-path="url(#clip870)" d="M1276.03 1532.4 L1281.88 1532.4 L1281.88 1568.04 L1276.03 1568.04 L1276.03 1532.4 M1276.03 1518.52 L1281.88 1518.52 L1281.88 1525.93 L1276.03 1525.93 L1276.03 1518.52 Z" fill="#000000" fill-rule="nonzero" fill-opacity="1" /><path clip-path="url(#clip870)" d="M1319.79 1533.76 L1319.79 1539.24 Q1317.31 1537.87 1314.79 1537.2 Q1312.31 1536.5 1309.77 1536.5 Q1304.07 1536.5 1300.92 1540.13 Q1297.77 1543.73 1297.77 1550.25 Q1297.77 1556.78 1300.92 1560.4 Q1304.07 1564 1309.77 1564 Q1312.31 1564 1314.79 1563.33 Q1317.31 1562.63 1319.79 1561.26 L1319.79 1566.68 Q1317.34 1567.82 1314.7 1568.39 Q1312.09 1568.97 1309.13 1568.97 Q1301.08 1568.97 1296.33 1563.91 Q1291.59 1558.85 1291.59 1550.25 Q1291.59 1541.53 1296.37 1536.53 Q1301.17 1531.54 1309.51 1531.54 Q1312.22 1531.54 1314.79 1532.11 Q1317.37 1532.65 1319.79 1533.76 Z" fill="#000000" fill-rule="nonzero" fill-opacity="1" /><path clip-path="url(#clip870)" d="M1360.47 1548.76 L1360.47 1551.62 L1333.54 1551.62 Q1333.92 1557.67 1337.17 1560.85 Q1340.45 1564 1346.27 1564 Q1349.65 1564 1352.8 1563.17 Q1355.98 1562.35 1359.1 1560.69 L1359.1 1566.23 Q1355.95 1567.57 1352.64 1568.27 Q1349.33 1568.97 1345.92 1568.97 Q1337.39 1568.97 1332.4 1564 Q1327.43 1559.04 1327.43 1550.57 Q1327.43 1541.82 1332.14 1536.69 Q1336.88 1531.54 1344.9 1531.54 Q1352.1 1531.54 1356.27 1536.18 Q1360.47 1540.8 1360.47 1548.76 M1354.61 1547.04 Q1354.55 1542.23 1351.91 1539.37 Q1349.3 1536.5 1344.97 1536.5 Q1340.07 1536.5 1337.11 1539.27 Q1334.18 1542.04 1333.73 1547.07 L1354.61 1547.04 Z" fill="#000000" fill-rule="nonzero" fill-opacity="1" /><polyline clip-path="url(#clip870)" style="stroke:#000000; stroke-linecap:round; stroke-linejoin:round; stroke-width:4; stroke-opacity:1; fill:none" points="219.033,1423.18 219.033,47.2441 "/>
<polyline clip-path="url(#clip870)" style="stroke:#000000; stroke-linecap:round; stroke-linejoin:round; stroke-width:4; stroke-opacity:1; fill:none" points="219.033,1422.2 237.931,1422.2 "/>
<polyline clip-path="url(#clip870)" style="stroke:#000000; stroke-linecap:round; stroke-linejoin:round; stroke-width:4; stroke-opacity:1; fill:none" points="219.033,1129.79 237.931,1129.79 "/>
<polyline clip-path="url(#clip870)" style="stroke:#000000; stroke-linecap:round; stroke-linejoin:round; stroke-width:4; stroke-opacity:1; fill:none" points="219.033,837.384 237.931,837.384 "/>
<polyline clip-path="url(#clip870)" style="stroke:#000000; stroke-linecap:round; stroke-linejoin:round; stroke-width:4; stroke-opacity:1; fill:none" points="219.033,544.973 237.931,544.973 "/>
<polyline clip-path="url(#clip870)" style="stroke:#000000; stroke-linecap:round; stroke-linejoin:round; stroke-width:4; stroke-opacity:1; fill:none" points="219.033,252.562 237.931,252.562 "/>
<path clip-path="url(#clip870)" d="M116.181 1435.55 L123.82 1435.55 L123.82 1409.18 L115.51 1410.85 L115.51 1406.59 L123.774 1404.92 L128.45 1404.92 L128.45 1435.55 L136.089 1435.55 L136.089 1439.48 L116.181 1439.48 L116.181 1435.55 Z" fill="#000000" fill-rule="nonzero" fill-opacity="1" /><path clip-path="url(#clip870)" d="M145.533 1433.61 L150.417 1433.61 L150.417 1439.48 L145.533 1439.48 L145.533 1433.61 Z" fill="#000000" fill-rule="nonzero" fill-opacity="1" /><path clip-path="url(#clip870)" d="M173.45 1409 L161.644 1427.45 L173.45 1427.45 L173.45 1409 M172.223 1404.92 L178.102 1404.92 L178.102 1427.45 L183.033 1427.45 L183.033 1431.34 L178.102 1431.34 L178.102 1439.48 L173.45 1439.48 L173.45 1431.34 L157.848 1431.34 L157.848 1426.82 L172.223 1404.92 Z" fill="#000000" fill-rule="nonzero" fill-opacity="1" /><path clip-path="url(#clip870)" d="M116.506 1143.14 L124.144 1143.14 L124.144 1116.77 L115.834 1118.44 L115.834 1114.18 L124.098 1112.51 L128.774 1112.51 L128.774 1143.14 L136.413 1143.14 L136.413 1147.07 L116.506 1147.07 L116.506 1143.14 Z" fill="#000000" fill-rule="nonzero" fill-opacity="1" /><path clip-path="url(#clip870)" d="M145.857 1141.19 L150.741 1141.19 L150.741 1147.07 L145.857 1147.07 L145.857 1141.19 Z" fill="#000000" fill-rule="nonzero" fill-opacity="1" /><path clip-path="url(#clip870)" d="M171.505 1127.93 Q168.357 1127.93 166.505 1130.08 Q164.677 1132.24 164.677 1135.99 Q164.677 1139.71 166.505 1141.89 Q168.357 1144.04 171.505 1144.04 Q174.653 1144.04 176.482 1141.89 Q178.334 1139.71 178.334 1135.99 Q178.334 1132.24 176.482 1130.08 Q174.653 1127.93 171.505 1127.93 M180.788 1113.28 L180.788 1117.54 Q179.028 1116.7 177.223 1116.26 Q175.44 1115.82 173.681 1115.82 Q169.052 1115.82 166.598 1118.95 Q164.167 1122.07 163.82 1128.39 Q165.186 1126.38 167.246 1125.32 Q169.306 1124.23 171.783 1124.23 Q176.991 1124.23 180.001 1127.4 Q183.033 1130.55 183.033 1135.99 Q183.033 1141.31 179.885 1144.53 Q176.737 1147.75 171.505 1147.75 Q165.51 1147.75 162.339 1143.16 Q159.167 1138.56 159.167 1129.83 Q159.167 1121.63 163.056 1116.77 Q166.945 1111.89 173.496 1111.89 Q175.255 1111.89 177.038 1112.24 Q178.843 1112.58 180.788 1113.28 Z" fill="#000000" fill-rule="nonzero" fill-opacity="1" /><path clip-path="url(#clip870)" d="M116.76 850.728 L124.399 850.728 L124.399 824.363 L116.089 826.029 L116.089 821.77 L124.353 820.104 L129.029 820.104 L129.029 850.728 L136.667 850.728 L136.667 854.664 L116.76 854.664 L116.76 850.728 Z" fill="#000000" fill-rule="nonzero" fill-opacity="1" /><path clip-path="url(#clip870)" d="M146.112 848.784 L150.996 848.784 L150.996 854.664 L146.112 854.664 L146.112 848.784 Z" fill="#000000" fill-rule="nonzero" fill-opacity="1" /><path clip-path="url(#clip870)" d="M171.181 838.252 Q167.848 838.252 165.927 840.034 Q164.028 841.816 164.028 844.941 Q164.028 848.066 165.927 849.849 Q167.848 851.631 171.181 851.631 Q174.514 851.631 176.436 849.849 Q178.357 848.043 178.357 844.941 Q178.357 841.816 176.436 840.034 Q174.538 838.252 171.181 838.252 M166.505 836.261 Q163.496 835.52 161.806 833.46 Q160.14 831.4 160.14 828.437 Q160.14 824.293 163.079 821.886 Q166.042 819.479 171.181 819.479 Q176.343 819.479 179.283 821.886 Q182.223 824.293 182.223 828.437 Q182.223 831.4 180.533 833.46 Q178.866 835.52 175.88 836.261 Q179.26 837.048 181.135 839.34 Q183.033 841.631 183.033 844.941 Q183.033 849.965 179.954 852.65 Q176.899 855.335 171.181 855.335 Q165.464 855.335 162.385 852.65 Q159.329 849.965 159.329 844.941 Q159.329 841.631 161.227 839.34 Q163.126 837.048 166.505 836.261 M164.792 828.877 Q164.792 831.562 166.459 833.066 Q168.149 834.571 171.181 834.571 Q174.19 834.571 175.88 833.066 Q177.593 831.562 177.593 828.877 Q177.593 826.192 175.88 824.687 Q174.19 823.182 171.181 823.182 Q168.149 823.182 166.459 824.687 Q164.792 826.192 164.792 828.877 Z" fill="#000000" fill-rule="nonzero" fill-opacity="1" /><path clip-path="url(#clip870)" d="M119.885 558.318 L136.204 558.318 L136.204 562.253 L114.26 562.253 L114.26 558.318 Q116.922 555.563 121.505 550.934 Q126.112 546.281 127.292 544.938 Q129.538 542.415 130.417 540.679 Q131.32 538.92 131.32 537.23 Q131.32 534.475 129.376 532.739 Q127.455 531.003 124.353 531.003 Q122.154 531.003 119.7 531.767 Q117.269 532.531 114.492 534.082 L114.492 529.36 Q117.316 528.225 119.769 527.647 Q122.223 527.068 124.26 527.068 Q129.63 527.068 132.825 529.753 Q136.019 532.438 136.019 536.929 Q136.019 539.059 135.209 540.98 Q134.422 542.878 132.316 545.471 Q131.737 546.142 128.635 549.36 Q125.533 552.554 119.885 558.318 Z" fill="#000000" fill-rule="nonzero" fill-opacity="1" /><path clip-path="url(#clip870)" d="M146.019 556.373 L150.903 556.373 L150.903 562.253 L146.019 562.253 L146.019 556.373 Z" fill="#000000" fill-rule="nonzero" fill-opacity="1" /><path clip-path="url(#clip870)" d="M171.089 530.772 Q167.477 530.772 165.649 534.336 Q163.843 537.878 163.843 545.008 Q163.843 552.114 165.649 555.679 Q167.477 559.221 171.089 559.221 Q174.723 559.221 176.528 555.679 Q178.357 552.114 178.357 545.008 Q178.357 537.878 176.528 534.336 Q174.723 530.772 171.089 530.772 M171.089 527.068 Q176.899 527.068 179.954 531.674 Q183.033 536.258 183.033 545.008 Q183.033 553.735 179.954 558.341 Q176.899 562.924 171.089 562.924 Q165.278 562.924 162.2 558.341 Q159.144 553.735 159.144 545.008 Q159.144 536.258 162.2 531.674 Q165.278 527.068 171.089 527.068 Z" fill="#000000" fill-rule="nonzero" fill-opacity="1" /><path clip-path="url(#clip870)" d="M121.482 265.907 L137.802 265.907 L137.802 269.842 L115.857 269.842 L115.857 265.907 Q118.519 263.153 123.103 258.523 Q127.709 253.87 128.89 252.528 Q131.135 250.005 132.015 248.268 Q132.917 246.509 132.917 244.819 Q132.917 242.065 130.973 240.329 Q129.052 238.593 125.95 238.593 Q123.751 238.593 121.297 239.356 Q118.867 240.12 116.089 241.671 L116.089 236.949 Q118.913 235.815 121.367 235.236 Q123.82 234.657 125.857 234.657 Q131.228 234.657 134.422 237.343 Q137.617 240.028 137.617 244.518 Q137.617 246.648 136.806 248.569 Q136.019 250.467 133.913 253.06 Q133.334 253.731 130.232 256.949 Q127.13 260.143 121.482 265.907 Z" fill="#000000" fill-rule="nonzero" fill-opacity="1" /><path clip-path="url(#clip870)" d="M147.616 263.963 L152.501 263.963 L152.501 269.842 L147.616 269.842 L147.616 263.963 Z" fill="#000000" fill-rule="nonzero" fill-opacity="1" /><path clip-path="url(#clip870)" d="M166.714 265.907 L183.033 265.907 L183.033 269.842 L161.089 269.842 L161.089 265.907 Q163.751 263.153 168.334 258.523 Q172.94 253.87 174.121 252.528 Q176.366 250.005 177.246 248.268 Q178.149 246.509 178.149 244.819 Q178.149 242.065 176.204 240.329 Q174.283 238.593 171.181 238.593 Q168.982 238.593 166.528 239.356 Q164.098 240.12 161.32 241.671 L161.32 236.949 Q164.144 235.815 166.598 235.236 Q169.052 234.657 171.089 234.657 Q176.459 234.657 179.653 237.343 Q182.848 240.028 182.848 244.518 Q182.848 246.648 182.038 248.569 Q181.251 250.467 179.144 253.06 Q178.565 253.731 175.464 256.949 Q172.362 260.143 166.714 265.907 Z" fill="#000000" fill-rule="nonzero" fill-opacity="1" /><path clip-path="url(#clip870)" d="M20.8447 851.227 Q20.8447 858.229 26.0645 862.367 Q31.2844 866.473 40.2919 866.473 Q49.2675 866.473 54.4874 862.367 Q59.7073 858.229 59.7073 851.227 Q59.7073 844.225 54.4874 840.151 Q49.2675 836.045 40.2919 836.045 Q31.2844 836.045 26.0645 840.151 Q20.8447 844.225 20.8447 851.227 M63.1448 842.219 L72.4069 833.753 L72.4069 841.519 L64.7999 848.553 Q64.8635 849.604 64.8954 850.177 Q64.9272 850.718 64.9272 851.227 Q64.9272 861.253 58.2432 867.269 Q51.5274 873.252 40.2919 873.252 Q29.0246 873.252 22.3406 867.269 Q15.6248 861.253 15.6248 851.227 Q15.6248 841.233 22.3406 835.249 Q29.0246 829.265 40.2919 829.265 Q48.5673 829.265 54.4556 832.607 Q60.3439 835.917 63.1448 842.219 Z" fill="#000000" fill-rule="nonzero" fill-opacity="1" /><path clip-path="url(#clip870)" d="M49.9359 820.067 L28.3562 820.067 L28.3562 814.21 L49.7131 814.21 Q54.7739 814.21 57.3202 812.237 Q59.8346 810.264 59.8346 806.317 Q59.8346 801.574 56.8109 798.837 Q53.7872 796.068 48.5673 796.068 L28.3562 796.068 L28.3562 790.212 L64.0042 790.212 L64.0042 796.068 L58.5296 796.068 Q61.7762 798.201 63.3676 801.033 Q64.9272 803.834 64.9272 807.558 Q64.9272 813.701 61.1078 816.884 Q57.2883 820.067 49.9359 820.067 M27.4968 805.33 L27.4968 805.33 Z" fill="#000000" fill-rule="nonzero" fill-opacity="1" /><path clip-path="url(#clip870)" d="M46.0847 761.948 Q46.0847 769.046 47.7079 771.783 Q49.3312 774.52 53.2461 774.52 Q56.3653 774.52 58.2114 772.483 Q60.0256 770.414 60.0256 766.881 Q60.0256 762.012 56.5881 759.083 Q53.1188 756.123 47.3897 756.123 L46.0847 756.123 L46.0847 761.948 M43.6657 750.267 L64.0042 750.267 L64.0042 756.123 L58.5933 756.123 Q61.8398 758.129 63.3994 761.12 Q64.9272 764.112 64.9272 768.441 Q64.9272 773.915 61.8716 777.162 Q58.7843 780.377 53.6281 780.377 Q47.6125 780.377 44.5569 776.366 Q41.5014 772.324 41.5014 764.335 L41.5014 756.123 L40.9285 756.123 Q36.8862 756.123 34.6901 758.797 Q32.4621 761.439 32.4621 766.245 Q32.4621 769.3 33.1941 772.197 Q33.9262 775.093 35.3903 777.767 L29.9795 777.767 Q28.7381 774.552 28.1334 771.528 Q27.4968 768.505 27.4968 765.64 Q27.4968 757.906 31.5072 754.086 Q35.5176 750.267 43.6657 750.267 Z" fill="#000000" fill-rule="nonzero" fill-opacity="1" /><path clip-path="url(#clip870)" d="M42.4881 708.571 L64.0042 708.571 L64.0042 714.428 L42.679 714.428 Q37.6183 714.428 35.1038 716.401 Q32.5894 718.375 32.5894 722.321 Q32.5894 727.064 35.6131 729.801 Q38.6368 732.538 43.8567 732.538 L64.0042 732.538 L64.0042 738.427 L28.3562 738.427 L28.3562 732.538 L33.8944 732.538 Q30.6797 730.438 29.0883 727.605 Q27.4968 724.74 27.4968 721.016 Q27.4968 714.874 31.3163 711.723 Q35.1038 708.571 42.4881 708.571 Z" fill="#000000" fill-rule="nonzero" fill-opacity="1" /><path clip-path="url(#clip870)" d="M18.2347 691.098 L28.3562 691.098 L28.3562 679.035 L32.9077 679.035 L32.9077 691.098 L52.2594 691.098 Q56.6199 691.098 57.8613 689.92 Q59.1026 688.71 59.1026 685.05 L59.1026 679.035 L64.0042 679.035 L64.0042 685.05 Q64.0042 691.83 61.4897 694.408 Q58.9434 696.986 52.2594 696.986 L32.9077 696.986 L32.9077 701.283 L28.3562 701.283 L28.3562 696.986 L18.2347 696.986 L18.2347 691.098 Z" fill="#000000" fill-rule="nonzero" fill-opacity="1" /><path clip-path="url(#clip870)" d="M28.3562 671.332 L28.3562 665.476 L64.0042 665.476 L64.0042 671.332 L28.3562 671.332 M14.479 671.332 L14.479 665.476 L21.895 665.476 L21.895 671.332 L14.479 671.332 Z" fill="#000000" fill-rule="nonzero" fill-opacity="1" /><path clip-path="url(#clip870)" d="M18.2347 647.429 L28.3562 647.429 L28.3562 635.366 L32.9077 635.366 L32.9077 647.429 L52.2594 647.429 Q56.6199 647.429 57.8613 646.251 Q59.1026 645.042 59.1026 641.381 L59.1026 635.366 L64.0042 635.366 L64.0042 641.381 Q64.0042 648.161 61.4897 650.739 Q58.9434 653.317 52.2594 653.317 L32.9077 653.317 L32.9077 657.614 L28.3562 657.614 L28.3562 653.317 L18.2347 653.317 L18.2347 647.429 Z" fill="#000000" fill-rule="nonzero" fill-opacity="1" /><path clip-path="url(#clip870)" d="M67.3143 612.831 Q73.68 615.314 75.6216 617.669 Q77.5631 620.025 77.5631 623.971 L77.5631 628.65 L72.6615 628.65 L72.6615 625.213 Q72.6615 622.794 71.5157 621.457 Q70.3699 620.12 66.1048 618.497 L63.4312 617.446 L28.3562 631.865 L28.3562 625.658 L56.238 614.518 L28.3562 603.378 L28.3562 597.172 L67.3143 612.831 Z" fill="#000000" fill-rule="nonzero" fill-opacity="1" /><polyline clip-path="url(#clip872)" style="stroke:#009af9; stroke-linecap:round; stroke-linejoin:round; stroke-width:8; stroke-opacity:1; fill:none" points="279.421,282.938 289.486,288.441 299.551,293.944 309.616,299.448 319.68,304.951 329.745,310.454 339.81,315.958 349.874,321.461 359.939,326.964 370.004,332.468 380.069,337.971 390.133,343.474 400.198,348.978 410.263,354.481 420.328,359.984 430.392,365.488 440.457,370.991 450.522,376.494 460.586,381.998 470.651,387.501 480.716,393.004 490.781,398.508 500.845,404.011 510.91,409.514 520.975,415.018 531.04,420.521 541.104,426.024 551.169,431.527 561.234,437.031 571.299,442.534 581.363,448.037 591.428,453.541 601.493,459.044 611.557,464.547 621.622,470.051 631.687,475.554 641.752,481.057 651.816,486.561 661.881,492.064 671.946,497.567 682.011,503.071 692.075,508.574 702.14,514.077 712.205,519.581 722.269,525.084 732.334,530.587 742.399,536.091 752.464,541.594 762.528,547.097 772.593,552.601 782.658,558.104 792.723,563.607 802.787,569.111 812.852,574.614 822.917,580.117 832.982,585.621 843.046,591.124 853.111,596.627 863.176,602.131 873.24,607.634 883.305,613.137 893.37,618.641 903.435,624.144 913.499,629.647 923.564,635.151 933.629,640.654 943.694,646.157 953.758,651.661 963.823,657.164 973.888,662.667 983.952,668.171 994.017,673.674 1004.08,679.177 1014.15,684.681 1024.21,690.184 1034.28,695.687 1044.34,701.191 1054.41,706.694 1064.47,712.197 1074.54,717.701 1084.6,723.204 1094.66,728.707 1104.73,734.21 1114.79,739.714 1124.86,745.217 1134.92,750.72 1144.99,756.224 1155.05,761.727 1165.12,767.23 1175.18,772.734 1185.25,778.237 1195.31,783.74 1205.38,789.244 1215.44,794.747 1225.51,800.25 1235.57,805.754 1245.64,811.257 1255.7,816.76 1265.76,822.264 1275.83,827.767 1285.89,833.27 1295.96,838.774 1306.02,844.277 1316.09,849.78 1326.15,855.284 1336.22,860.787 1346.28,866.29 1356.35,871.794 1366.41,877.297 1376.48,882.8 1386.54,888.304 1396.61,893.807 1406.67,899.31 1416.74,904.814 1426.8,910.317 1436.87,915.82 1446.93,921.324 1456.99,926.827 1467.06,932.33 1477.12,937.834 1487.19,943.337 1497.25,948.84 1507.32,954.344 1517.38,959.847 1527.45,965.35 1537.51,970.854 1547.58,976.357 1557.64,981.86 1567.71,987.364 1577.77,992.867 1587.84,998.37 1597.9,1003.87 1607.97,1009.38 1618.03,1014.88 1628.1,1020.38 1638.16,1025.89 1648.22,1031.39 1658.29,1036.89 1668.35,1042.4 1678.42,1047.9 1688.48,1053.4 1698.55,1058.91 1708.61,1064.41 1718.68,1069.91 1728.74,1075.42 1738.81,1080.92 1748.87,1086.42 1758.94,1091.93 1769,1097.43 1779.07,1102.93 1789.13,1108.44 1799.2,1113.94 1809.26,1119.44 1819.33,1124.95 1829.39,1130.45 1839.45,1135.95 1849.52,1141.46 1859.58,1146.96 1869.65,1152.46 1879.71,1157.97 1889.78,1163.47 1899.84,1168.97 1909.91,1174.48 1919.97,1179.98 1930.04,1185.48 1940.1,1190.99 1950.17,1196.49 1960.23,1201.99 1970.3,1207.5 1980.36,1213 1990.43,1218.5 2000.49,1224.01 2010.56,1229.51 2020.62,1235.01 2030.68,1240.52 2040.75,1246.02 2050.81,1251.52 2060.88,1257.03 2070.94,1262.53 2081.01,1268.03 2091.07,1273.54 2101.14,1279.04 2111.2,1284.54 2121.27,1290.05 2131.33,1295.55 2141.4,1301.05 2151.46,1306.56 2161.53,1312.06 2171.59,1317.56 2181.66,1323.07 2191.72,1328.57 2201.78,1334.07 2211.85,1339.58 2221.91,1345.08 2231.98,1350.58 2242.04,1356.09 2252.11,1361.59 2262.17,1367.09 2272.24,1372.6 2282.3,1378.1 2292.37,1383.6 "/>
<polyline clip-path="url(#clip872)" style="stroke:#e26f46; stroke-linecap:round; stroke-linejoin:round; stroke-width:8; stroke-opacity:1; fill:none" points="279.421,86.1857 289.486,91.689 299.551,97.1923 309.616,102.696 319.68,108.199 329.745,113.702 339.81,119.206 349.874,124.709 359.939,130.212 370.004,135.716 380.069,141.219 390.133,146.722 400.198,152.226 410.263,157.729 420.328,163.232 430.392,168.736 440.457,174.239 450.522,179.742 460.586,185.246 470.651,190.749 480.716,196.252 490.781,201.756 500.845,207.259 510.91,212.762 520.975,218.266 531.04,223.769 541.104,229.272 551.169,234.776 561.234,240.279 571.299,245.782 581.363,251.285 591.428,256.789 601.493,262.292 611.557,267.795 621.622,273.299 631.687,278.802 641.752,284.305 651.816,289.809 661.881,295.312 671.946,300.815 682.011,306.319 692.075,311.822 702.14,317.325 712.205,322.829 722.269,328.332 732.334,333.835 742.399,339.339 752.464,344.842 762.528,350.345 772.593,355.849 782.658,361.352 792.723,366.855 802.787,372.359 812.852,377.862 822.917,383.365 832.982,388.869 843.046,394.372 853.111,399.875 863.176,405.379 873.24,410.882 883.305,416.385 893.37,421.889 903.435,427.392 913.499,432.895 923.564,438.399 933.629,443.902 943.694,449.405 953.758,454.909 963.823,460.412 973.888,465.915 983.952,471.419 994.017,476.922 1004.08,482.425 1014.15,487.929 1024.21,493.432 1034.28,498.935 1044.34,504.439 1054.41,509.942 1064.47,515.445 1074.54,520.949 1084.6,526.452 1094.66,531.955 1104.73,537.459 1114.79,542.962 1124.86,548.465 1134.92,553.968 1144.99,559.472 1155.05,564.975 1165.12,570.478 1175.18,575.982 1185.25,581.485 1195.31,586.988 1205.38,592.492 1215.44,597.995 1225.51,603.498 1235.57,609.002 1245.64,614.505 1255.7,620.008 1265.76,625.512 1275.83,631.015 1285.89,636.518 1295.96,642.022 1306.02,647.525 1316.09,653.028 1326.15,658.532 1336.22,664.035 1346.28,669.538 1356.35,675.042 1366.41,680.545 1376.48,686.048 1386.54,691.552 1396.61,697.055 1406.67,702.558 1416.74,708.062 1426.8,713.565 1436.87,719.068 1446.93,724.572 1456.99,730.075 1467.06,735.578 1477.12,741.082 1487.19,746.585 1497.25,752.088 1507.32,757.592 1517.38,763.095 1527.45,768.598 1537.51,774.102 1547.58,779.605 1557.64,785.108 1567.71,790.612 1577.77,796.115 1587.84,801.618 1597.9,807.122 1607.97,812.625 1618.03,818.128 1628.1,823.632 1638.16,829.135 1648.22,834.638 1658.29,840.142 1668.35,845.645 1678.42,851.148 1688.48,856.651 1698.55,862.155 1708.61,867.658 1718.68,873.161 1728.74,878.665 1738.81,884.168 1748.87,889.671 1758.94,895.175 1769,900.678 1779.07,906.181 1789.13,911.685 1799.2,917.188 1809.26,922.691 1819.33,928.195 1829.39,933.698 1839.45,939.201 1849.52,944.705 1859.58,950.208 1869.65,955.711 1879.71,961.215 1889.78,966.718 1899.84,972.221 1909.91,977.725 1919.97,983.228 1930.04,988.731 1940.1,994.235 1950.17,999.738 1960.23,1005.24 1970.3,1010.74 1980.36,1016.25 1990.43,1021.75 2000.49,1027.25 2010.56,1032.76 2020.62,1038.26 2030.68,1043.76 2040.75,1049.27 2050.81,1054.77 2060.88,1060.27 2070.94,1065.78 2081.01,1071.28 2091.07,1076.78 2101.14,1082.29 2111.2,1087.79 2121.27,1093.29 2131.33,1098.8 2141.4,1104.3 2151.46,1109.8 2161.53,1115.31 2171.59,1120.81 2181.66,1126.31 2191.72,1131.82 2201.78,1137.32 2211.85,1142.82 2221.91,1148.33 2231.98,1153.83 2242.04,1159.33 2252.11,1164.84 2262.17,1170.34 2272.24,1175.84 2282.3,1181.35 2292.37,1186.85 "/>
<polyline clip-path="url(#clip872)" style="stroke:#3da44d; stroke-linecap:round; stroke-linejoin:round; stroke-width:8; stroke-opacity:1; fill:none" points="279.421,1384.24 289.486,1379.47 299.551,1374.7 309.616,1369.93 319.68,1365.16 329.745,1360.39 339.81,1355.62 349.874,1350.85 359.939,1346.08 370.004,1341.31 380.069,1336.54 390.133,1331.77 400.198,1327 410.263,1322.23 420.328,1317.46 430.392,1312.69 440.457,1307.92 450.522,1303.15 460.586,1298.38 470.651,1293.61 480.716,1288.84 490.781,1284.07 500.845,1279.3 510.91,1274.53 520.975,1269.76 531.04,1264.99 541.104,1260.22 551.169,1255.45 561.234,1250.68 571.299,1245.91 581.363,1241.14 591.428,1236.37 601.493,1231.6 611.557,1226.83 621.622,1222.06 631.687,1217.29 641.752,1212.52 651.816,1207.75 661.881,1202.98 671.946,1198.21 682.011,1193.44 692.075,1188.67 702.14,1183.9 712.205,1179.13 722.269,1174.36 732.334,1169.59 742.399,1164.82 752.464,1160.05 762.528,1155.28 772.593,1150.51 782.658,1145.74 792.723,1140.97 802.787,1136.2 812.852,1131.43 822.917,1126.66 832.982,1121.89 843.046,1117.12 853.111,1112.35 863.176,1107.58 873.24,1102.81 883.305,1098.04 893.37,1093.27 903.435,1088.5 913.499,1083.73 923.564,1078.96 933.629,1074.19 943.694,1069.42 953.758,1064.65 963.823,1059.88 973.888,1055.11 983.952,1050.34 994.017,1045.57 1004.08,1040.8 1014.15,1036.03 1024.21,1031.26 1034.28,1026.49 1044.34,1021.72 1054.41,1016.95 1064.47,1012.18 1074.54,1007.41 1084.6,1002.64 1094.66,997.871 1104.73,993.101 1114.79,988.331 1124.86,983.561 1134.92,978.791 1144.99,974.021 1155.05,969.251 1165.12,964.481 1175.18,959.711 1185.25,954.941 1195.31,950.171 1205.38,945.401 1215.44,940.631 1225.51,935.861 1235.57,931.091 1245.64,926.321 1255.7,921.551 1265.76,916.781 1275.83,912.011 1285.89,907.241 1295.96,902.471 1306.02,897.701 1316.09,892.931 1326.15,888.161 1336.22,883.391 1346.28,878.621 1356.35,873.851 1366.41,869.081 1376.48,864.311 1386.54,859.541 1396.61,854.771 1406.67,850.001 1416.74,845.231 1426.8,840.462 1436.87,835.692 1446.93,830.922 1456.99,826.152 1467.06,821.382 1477.12,816.612 1487.19,811.842 1497.25,807.072 1507.32,802.302 1517.38,797.532 1527.45,792.762 1537.51,787.992 1547.58,783.222 1557.64,778.452 1567.71,773.682 1577.77,768.912 1587.84,764.142 1597.9,759.372 1607.97,754.602 1618.03,749.832 1628.1,745.062 1638.16,740.292 1648.22,735.522 1658.29,730.752 1668.35,725.982 1678.42,721.212 1688.48,716.442 1698.55,711.672 1708.61,706.902 1718.68,702.132 1728.74,697.362 1738.81,692.592 1748.87,687.822 1758.94,683.052 1769,678.282 1779.07,673.513 1789.13,668.743 1799.2,663.973 1809.26,659.203 1819.33,654.433 1829.39,649.663 1839.45,644.893 1849.52,640.123 1859.58,635.353 1869.65,630.583 1879.71,625.813 1889.78,621.043 1899.84,616.273 1909.91,611.503 1919.97,606.733 1930.04,601.963 1940.1,597.193 1950.17,592.423 1960.23,587.653 1970.3,582.883 1980.36,578.113 1990.43,573.343 2000.49,568.573 2010.56,563.803 2020.62,559.033 2030.68,554.263 2040.75,549.493 2050.81,544.723 2060.88,539.953 2070.94,535.183 2081.01,530.413 2091.07,525.643 2101.14,520.873 2111.2,516.103 2121.27,511.333 2131.33,506.563 2141.4,501.794 2151.46,497.024 2161.53,492.254 2171.59,487.484 2181.66,482.714 2191.72,477.944 2201.78,473.174 2211.85,468.404 2221.91,463.634 2231.98,458.864 2242.04,454.094 2252.11,449.324 2262.17,444.554 2272.24,439.784 2282.3,435.014 2292.37,430.244 "/>
<path clip-path="url(#clip870)" d="M835.53 300.469 L1736.26 300.469 L1736.26 93.1086 L835.53 93.1086  Z" fill="#ffffff" fill-rule="evenodd" fill-opacity="1"/>
<polyline clip-path="url(#clip870)" style="stroke:#000000; stroke-linecap:round; stroke-linejoin:round; stroke-width:4; stroke-opacity:1; fill:none" points="835.53,300.469 1736.26,300.469 1736.26,93.1086 835.53,93.1086 835.53,300.469 "/>
<polyline clip-path="url(#clip870)" style="stroke:#009af9; stroke-linecap:round; stroke-linejoin:round; stroke-width:8; stroke-opacity:1; fill:none" points="859.238,144.949 1001.49,144.949 "/>
<path clip-path="url(#clip870)" d="M1041.03 132.275 L1034.68 149.474 L1047.39 149.474 L1041.03 132.275 M1038.39 127.669 L1043.69 127.669 L1056.86 162.229 L1052 162.229 L1048.85 153.363 L1033.27 153.363 L1030.12 162.229 L1025.19 162.229 L1038.39 127.669 Z" fill="#000000" fill-rule="nonzero" fill-opacity="1" /><path clip-path="url(#clip870)" d="M1078.78 148.965 Q1078.78 144.335 1076.86 141.789 Q1074.96 139.243 1071.51 139.243 Q1068.09 139.243 1066.17 141.789 Q1064.27 144.335 1064.27 148.965 Q1064.27 153.571 1066.17 156.118 Q1068.09 158.664 1071.51 158.664 Q1074.96 158.664 1076.86 156.118 Q1078.78 153.571 1078.78 148.965 M1083.04 159.011 Q1083.04 165.631 1080.1 168.849 Q1077.16 172.09 1071.1 172.09 Q1068.85 172.09 1066.86 171.742 Q1064.87 171.418 1062.99 170.724 L1062.99 166.58 Q1064.87 167.599 1066.7 168.085 Q1068.53 168.571 1070.43 168.571 Q1074.61 168.571 1076.7 166.372 Q1078.78 164.196 1078.78 159.775 L1078.78 157.668 Q1077.46 159.96 1075.4 161.094 Q1073.34 162.229 1070.47 162.229 Q1065.7 162.229 1062.79 158.594 Q1059.87 154.96 1059.87 148.965 Q1059.87 142.946 1062.79 139.312 Q1065.7 135.678 1070.47 135.678 Q1073.34 135.678 1075.4 136.812 Q1077.46 137.946 1078.78 140.238 L1078.78 136.303 L1083.04 136.303 L1083.04 159.011 Z" fill="#000000" fill-rule="nonzero" fill-opacity="1" /><path clip-path="url(#clip870)" d="M1108.87 148.965 Q1108.87 144.335 1106.95 141.789 Q1105.05 139.243 1101.61 139.243 Q1098.18 139.243 1096.26 141.789 Q1094.36 144.335 1094.36 148.965 Q1094.36 153.571 1096.26 156.118 Q1098.18 158.664 1101.61 158.664 Q1105.05 158.664 1106.95 156.118 Q1108.87 153.571 1108.87 148.965 M1113.13 159.011 Q1113.13 165.631 1110.19 168.849 Q1107.25 172.09 1101.19 172.09 Q1098.94 172.09 1096.95 171.742 Q1094.96 171.418 1093.09 170.724 L1093.09 166.58 Q1094.96 167.599 1096.79 168.085 Q1098.62 168.571 1100.52 168.571 Q1104.71 168.571 1106.79 166.372 Q1108.87 164.196 1108.87 159.775 L1108.87 157.668 Q1107.55 159.96 1105.49 161.094 Q1103.43 162.229 1100.56 162.229 Q1095.8 162.229 1092.88 158.594 Q1089.96 154.96 1089.96 148.965 Q1089.96 142.946 1092.88 139.312 Q1095.8 135.678 1100.56 135.678 Q1103.43 135.678 1105.49 136.812 Q1107.55 137.946 1108.87 140.238 L1108.87 136.303 L1113.13 136.303 L1113.13 159.011 Z" fill="#000000" fill-rule="nonzero" fill-opacity="1" /><path clip-path="url(#clip870)" d="M1136.93 140.284 Q1136.21 139.868 1135.36 139.682 Q1134.52 139.474 1133.5 139.474 Q1129.89 139.474 1127.95 141.835 Q1126.03 144.173 1126.03 148.571 L1126.03 162.229 L1121.74 162.229 L1121.74 136.303 L1126.03 136.303 L1126.03 140.331 Q1127.37 137.969 1129.52 136.835 Q1131.67 135.678 1134.75 135.678 Q1135.19 135.678 1135.73 135.747 Q1136.26 135.794 1136.91 135.909 L1136.93 140.284 Z" fill="#000000" fill-rule="nonzero" fill-opacity="1" /><path clip-path="url(#clip870)" d="M1162.53 148.201 L1162.53 150.284 L1142.95 150.284 Q1143.23 154.682 1145.59 156.997 Q1147.97 159.289 1152.21 159.289 Q1154.66 159.289 1156.95 158.687 Q1159.27 158.085 1161.54 156.881 L1161.54 160.909 Q1159.24 161.881 1156.84 162.391 Q1154.43 162.9 1151.95 162.9 Q1145.75 162.9 1142.11 159.289 Q1138.5 155.678 1138.5 149.52 Q1138.5 143.155 1141.93 139.428 Q1145.38 135.678 1151.21 135.678 Q1156.44 135.678 1159.48 139.057 Q1162.53 142.414 1162.53 148.201 M1158.27 146.951 Q1158.23 143.456 1156.3 141.372 Q1154.41 139.289 1151.26 139.289 Q1147.69 139.289 1145.54 141.303 Q1143.41 143.317 1143.09 146.974 L1158.27 146.951 Z" fill="#000000" fill-rule="nonzero" fill-opacity="1" /><path clip-path="url(#clip870)" d="M1186.58 148.965 Q1186.58 144.335 1184.66 141.789 Q1182.76 139.243 1179.31 139.243 Q1175.89 139.243 1173.97 141.789 Q1172.07 144.335 1172.07 148.965 Q1172.07 153.571 1173.97 156.118 Q1175.89 158.664 1179.31 158.664 Q1182.76 158.664 1184.66 156.118 Q1186.58 153.571 1186.58 148.965 M1190.84 159.011 Q1190.84 165.631 1187.9 168.849 Q1184.96 172.09 1178.9 172.09 Q1176.65 172.09 1174.66 171.742 Q1172.67 171.418 1170.79 170.724 L1170.79 166.58 Q1172.67 167.599 1174.5 168.085 Q1176.33 168.571 1178.23 168.571 Q1182.42 168.571 1184.5 166.372 Q1186.58 164.196 1186.58 159.775 L1186.58 157.668 Q1185.26 159.96 1183.2 161.094 Q1181.14 162.229 1178.27 162.229 Q1173.5 162.229 1170.59 158.594 Q1167.67 154.96 1167.67 148.965 Q1167.67 142.946 1170.59 139.312 Q1173.5 135.678 1178.27 135.678 Q1181.14 135.678 1183.2 136.812 Q1185.26 137.946 1186.58 140.238 L1186.58 136.303 L1190.84 136.303 L1190.84 159.011 Z" fill="#000000" fill-rule="nonzero" fill-opacity="1" /><path clip-path="url(#clip870)" d="M1211.4 149.196 Q1206.23 149.196 1204.24 150.377 Q1202.25 151.557 1202.25 154.405 Q1202.25 156.673 1203.73 158.016 Q1205.24 159.335 1207.81 159.335 Q1211.35 159.335 1213.48 156.835 Q1215.63 154.312 1215.63 150.145 L1215.63 149.196 L1211.4 149.196 M1219.89 147.437 L1219.89 162.229 L1215.63 162.229 L1215.63 158.293 Q1214.17 160.655 1212 161.789 Q1209.82 162.9 1206.67 162.9 Q1202.69 162.9 1200.33 160.678 Q1197.99 158.432 1197.99 154.682 Q1197.99 150.307 1200.91 148.085 Q1203.85 145.863 1209.66 145.863 L1215.63 145.863 L1215.63 145.446 Q1215.63 142.507 1213.69 140.909 Q1211.77 139.289 1208.27 139.289 Q1206.05 139.289 1203.94 139.821 Q1201.84 140.354 1199.89 141.419 L1199.89 137.483 Q1202.23 136.581 1204.43 136.141 Q1206.63 135.678 1208.71 135.678 Q1214.34 135.678 1217.11 138.594 Q1219.89 141.511 1219.89 147.437 Z" fill="#000000" fill-rule="nonzero" fill-opacity="1" /><path clip-path="url(#clip870)" d="M1232.88 128.942 L1232.88 136.303 L1241.65 136.303 L1241.65 139.613 L1232.88 139.613 L1232.88 153.687 Q1232.88 156.858 1233.73 157.761 Q1234.61 158.664 1237.28 158.664 L1241.65 158.664 L1241.65 162.229 L1237.28 162.229 Q1232.35 162.229 1230.47 160.4 Q1228.6 158.548 1228.6 153.687 L1228.6 139.613 L1225.47 139.613 L1225.47 136.303 L1228.6 136.303 L1228.6 128.942 L1232.88 128.942 Z" fill="#000000" fill-rule="nonzero" fill-opacity="1" /><path clip-path="url(#clip870)" d="M1269.43 148.201 L1269.43 150.284 L1249.85 150.284 Q1250.12 154.682 1252.48 156.997 Q1254.87 159.289 1259.1 159.289 Q1261.56 159.289 1263.85 158.687 Q1266.16 158.085 1268.43 156.881 L1268.43 160.909 Q1266.14 161.881 1263.73 162.391 Q1261.33 162.9 1258.85 162.9 Q1252.65 162.9 1249.01 159.289 Q1245.4 155.678 1245.4 149.52 Q1245.4 143.155 1248.83 139.428 Q1252.28 135.678 1258.11 135.678 Q1263.34 135.678 1266.37 139.057 Q1269.43 142.414 1269.43 148.201 M1265.17 146.951 Q1265.12 143.456 1263.2 141.372 Q1261.3 139.289 1258.16 139.289 Q1254.59 139.289 1252.44 141.303 Q1250.31 143.317 1249.98 146.974 L1265.17 146.951 Z" fill="#000000" fill-rule="nonzero" fill-opacity="1" /><path clip-path="url(#clip870)" d="M1296.35 131.511 L1296.35 158.386 L1302 158.386 Q1309.15 158.386 1312.46 155.145 Q1315.79 151.905 1315.79 144.914 Q1315.79 137.969 1312.46 134.752 Q1309.15 131.511 1302 131.511 L1296.35 131.511 M1291.67 127.669 L1301.28 127.669 Q1311.33 127.669 1316.03 131.858 Q1320.72 136.025 1320.72 144.914 Q1320.72 153.849 1316 158.039 Q1311.28 162.229 1301.28 162.229 L1291.67 162.229 L1291.67 127.669 Z" fill="#000000" fill-rule="nonzero" fill-opacity="1" /><path clip-path="url(#clip870)" d="M1350.17 148.201 L1350.17 150.284 L1330.59 150.284 Q1330.86 154.682 1333.22 156.997 Q1335.61 159.289 1339.84 159.289 Q1342.3 159.289 1344.59 158.687 Q1346.91 158.085 1349.17 156.881 L1349.17 160.909 Q1346.88 161.881 1344.47 162.391 Q1342.07 162.9 1339.59 162.9 Q1333.39 162.9 1329.75 159.289 Q1326.14 155.678 1326.14 149.52 Q1326.14 143.155 1329.57 139.428 Q1333.02 135.678 1338.85 135.678 Q1344.08 135.678 1347.11 139.057 Q1350.17 142.414 1350.17 148.201 M1345.91 146.951 Q1345.86 143.456 1343.94 141.372 Q1342.04 139.289 1338.9 139.289 Q1335.33 139.289 1333.18 141.303 Q1331.05 143.317 1330.72 146.974 L1345.91 146.951 Z" fill="#000000" fill-rule="nonzero" fill-opacity="1" /><path clip-path="url(#clip870)" d="M1377.34 141.28 Q1378.94 138.409 1381.16 137.044 Q1383.39 135.678 1386.4 135.678 Q1390.45 135.678 1392.65 138.525 Q1394.84 141.349 1394.84 146.581 L1394.84 162.229 L1390.56 162.229 L1390.56 146.719 Q1390.56 142.993 1389.24 141.187 Q1387.92 139.382 1385.22 139.382 Q1381.9 139.382 1379.98 141.581 Q1378.06 143.78 1378.06 147.576 L1378.06 162.229 L1373.78 162.229 L1373.78 146.719 Q1373.78 142.969 1372.46 141.187 Q1371.14 139.382 1368.39 139.382 Q1365.12 139.382 1363.2 141.604 Q1361.28 143.803 1361.28 147.576 L1361.28 162.229 L1357 162.229 L1357 136.303 L1361.28 136.303 L1361.28 140.331 Q1362.74 137.946 1364.78 136.812 Q1366.81 135.678 1369.61 135.678 Q1372.44 135.678 1374.4 137.113 Q1376.4 138.548 1377.34 141.28 Z" fill="#000000" fill-rule="nonzero" fill-opacity="1" /><path clip-path="url(#clip870)" d="M1415.12 149.196 Q1409.96 149.196 1407.97 150.377 Q1405.98 151.557 1405.98 154.405 Q1405.98 156.673 1407.46 158.016 Q1408.96 159.335 1411.53 159.335 Q1415.08 159.335 1417.21 156.835 Q1419.36 154.312 1419.36 150.145 L1419.36 149.196 L1415.12 149.196 M1423.62 147.437 L1423.62 162.229 L1419.36 162.229 L1419.36 158.293 Q1417.9 160.655 1415.72 161.789 Q1413.55 162.9 1410.4 162.9 Q1406.42 162.9 1404.06 160.678 Q1401.72 158.432 1401.72 154.682 Q1401.72 150.307 1404.64 148.085 Q1407.58 145.863 1413.39 145.863 L1419.36 145.863 L1419.36 145.446 Q1419.36 142.507 1417.41 140.909 Q1415.49 139.289 1412 139.289 Q1409.78 139.289 1407.67 139.821 Q1405.56 140.354 1403.62 141.419 L1403.62 137.483 Q1405.96 136.581 1408.15 136.141 Q1410.35 135.678 1412.44 135.678 Q1418.06 135.678 1420.84 138.594 Q1423.62 141.511 1423.62 147.437 Z" fill="#000000" fill-rule="nonzero" fill-opacity="1" /><path clip-path="url(#clip870)" d="M1453.94 146.581 L1453.94 162.229 L1449.68 162.229 L1449.68 146.719 Q1449.68 143.039 1448.25 141.21 Q1446.81 139.382 1443.94 139.382 Q1440.49 139.382 1438.5 141.581 Q1436.51 143.78 1436.51 147.576 L1436.51 162.229 L1432.23 162.229 L1432.23 136.303 L1436.51 136.303 L1436.51 140.331 Q1438.04 137.993 1440.1 136.835 Q1442.18 135.678 1444.89 135.678 Q1449.36 135.678 1451.65 138.456 Q1453.94 141.21 1453.94 146.581 Z" fill="#000000" fill-rule="nonzero" fill-opacity="1" /><path clip-path="url(#clip870)" d="M1479.5 140.238 L1479.5 126.21 L1483.76 126.21 L1483.76 162.229 L1479.5 162.229 L1479.5 158.34 Q1478.15 160.655 1476.09 161.789 Q1474.06 162.9 1471.19 162.9 Q1466.49 162.9 1463.52 159.15 Q1460.59 155.4 1460.59 149.289 Q1460.59 143.178 1463.52 139.428 Q1466.49 135.678 1471.19 135.678 Q1474.06 135.678 1476.09 136.812 Q1478.15 137.923 1479.5 140.238 M1464.98 149.289 Q1464.98 153.988 1466.9 156.673 Q1468.85 159.335 1472.23 159.335 Q1475.61 159.335 1477.55 156.673 Q1479.5 153.988 1479.5 149.289 Q1479.5 144.59 1477.55 141.928 Q1475.61 139.243 1472.23 139.243 Q1468.85 139.243 1466.9 141.928 Q1464.98 144.59 1464.98 149.289 Z" fill="#000000" fill-rule="nonzero" fill-opacity="1" /><path clip-path="url(#clip870)" d="M1517.83 126.257 Q1514.73 131.581 1513.22 136.789 Q1511.72 141.997 1511.72 147.344 Q1511.72 152.692 1513.22 157.946 Q1514.75 163.178 1517.83 168.479 L1514.13 168.479 Q1510.65 163.039 1508.92 157.784 Q1507.21 152.53 1507.21 147.344 Q1507.21 142.182 1508.92 136.951 Q1510.63 131.72 1514.13 126.257 L1517.83 126.257 Z" fill="#000000" fill-rule="nonzero" fill-opacity="1" /><path clip-path="url(#clip870)" d="M1552.16 130.331 L1552.16 135.261 Q1549.8 133.062 1547.11 131.974 Q1544.45 130.886 1541.44 130.886 Q1535.52 130.886 1532.37 134.52 Q1529.22 138.132 1529.22 144.983 Q1529.22 151.812 1532.37 155.446 Q1535.52 159.057 1541.44 159.057 Q1544.45 159.057 1547.11 157.969 Q1549.8 156.881 1552.16 154.682 L1552.16 159.567 Q1549.7 161.233 1546.95 162.067 Q1544.22 162.9 1541.16 162.9 Q1533.32 162.9 1528.8 158.108 Q1524.29 153.293 1524.29 144.983 Q1524.29 136.65 1528.8 131.858 Q1533.32 127.044 1541.16 127.044 Q1544.27 127.044 1547 127.877 Q1549.75 128.687 1552.16 130.331 Z" fill="#000000" fill-rule="nonzero" fill-opacity="1" /><path clip-path="url(#clip870)" d="M1569.24 139.289 Q1565.82 139.289 1563.83 141.974 Q1561.83 144.636 1561.83 149.289 Q1561.83 153.942 1563.8 156.627 Q1565.79 159.289 1569.24 159.289 Q1572.64 159.289 1574.64 156.604 Q1576.63 153.918 1576.63 149.289 Q1576.63 144.682 1574.64 141.997 Q1572.64 139.289 1569.24 139.289 M1569.24 135.678 Q1574.8 135.678 1577.97 139.289 Q1581.14 142.9 1581.14 149.289 Q1581.14 155.655 1577.97 159.289 Q1574.8 162.9 1569.24 162.9 Q1563.66 162.9 1560.49 159.289 Q1557.34 155.655 1557.34 149.289 Q1557.34 142.9 1560.49 139.289 Q1563.66 135.678 1569.24 135.678 Z" fill="#000000" fill-rule="nonzero" fill-opacity="1" /><path clip-path="url(#clip870)" d="M1609.75 146.581 L1609.75 162.229 L1605.49 162.229 L1605.49 146.719 Q1605.49 143.039 1604.06 141.21 Q1602.62 139.382 1599.75 139.382 Q1596.3 139.382 1594.31 141.581 Q1592.32 143.78 1592.32 147.576 L1592.32 162.229 L1588.04 162.229 L1588.04 136.303 L1592.32 136.303 L1592.32 140.331 Q1593.85 137.993 1595.91 136.835 Q1597.99 135.678 1600.7 135.678 Q1605.17 135.678 1607.46 138.456 Q1609.75 141.21 1609.75 146.581 Z" fill="#000000" fill-rule="nonzero" fill-opacity="1" /><path clip-path="url(#clip870)" d="M1622.46 128.942 L1622.46 136.303 L1631.23 136.303 L1631.23 139.613 L1622.46 139.613 L1622.46 153.687 Q1622.46 156.858 1623.32 157.761 Q1624.2 158.664 1626.86 158.664 L1631.23 158.664 L1631.23 162.229 L1626.86 162.229 Q1621.93 162.229 1620.05 160.4 Q1618.18 158.548 1618.18 153.687 L1618.18 139.613 L1615.05 139.613 L1615.05 136.303 L1618.18 136.303 L1618.18 128.942 L1622.46 128.942 Z" fill="#000000" fill-rule="nonzero" fill-opacity="1" /><path clip-path="url(#clip870)" d="M1651.86 140.284 Q1651.14 139.868 1650.28 139.682 Q1649.45 139.474 1648.43 139.474 Q1644.82 139.474 1642.88 141.835 Q1640.95 144.173 1640.95 148.571 L1640.95 162.229 L1636.67 162.229 L1636.67 136.303 L1640.95 136.303 L1640.95 140.331 Q1642.3 137.969 1644.45 136.835 Q1646.6 135.678 1649.68 135.678 Q1650.12 135.678 1650.65 135.747 Q1651.19 135.794 1651.83 135.909 L1651.86 140.284 Z" fill="#000000" fill-rule="nonzero" fill-opacity="1" /><path clip-path="url(#clip870)" d="M1665.33 139.289 Q1661.9 139.289 1659.91 141.974 Q1657.92 144.636 1657.92 149.289 Q1657.92 153.942 1659.89 156.627 Q1661.88 159.289 1665.33 159.289 Q1668.73 159.289 1670.72 156.604 Q1672.71 153.918 1672.71 149.289 Q1672.71 144.682 1670.72 141.997 Q1668.73 139.289 1665.33 139.289 M1665.33 135.678 Q1670.88 135.678 1674.06 139.289 Q1677.23 142.9 1677.23 149.289 Q1677.23 155.655 1674.06 159.289 Q1670.88 162.9 1665.33 162.9 Q1659.75 162.9 1656.58 159.289 Q1653.43 155.655 1653.43 149.289 Q1653.43 142.9 1656.58 139.289 Q1659.75 135.678 1665.33 135.678 Z" fill="#000000" fill-rule="nonzero" fill-opacity="1" /><path clip-path="url(#clip870)" d="M1684.29 126.21 L1688.55 126.21 L1688.55 162.229 L1684.29 162.229 L1684.29 126.21 Z" fill="#000000" fill-rule="nonzero" fill-opacity="1" /><path clip-path="url(#clip870)" d="M1696.79 126.257 L1700.49 126.257 Q1703.96 131.72 1705.68 136.951 Q1707.41 142.182 1707.41 147.344 Q1707.41 152.53 1705.68 157.784 Q1703.96 163.039 1700.49 168.479 L1696.79 168.479 Q1699.87 163.178 1701.37 157.946 Q1702.9 152.692 1702.9 147.344 Q1702.9 141.997 1701.37 136.789 Q1699.87 131.581 1696.79 126.257 Z" fill="#000000" fill-rule="nonzero" fill-opacity="1" /><polyline clip-path="url(#clip870)" style="stroke:#e26f46; stroke-linecap:round; stroke-linejoin:round; stroke-width:8; stroke-opacity:1; fill:none" points="859.238,196.789 1001.49,196.789 "/>
<path clip-path="url(#clip870)" d="M1041.03 184.115 L1034.68 201.314 L1047.39 201.314 L1041.03 184.115 M1038.39 179.509 L1043.69 179.509 L1056.86 214.069 L1052 214.069 L1048.85 205.203 L1033.27 205.203 L1030.12 214.069 L1025.19 214.069 L1038.39 179.509 Z" fill="#000000" fill-rule="nonzero" fill-opacity="1" /><path clip-path="url(#clip870)" d="M1078.78 200.805 Q1078.78 196.175 1076.86 193.629 Q1074.96 191.083 1071.51 191.083 Q1068.09 191.083 1066.17 193.629 Q1064.27 196.175 1064.27 200.805 Q1064.27 205.411 1066.17 207.958 Q1068.09 210.504 1071.51 210.504 Q1074.96 210.504 1076.86 207.958 Q1078.78 205.411 1078.78 200.805 M1083.04 210.851 Q1083.04 217.471 1080.1 220.689 Q1077.16 223.93 1071.1 223.93 Q1068.85 223.93 1066.86 223.582 Q1064.87 223.258 1062.99 222.564 L1062.99 218.42 Q1064.87 219.439 1066.7 219.925 Q1068.53 220.411 1070.43 220.411 Q1074.61 220.411 1076.7 218.212 Q1078.78 216.036 1078.78 211.615 L1078.78 209.508 Q1077.46 211.8 1075.4 212.934 Q1073.34 214.069 1070.47 214.069 Q1065.7 214.069 1062.79 210.434 Q1059.87 206.8 1059.87 200.805 Q1059.87 194.786 1062.79 191.152 Q1065.7 187.518 1070.47 187.518 Q1073.34 187.518 1075.4 188.652 Q1077.46 189.786 1078.78 192.078 L1078.78 188.143 L1083.04 188.143 L1083.04 210.851 Z" fill="#000000" fill-rule="nonzero" fill-opacity="1" /><path clip-path="url(#clip870)" d="M1108.87 200.805 Q1108.87 196.175 1106.95 193.629 Q1105.05 191.083 1101.61 191.083 Q1098.18 191.083 1096.26 193.629 Q1094.36 196.175 1094.36 200.805 Q1094.36 205.411 1096.26 207.958 Q1098.18 210.504 1101.61 210.504 Q1105.05 210.504 1106.95 207.958 Q1108.87 205.411 1108.87 200.805 M1113.13 210.851 Q1113.13 217.471 1110.19 220.689 Q1107.25 223.93 1101.19 223.93 Q1098.94 223.93 1096.95 223.582 Q1094.96 223.258 1093.09 222.564 L1093.09 218.42 Q1094.96 219.439 1096.79 219.925 Q1098.62 220.411 1100.52 220.411 Q1104.71 220.411 1106.79 218.212 Q1108.87 216.036 1108.87 211.615 L1108.87 209.508 Q1107.55 211.8 1105.49 212.934 Q1103.43 214.069 1100.56 214.069 Q1095.8 214.069 1092.88 210.434 Q1089.96 206.8 1089.96 200.805 Q1089.96 194.786 1092.88 191.152 Q1095.8 187.518 1100.56 187.518 Q1103.43 187.518 1105.49 188.652 Q1107.55 189.786 1108.87 192.078 L1108.87 188.143 L1113.13 188.143 L1113.13 210.851 Z" fill="#000000" fill-rule="nonzero" fill-opacity="1" /><path clip-path="url(#clip870)" d="M1136.93 192.124 Q1136.21 191.708 1135.36 191.522 Q1134.52 191.314 1133.5 191.314 Q1129.89 191.314 1127.95 193.675 Q1126.03 196.013 1126.03 200.411 L1126.03 214.069 L1121.74 214.069 L1121.74 188.143 L1126.03 188.143 L1126.03 192.171 Q1127.37 189.809 1129.52 188.675 Q1131.67 187.518 1134.75 187.518 Q1135.19 187.518 1135.73 187.587 Q1136.26 187.634 1136.91 187.749 L1136.93 192.124 Z" fill="#000000" fill-rule="nonzero" fill-opacity="1" /><path clip-path="url(#clip870)" d="M1162.53 200.041 L1162.53 202.124 L1142.95 202.124 Q1143.23 206.522 1145.59 208.837 Q1147.97 211.129 1152.21 211.129 Q1154.66 211.129 1156.95 210.527 Q1159.27 209.925 1161.54 208.721 L1161.54 212.749 Q1159.24 213.721 1156.84 214.231 Q1154.43 214.74 1151.95 214.74 Q1145.75 214.74 1142.11 211.129 Q1138.5 207.518 1138.5 201.36 Q1138.5 194.995 1141.93 191.268 Q1145.38 187.518 1151.21 187.518 Q1156.44 187.518 1159.48 190.897 Q1162.53 194.254 1162.53 200.041 M1158.27 198.791 Q1158.23 195.296 1156.3 193.212 Q1154.41 191.129 1151.26 191.129 Q1147.69 191.129 1145.54 193.143 Q1143.41 195.157 1143.09 198.814 L1158.27 198.791 Z" fill="#000000" fill-rule="nonzero" fill-opacity="1" /><path clip-path="url(#clip870)" d="M1186.58 200.805 Q1186.58 196.175 1184.66 193.629 Q1182.76 191.083 1179.31 191.083 Q1175.89 191.083 1173.97 193.629 Q1172.07 196.175 1172.07 200.805 Q1172.07 205.411 1173.97 207.958 Q1175.89 210.504 1179.31 210.504 Q1182.76 210.504 1184.66 207.958 Q1186.58 205.411 1186.58 200.805 M1190.84 210.851 Q1190.84 217.471 1187.9 220.689 Q1184.96 223.93 1178.9 223.93 Q1176.65 223.93 1174.66 223.582 Q1172.67 223.258 1170.79 222.564 L1170.79 218.42 Q1172.67 219.439 1174.5 219.925 Q1176.33 220.411 1178.23 220.411 Q1182.42 220.411 1184.5 218.212 Q1186.58 216.036 1186.58 211.615 L1186.58 209.508 Q1185.26 211.8 1183.2 212.934 Q1181.14 214.069 1178.27 214.069 Q1173.5 214.069 1170.59 210.434 Q1167.67 206.8 1167.67 200.805 Q1167.67 194.786 1170.59 191.152 Q1173.5 187.518 1178.27 187.518 Q1181.14 187.518 1183.2 188.652 Q1185.26 189.786 1186.58 192.078 L1186.58 188.143 L1190.84 188.143 L1190.84 210.851 Z" fill="#000000" fill-rule="nonzero" fill-opacity="1" /><path clip-path="url(#clip870)" d="M1211.4 201.036 Q1206.23 201.036 1204.24 202.217 Q1202.25 203.397 1202.25 206.245 Q1202.25 208.513 1203.73 209.856 Q1205.24 211.175 1207.81 211.175 Q1211.35 211.175 1213.48 208.675 Q1215.63 206.152 1215.63 201.985 L1215.63 201.036 L1211.4 201.036 M1219.89 199.277 L1219.89 214.069 L1215.63 214.069 L1215.63 210.133 Q1214.17 212.495 1212 213.629 Q1209.82 214.74 1206.67 214.74 Q1202.69 214.74 1200.33 212.518 Q1197.99 210.272 1197.99 206.522 Q1197.99 202.147 1200.91 199.925 Q1203.85 197.703 1209.66 197.703 L1215.63 197.703 L1215.63 197.286 Q1215.63 194.347 1213.69 192.749 Q1211.77 191.129 1208.27 191.129 Q1206.05 191.129 1203.94 191.661 Q1201.84 192.194 1199.89 193.259 L1199.89 189.323 Q1202.23 188.421 1204.43 187.981 Q1206.63 187.518 1208.71 187.518 Q1214.34 187.518 1217.11 190.434 Q1219.89 193.351 1219.89 199.277 Z" fill="#000000" fill-rule="nonzero" fill-opacity="1" /><path clip-path="url(#clip870)" d="M1232.88 180.782 L1232.88 188.143 L1241.65 188.143 L1241.65 191.453 L1232.88 191.453 L1232.88 205.527 Q1232.88 208.698 1233.73 209.601 Q1234.61 210.504 1237.28 210.504 L1241.65 210.504 L1241.65 214.069 L1237.28 214.069 Q1232.35 214.069 1230.47 212.24 Q1228.6 210.388 1228.6 205.527 L1228.6 191.453 L1225.47 191.453 L1225.47 188.143 L1228.6 188.143 L1228.6 180.782 L1232.88 180.782 Z" fill="#000000" fill-rule="nonzero" fill-opacity="1" /><path clip-path="url(#clip870)" d="M1269.43 200.041 L1269.43 202.124 L1249.85 202.124 Q1250.12 206.522 1252.48 208.837 Q1254.87 211.129 1259.1 211.129 Q1261.56 211.129 1263.85 210.527 Q1266.16 209.925 1268.43 208.721 L1268.43 212.749 Q1266.14 213.721 1263.73 214.231 Q1261.33 214.74 1258.85 214.74 Q1252.65 214.74 1249.01 211.129 Q1245.4 207.518 1245.4 201.36 Q1245.4 194.995 1248.83 191.268 Q1252.28 187.518 1258.11 187.518 Q1263.34 187.518 1266.37 190.897 Q1269.43 194.254 1269.43 200.041 M1265.17 198.791 Q1265.12 195.296 1263.2 193.212 Q1261.3 191.129 1258.16 191.129 Q1254.59 191.129 1252.44 193.143 Q1250.31 195.157 1249.98 198.814 L1265.17 198.791 Z" fill="#000000" fill-rule="nonzero" fill-opacity="1" /><path clip-path="url(#clip870)" d="M1296.35 183.351 L1296.35 210.226 L1302 210.226 Q1309.15 210.226 1312.46 206.985 Q1315.79 203.745 1315.79 196.754 Q1315.79 189.809 1312.46 186.592 Q1309.15 183.351 1302 183.351 L1296.35 183.351 M1291.67 179.509 L1301.28 179.509 Q1311.33 179.509 1316.03 183.698 Q1320.72 187.865 1320.72 196.754 Q1320.72 205.689 1316 209.879 Q1311.28 214.069 1301.28 214.069 L1291.67 214.069 L1291.67 179.509 Z" fill="#000000" fill-rule="nonzero" fill-opacity="1" /><path clip-path="url(#clip870)" d="M1350.17 200.041 L1350.17 202.124 L1330.59 202.124 Q1330.86 206.522 1333.22 208.837 Q1335.61 211.129 1339.84 211.129 Q1342.3 211.129 1344.59 210.527 Q1346.91 209.925 1349.17 208.721 L1349.17 212.749 Q1346.88 213.721 1344.47 214.231 Q1342.07 214.74 1339.59 214.74 Q1333.39 214.74 1329.75 211.129 Q1326.14 207.518 1326.14 201.36 Q1326.14 194.995 1329.57 191.268 Q1333.02 187.518 1338.85 187.518 Q1344.08 187.518 1347.11 190.897 Q1350.17 194.254 1350.17 200.041 M1345.91 198.791 Q1345.86 195.296 1343.94 193.212 Q1342.04 191.129 1338.9 191.129 Q1335.33 191.129 1333.18 193.143 Q1331.05 195.157 1330.72 198.814 L1345.91 198.791 Z" fill="#000000" fill-rule="nonzero" fill-opacity="1" /><path clip-path="url(#clip870)" d="M1377.34 193.12 Q1378.94 190.249 1381.16 188.884 Q1383.39 187.518 1386.4 187.518 Q1390.45 187.518 1392.65 190.365 Q1394.84 193.189 1394.84 198.421 L1394.84 214.069 L1390.56 214.069 L1390.56 198.559 Q1390.56 194.833 1389.24 193.027 Q1387.92 191.222 1385.22 191.222 Q1381.9 191.222 1379.98 193.421 Q1378.06 195.62 1378.06 199.416 L1378.06 214.069 L1373.78 214.069 L1373.78 198.559 Q1373.78 194.809 1372.46 193.027 Q1371.14 191.222 1368.39 191.222 Q1365.12 191.222 1363.2 193.444 Q1361.28 195.643 1361.28 199.416 L1361.28 214.069 L1357 214.069 L1357 188.143 L1361.28 188.143 L1361.28 192.171 Q1362.74 189.786 1364.78 188.652 Q1366.81 187.518 1369.61 187.518 Q1372.44 187.518 1374.4 188.953 Q1376.4 190.388 1377.34 193.12 Z" fill="#000000" fill-rule="nonzero" fill-opacity="1" /><path clip-path="url(#clip870)" d="M1415.12 201.036 Q1409.96 201.036 1407.97 202.217 Q1405.98 203.397 1405.98 206.245 Q1405.98 208.513 1407.46 209.856 Q1408.96 211.175 1411.53 211.175 Q1415.08 211.175 1417.21 208.675 Q1419.36 206.152 1419.36 201.985 L1419.36 201.036 L1415.12 201.036 M1423.62 199.277 L1423.62 214.069 L1419.36 214.069 L1419.36 210.133 Q1417.9 212.495 1415.72 213.629 Q1413.55 214.74 1410.4 214.74 Q1406.42 214.74 1404.06 212.518 Q1401.72 210.272 1401.72 206.522 Q1401.72 202.147 1404.64 199.925 Q1407.58 197.703 1413.39 197.703 L1419.36 197.703 L1419.36 197.286 Q1419.36 194.347 1417.41 192.749 Q1415.49 191.129 1412 191.129 Q1409.78 191.129 1407.67 191.661 Q1405.56 192.194 1403.62 193.259 L1403.62 189.323 Q1405.96 188.421 1408.15 187.981 Q1410.35 187.518 1412.44 187.518 Q1418.06 187.518 1420.84 190.434 Q1423.62 193.351 1423.62 199.277 Z" fill="#000000" fill-rule="nonzero" fill-opacity="1" /><path clip-path="url(#clip870)" d="M1453.94 198.421 L1453.94 214.069 L1449.68 214.069 L1449.68 198.559 Q1449.68 194.879 1448.25 193.05 Q1446.81 191.222 1443.94 191.222 Q1440.49 191.222 1438.5 193.421 Q1436.51 195.62 1436.51 199.416 L1436.51 214.069 L1432.23 214.069 L1432.23 188.143 L1436.51 188.143 L1436.51 192.171 Q1438.04 189.833 1440.1 188.675 Q1442.18 187.518 1444.89 187.518 Q1449.36 187.518 1451.65 190.296 Q1453.94 193.05 1453.94 198.421 Z" fill="#000000" fill-rule="nonzero" fill-opacity="1" /><path clip-path="url(#clip870)" d="M1479.5 192.078 L1479.5 178.05 L1483.76 178.05 L1483.76 214.069 L1479.5 214.069 L1479.5 210.18 Q1478.15 212.495 1476.09 213.629 Q1474.06 214.74 1471.19 214.74 Q1466.49 214.74 1463.52 210.99 Q1460.59 207.24 1460.59 201.129 Q1460.59 195.018 1463.52 191.268 Q1466.49 187.518 1471.19 187.518 Q1474.06 187.518 1476.09 188.652 Q1478.15 189.763 1479.5 192.078 M1464.98 201.129 Q1464.98 205.828 1466.9 208.513 Q1468.85 211.175 1472.23 211.175 Q1475.61 211.175 1477.55 208.513 Q1479.5 205.828 1479.5 201.129 Q1479.5 196.43 1477.55 193.768 Q1475.61 191.083 1472.23 191.083 Q1468.85 191.083 1466.9 193.768 Q1464.98 196.43 1464.98 201.129 Z" fill="#000000" fill-rule="nonzero" fill-opacity="1" /><path clip-path="url(#clip870)" d="M1517.83 178.097 Q1514.73 183.421 1513.22 188.629 Q1511.72 193.837 1511.72 199.184 Q1511.72 204.532 1513.22 209.786 Q1514.75 215.018 1517.83 220.319 L1514.13 220.319 Q1510.65 214.879 1508.92 209.624 Q1507.21 204.37 1507.21 199.184 Q1507.21 194.022 1508.92 188.791 Q1510.63 183.56 1514.13 178.097 L1517.83 178.097 Z" fill="#000000" fill-rule="nonzero" fill-opacity="1" /><path clip-path="url(#clip870)" d="M1521.49 179.509 L1550.72 179.509 L1550.72 183.444 L1538.45 183.444 L1538.45 214.069 L1533.76 214.069 L1533.76 183.444 L1521.49 183.444 L1521.49 179.509 Z" fill="#000000" fill-rule="nonzero" fill-opacity="1" /><path clip-path="url(#clip870)" d="M1563.11 192.124 Q1562.39 191.708 1561.53 191.522 Q1560.7 191.314 1559.68 191.314 Q1556.07 191.314 1554.13 193.675 Q1552.2 196.013 1552.2 200.411 L1552.2 214.069 L1547.92 214.069 L1547.92 188.143 L1552.2 188.143 L1552.2 192.171 Q1553.55 189.809 1555.7 188.675 Q1557.85 187.518 1560.93 187.518 Q1561.37 187.518 1561.9 187.587 Q1562.44 187.634 1563.08 187.749 L1563.11 192.124 Z" fill="#000000" fill-rule="nonzero" fill-opacity="1" /><path clip-path="url(#clip870)" d="M1588.71 200.041 L1588.71 202.124 L1569.13 202.124 Q1569.4 206.522 1571.76 208.837 Q1574.15 211.129 1578.39 211.129 Q1580.84 211.129 1583.13 210.527 Q1585.45 209.925 1587.71 208.721 L1587.71 212.749 Q1585.42 213.721 1583.01 214.231 Q1580.61 214.74 1578.13 214.74 Q1571.93 214.74 1568.29 211.129 Q1564.68 207.518 1564.68 201.36 Q1564.68 194.995 1568.11 191.268 Q1571.56 187.518 1577.39 187.518 Q1582.62 187.518 1585.65 190.897 Q1588.71 194.254 1588.71 200.041 M1584.45 198.791 Q1584.4 195.296 1582.48 193.212 Q1580.58 191.129 1577.44 191.129 Q1573.87 191.129 1571.72 193.143 Q1569.59 195.157 1569.26 198.814 L1584.45 198.791 Z" fill="#000000" fill-rule="nonzero" fill-opacity="1" /><path clip-path="url(#clip870)" d="M1607.48 201.036 Q1602.32 201.036 1600.33 202.217 Q1598.34 203.397 1598.34 206.245 Q1598.34 208.513 1599.82 209.856 Q1601.32 211.175 1603.89 211.175 Q1607.44 211.175 1609.57 208.675 Q1611.72 206.152 1611.72 201.985 L1611.72 201.036 L1607.48 201.036 M1615.98 199.277 L1615.98 214.069 L1611.72 214.069 L1611.72 210.133 Q1610.26 212.495 1608.08 213.629 Q1605.91 214.74 1602.76 214.74 Q1598.78 214.74 1596.42 212.518 Q1594.08 210.272 1594.08 206.522 Q1594.08 202.147 1597 199.925 Q1599.94 197.703 1605.75 197.703 L1611.72 197.703 L1611.72 197.286 Q1611.72 194.347 1609.77 192.749 Q1607.85 191.129 1604.36 191.129 Q1602.14 191.129 1600.03 191.661 Q1597.92 192.194 1595.98 193.259 L1595.98 189.323 Q1598.32 188.421 1600.51 187.981 Q1602.71 187.518 1604.8 187.518 Q1610.42 187.518 1613.2 190.434 Q1615.98 193.351 1615.98 199.277 Z" fill="#000000" fill-rule="nonzero" fill-opacity="1" /><path clip-path="url(#clip870)" d="M1628.96 180.782 L1628.96 188.143 L1637.74 188.143 L1637.74 191.453 L1628.96 191.453 L1628.96 205.527 Q1628.96 208.698 1629.82 209.601 Q1630.7 210.504 1633.36 210.504 L1637.74 210.504 L1637.74 214.069 L1633.36 214.069 Q1628.43 214.069 1626.56 212.24 Q1624.68 210.388 1624.68 205.527 L1624.68 191.453 L1621.56 191.453 L1621.56 188.143 L1624.68 188.143 L1624.68 180.782 L1628.96 180.782 Z" fill="#000000" fill-rule="nonzero" fill-opacity="1" /><path clip-path="url(#clip870)" d="M1665.51 200.041 L1665.51 202.124 L1645.93 202.124 Q1646.21 206.522 1648.57 208.837 Q1650.95 211.129 1655.19 211.129 Q1657.64 211.129 1659.94 210.527 Q1662.25 209.925 1664.52 208.721 L1664.52 212.749 Q1662.23 213.721 1659.82 214.231 Q1657.41 214.74 1654.94 214.74 Q1648.73 214.74 1645.1 211.129 Q1641.49 207.518 1641.49 201.36 Q1641.49 194.995 1644.91 191.268 Q1648.36 187.518 1654.2 187.518 Q1659.43 187.518 1662.46 190.897 Q1665.51 194.254 1665.51 200.041 M1661.26 198.791 Q1661.21 195.296 1659.29 193.212 Q1657.39 191.129 1654.24 191.129 Q1650.68 191.129 1648.52 193.143 Q1646.39 195.157 1646.07 198.814 L1661.26 198.791 Z" fill="#000000" fill-rule="nonzero" fill-opacity="1" /><path clip-path="url(#clip870)" d="M1689.57 192.078 L1689.57 178.05 L1693.82 178.05 L1693.82 214.069 L1689.57 214.069 L1689.57 210.18 Q1688.22 212.495 1686.16 213.629 Q1684.13 214.74 1681.26 214.74 Q1676.56 214.74 1673.59 210.99 Q1670.65 207.24 1670.65 201.129 Q1670.65 195.018 1673.59 191.268 Q1676.56 187.518 1681.26 187.518 Q1684.13 187.518 1686.16 188.652 Q1688.22 189.763 1689.57 192.078 M1675.05 201.129 Q1675.05 205.828 1676.97 208.513 Q1678.92 211.175 1682.3 211.175 Q1685.68 211.175 1687.62 208.513 Q1689.57 205.828 1689.57 201.129 Q1689.57 196.43 1687.62 193.768 Q1685.68 191.083 1682.3 191.083 Q1678.92 191.083 1676.97 193.768 Q1675.05 196.43 1675.05 201.129 Z" fill="#000000" fill-rule="nonzero" fill-opacity="1" /><path clip-path="url(#clip870)" d="M1701.93 178.097 L1705.63 178.097 Q1709.1 183.56 1710.82 188.791 Q1712.55 194.022 1712.55 199.184 Q1712.55 204.37 1710.82 209.624 Q1709.1 214.879 1705.63 220.319 L1701.93 220.319 Q1705 215.018 1706.51 209.786 Q1708.04 204.532 1708.04 199.184 Q1708.04 193.837 1706.51 188.629 Q1705 183.421 1701.93 178.097 Z" fill="#000000" fill-rule="nonzero" fill-opacity="1" /><polyline clip-path="url(#clip870)" style="stroke:#3da44d; stroke-linecap:round; stroke-linejoin:round; stroke-width:8; stroke-opacity:1; fill:none" points="859.238,248.629 1001.49,248.629 "/>
<path clip-path="url(#clip870)" d="M1041.03 235.955 L1034.68 253.154 L1047.39 253.154 L1041.03 235.955 M1038.39 231.349 L1043.69 231.349 L1056.86 265.909 L1052 265.909 L1048.85 257.043 L1033.27 257.043 L1030.12 265.909 L1025.19 265.909 L1038.39 231.349 Z" fill="#000000" fill-rule="nonzero" fill-opacity="1" /><path clip-path="url(#clip870)" d="M1078.78 252.645 Q1078.78 248.015 1076.86 245.469 Q1074.96 242.923 1071.51 242.923 Q1068.09 242.923 1066.17 245.469 Q1064.27 248.015 1064.27 252.645 Q1064.27 257.251 1066.17 259.798 Q1068.09 262.344 1071.51 262.344 Q1074.96 262.344 1076.86 259.798 Q1078.78 257.251 1078.78 252.645 M1083.04 262.691 Q1083.04 269.311 1080.1 272.529 Q1077.16 275.77 1071.1 275.77 Q1068.85 275.77 1066.86 275.422 Q1064.87 275.098 1062.99 274.404 L1062.99 270.26 Q1064.87 271.279 1066.7 271.765 Q1068.53 272.251 1070.43 272.251 Q1074.61 272.251 1076.7 270.052 Q1078.78 267.876 1078.78 263.455 L1078.78 261.348 Q1077.46 263.64 1075.4 264.774 Q1073.34 265.909 1070.47 265.909 Q1065.7 265.909 1062.79 262.274 Q1059.87 258.64 1059.87 252.645 Q1059.87 246.626 1062.79 242.992 Q1065.7 239.358 1070.47 239.358 Q1073.34 239.358 1075.4 240.492 Q1077.46 241.626 1078.78 243.918 L1078.78 239.983 L1083.04 239.983 L1083.04 262.691 Z" fill="#000000" fill-rule="nonzero" fill-opacity="1" /><path clip-path="url(#clip870)" d="M1108.87 252.645 Q1108.87 248.015 1106.95 245.469 Q1105.05 242.923 1101.61 242.923 Q1098.18 242.923 1096.26 245.469 Q1094.36 248.015 1094.36 252.645 Q1094.36 257.251 1096.26 259.798 Q1098.18 262.344 1101.61 262.344 Q1105.05 262.344 1106.95 259.798 Q1108.87 257.251 1108.87 252.645 M1113.13 262.691 Q1113.13 269.311 1110.19 272.529 Q1107.25 275.77 1101.19 275.77 Q1098.94 275.77 1096.95 275.422 Q1094.96 275.098 1093.09 274.404 L1093.09 270.26 Q1094.96 271.279 1096.79 271.765 Q1098.62 272.251 1100.52 272.251 Q1104.71 272.251 1106.79 270.052 Q1108.87 267.876 1108.87 263.455 L1108.87 261.348 Q1107.55 263.64 1105.49 264.774 Q1103.43 265.909 1100.56 265.909 Q1095.8 265.909 1092.88 262.274 Q1089.96 258.64 1089.96 252.645 Q1089.96 246.626 1092.88 242.992 Q1095.8 239.358 1100.56 239.358 Q1103.43 239.358 1105.49 240.492 Q1107.55 241.626 1108.87 243.918 L1108.87 239.983 L1113.13 239.983 L1113.13 262.691 Z" fill="#000000" fill-rule="nonzero" fill-opacity="1" /><path clip-path="url(#clip870)" d="M1136.93 243.964 Q1136.21 243.548 1135.36 243.362 Q1134.52 243.154 1133.5 243.154 Q1129.89 243.154 1127.95 245.515 Q1126.03 247.853 1126.03 252.251 L1126.03 265.909 L1121.74 265.909 L1121.74 239.983 L1126.03 239.983 L1126.03 244.011 Q1127.37 241.649 1129.52 240.515 Q1131.67 239.358 1134.75 239.358 Q1135.19 239.358 1135.73 239.427 Q1136.26 239.474 1136.91 239.589 L1136.93 243.964 Z" fill="#000000" fill-rule="nonzero" fill-opacity="1" /><path clip-path="url(#clip870)" d="M1162.53 251.881 L1162.53 253.964 L1142.95 253.964 Q1143.23 258.362 1145.59 260.677 Q1147.97 262.969 1152.21 262.969 Q1154.66 262.969 1156.95 262.367 Q1159.27 261.765 1161.54 260.561 L1161.54 264.589 Q1159.24 265.561 1156.84 266.071 Q1154.43 266.58 1151.95 266.58 Q1145.75 266.58 1142.11 262.969 Q1138.5 259.358 1138.5 253.2 Q1138.5 246.835 1141.93 243.108 Q1145.38 239.358 1151.21 239.358 Q1156.44 239.358 1159.48 242.737 Q1162.53 246.094 1162.53 251.881 M1158.27 250.631 Q1158.23 247.136 1156.3 245.052 Q1154.41 242.969 1151.26 242.969 Q1147.69 242.969 1145.54 244.983 Q1143.41 246.997 1143.09 250.654 L1158.27 250.631 Z" fill="#000000" fill-rule="nonzero" fill-opacity="1" /><path clip-path="url(#clip870)" d="M1186.58 252.645 Q1186.58 248.015 1184.66 245.469 Q1182.76 242.923 1179.31 242.923 Q1175.89 242.923 1173.97 245.469 Q1172.07 248.015 1172.07 252.645 Q1172.07 257.251 1173.97 259.798 Q1175.89 262.344 1179.31 262.344 Q1182.76 262.344 1184.66 259.798 Q1186.58 257.251 1186.58 252.645 M1190.84 262.691 Q1190.84 269.311 1187.9 272.529 Q1184.96 275.77 1178.9 275.77 Q1176.65 275.77 1174.66 275.422 Q1172.67 275.098 1170.79 274.404 L1170.79 270.26 Q1172.67 271.279 1174.5 271.765 Q1176.33 272.251 1178.23 272.251 Q1182.42 272.251 1184.5 270.052 Q1186.58 267.876 1186.58 263.455 L1186.58 261.348 Q1185.26 263.64 1183.2 264.774 Q1181.14 265.909 1178.27 265.909 Q1173.5 265.909 1170.59 262.274 Q1167.67 258.64 1167.67 252.645 Q1167.67 246.626 1170.59 242.992 Q1173.5 239.358 1178.27 239.358 Q1181.14 239.358 1183.2 240.492 Q1185.26 241.626 1186.58 243.918 L1186.58 239.983 L1190.84 239.983 L1190.84 262.691 Z" fill="#000000" fill-rule="nonzero" fill-opacity="1" /><path clip-path="url(#clip870)" d="M1211.4 252.876 Q1206.23 252.876 1204.24 254.057 Q1202.25 255.237 1202.25 258.085 Q1202.25 260.353 1203.73 261.696 Q1205.24 263.015 1207.81 263.015 Q1211.35 263.015 1213.48 260.515 Q1215.63 257.992 1215.63 253.825 L1215.63 252.876 L1211.4 252.876 M1219.89 251.117 L1219.89 265.909 L1215.63 265.909 L1215.63 261.973 Q1214.17 264.335 1212 265.469 Q1209.82 266.58 1206.67 266.58 Q1202.69 266.58 1200.33 264.358 Q1197.99 262.112 1197.99 258.362 Q1197.99 253.987 1200.91 251.765 Q1203.85 249.543 1209.66 249.543 L1215.63 249.543 L1215.63 249.126 Q1215.63 246.187 1213.69 244.589 Q1211.77 242.969 1208.27 242.969 Q1206.05 242.969 1203.94 243.501 Q1201.84 244.034 1199.89 245.099 L1199.89 241.163 Q1202.23 240.261 1204.43 239.821 Q1206.63 239.358 1208.71 239.358 Q1214.34 239.358 1217.11 242.274 Q1219.89 245.191 1219.89 251.117 Z" fill="#000000" fill-rule="nonzero" fill-opacity="1" /><path clip-path="url(#clip870)" d="M1232.88 232.622 L1232.88 239.983 L1241.65 239.983 L1241.65 243.293 L1232.88 243.293 L1232.88 257.367 Q1232.88 260.538 1233.73 261.441 Q1234.61 262.344 1237.28 262.344 L1241.65 262.344 L1241.65 265.909 L1237.28 265.909 Q1232.35 265.909 1230.47 264.08 Q1228.6 262.228 1228.6 257.367 L1228.6 243.293 L1225.47 243.293 L1225.47 239.983 L1228.6 239.983 L1228.6 232.622 L1232.88 232.622 Z" fill="#000000" fill-rule="nonzero" fill-opacity="1" /><path clip-path="url(#clip870)" d="M1269.43 251.881 L1269.43 253.964 L1249.85 253.964 Q1250.12 258.362 1252.48 260.677 Q1254.87 262.969 1259.1 262.969 Q1261.56 262.969 1263.85 262.367 Q1266.16 261.765 1268.43 260.561 L1268.43 264.589 Q1266.14 265.561 1263.73 266.071 Q1261.33 266.58 1258.85 266.58 Q1252.65 266.58 1249.01 262.969 Q1245.4 259.358 1245.4 253.2 Q1245.4 246.835 1248.83 243.108 Q1252.28 239.358 1258.11 239.358 Q1263.34 239.358 1266.37 242.737 Q1269.43 246.094 1269.43 251.881 M1265.17 250.631 Q1265.12 247.136 1263.2 245.052 Q1261.3 242.969 1258.16 242.969 Q1254.59 242.969 1252.44 244.983 Q1250.31 246.997 1249.98 250.654 L1265.17 250.631 Z" fill="#000000" fill-rule="nonzero" fill-opacity="1" /><path clip-path="url(#clip870)" d="M1312.39 232.483 L1312.39 237.043 Q1309.73 235.77 1307.37 235.145 Q1305.01 234.52 1302.81 234.52 Q1298.99 234.52 1296.91 236.001 Q1294.85 237.483 1294.85 240.214 Q1294.85 242.506 1296.21 243.687 Q1297.6 244.844 1301.44 245.562 L1304.27 246.14 Q1309.5 247.136 1311.97 249.659 Q1314.47 252.159 1314.47 256.372 Q1314.47 261.395 1311.1 263.987 Q1307.74 266.58 1301.23 266.58 Q1298.78 266.58 1296 266.024 Q1293.25 265.469 1290.28 264.381 L1290.28 259.566 Q1293.13 261.163 1295.86 261.973 Q1298.6 262.784 1301.23 262.784 Q1305.24 262.784 1307.41 261.21 Q1309.59 259.636 1309.59 256.719 Q1309.59 254.173 1308.02 252.737 Q1306.47 251.302 1302.9 250.585 L1300.05 250.029 Q1294.82 248.987 1292.48 246.765 Q1290.15 244.543 1290.15 240.585 Q1290.15 236.001 1293.36 233.362 Q1296.6 230.724 1302.28 230.724 Q1304.71 230.724 1307.23 231.163 Q1309.75 231.603 1312.39 232.483 Z" fill="#000000" fill-rule="nonzero" fill-opacity="1" /><path clip-path="url(#clip870)" d="M1321.14 255.677 L1321.14 239.983 L1325.4 239.983 L1325.4 255.515 Q1325.4 259.196 1326.84 261.048 Q1328.27 262.876 1331.14 262.876 Q1334.59 262.876 1336.58 260.677 Q1338.59 258.478 1338.59 254.682 L1338.59 239.983 L1342.85 239.983 L1342.85 265.909 L1338.59 265.909 L1338.59 261.927 Q1337.04 264.288 1334.98 265.446 Q1332.95 266.58 1330.24 266.58 Q1325.77 266.58 1323.46 263.802 Q1321.14 261.024 1321.14 255.677 M1331.86 239.358 L1331.86 239.358 Z" fill="#000000" fill-rule="nonzero" fill-opacity="1" /><path clip-path="url(#clip870)" d="M1355.75 262.02 L1355.75 275.77 L1351.47 275.77 L1351.47 239.983 L1355.75 239.983 L1355.75 243.918 Q1357.09 241.603 1359.13 240.492 Q1361.19 239.358 1364.03 239.358 Q1368.76 239.358 1371.7 243.108 Q1374.66 246.858 1374.66 252.969 Q1374.66 259.08 1371.7 262.83 Q1368.76 266.58 1364.03 266.58 Q1361.19 266.58 1359.13 265.469 Q1357.09 264.335 1355.75 262.02 M1370.24 252.969 Q1370.24 248.27 1368.29 245.608 Q1366.37 242.923 1362.99 242.923 Q1359.61 242.923 1357.67 245.608 Q1355.75 248.27 1355.75 252.969 Q1355.75 257.668 1357.67 260.353 Q1359.61 263.015 1362.99 263.015 Q1366.37 263.015 1368.29 260.353 Q1370.24 257.668 1370.24 252.969 Z" fill="#000000" fill-rule="nonzero" fill-opacity="1" /><path clip-path="url(#clip870)" d="M1385.84 262.02 L1385.84 275.77 L1381.56 275.77 L1381.56 239.983 L1385.84 239.983 L1385.84 243.918 Q1387.18 241.603 1389.22 240.492 Q1391.28 239.358 1394.13 239.358 Q1398.85 239.358 1401.79 243.108 Q1404.75 246.858 1404.75 252.969 Q1404.75 259.08 1401.79 262.83 Q1398.85 266.58 1394.13 266.58 Q1391.28 266.58 1389.22 265.469 Q1387.18 264.335 1385.84 262.02 M1400.33 252.969 Q1400.33 248.27 1398.39 245.608 Q1396.46 242.923 1393.09 242.923 Q1389.71 242.923 1387.76 245.608 Q1385.84 248.27 1385.84 252.969 Q1385.84 257.668 1387.76 260.353 Q1389.71 263.015 1393.09 263.015 Q1396.46 263.015 1398.39 260.353 Q1400.33 257.668 1400.33 252.969 Z" fill="#000000" fill-rule="nonzero" fill-opacity="1" /><path clip-path="url(#clip870)" d="M1411.81 229.89 L1416.07 229.89 L1416.07 265.909 L1411.81 265.909 L1411.81 229.89 Z" fill="#000000" fill-rule="nonzero" fill-opacity="1" /><path clip-path="url(#clip870)" d="M1435.77 268.316 Q1433.96 272.946 1432.25 274.358 Q1430.54 275.77 1427.67 275.77 L1424.27 275.77 L1424.27 272.205 L1426.77 272.205 Q1428.52 272.205 1429.5 271.372 Q1430.47 270.538 1431.65 267.436 L1432.41 265.492 L1421.93 239.983 L1426.44 239.983 L1434.54 260.261 L1442.65 239.983 L1447.16 239.983 L1435.77 268.316 Z" fill="#000000" fill-rule="nonzero" fill-opacity="1" /></svg>
