<?xml version="1.0" encoding="utf-8"?>
<svg xmlns="http://www.w3.org/2000/svg" xmlns:xlink="http://www.w3.org/1999/xlink" width="600" height="400" viewBox="0 0 2400 1600">
<defs>
  <clipPath id="clip930">
    <rect x="0" y="0" width="2400" height="1600"/>
  </clipPath>
</defs>
<path clip-path="url(#clip930)" d="M0 1600 L2400 1600 L2400 8.88178e-14 L0 8.88178e-14  Z" fill="#ffffff" fill-rule="evenodd" fill-opacity="1"/>
<defs>
  <clipPath id="clip931">
    <rect x="480" y="0" width="1681" height="1600"/>
  </clipPath>
</defs>
<path clip-path="url(#clip930)" d="M256.209 1423.18 L2352.76 1423.18 L2352.76 47.2441 L256.209 47.2441  Z" fill="#ffffff" fill-rule="evenodd" fill-opacity="1"/>
<defs>
  <clipPath id="clip932">
    <rect x="256" y="47" width="2098" height="1377"/>
  </clipPath>
</defs>
<polyline clip-path="url(#clip932)" style="stroke:#000000; stroke-linecap:round; stroke-linejoin:round; stroke-width:2; stroke-opacity:0.1; fill:none" points="256.209,1423.18 256.209,47.2441 "/>
<polyline clip-path="url(#clip932)" style="stroke:#000000; stroke-linecap:round; stroke-linejoin:round; stroke-width:2; stroke-opacity:0.1; fill:none" points="1304.48,1423.18 1304.48,47.2441 "/>
<polyline clip-path="url(#clip932)" style="stroke:#000000; stroke-linecap:round; stroke-linejoin:round; stroke-width:2; stroke-opacity:0.1; fill:none" points="1828.62,1423.18 1828.62,47.2441 "/>
<polyline clip-path="url(#clip932)" style="stroke:#000000; stroke-linecap:round; stroke-linejoin:round; stroke-width:2; stroke-opacity:0.1; fill:none" points="2352.76,1423.18 2352.76,47.2441 "/>
<polyline clip-path="url(#clip932)" style="stroke:#000000; stroke-linecap:round; stroke-linejoin:round; stroke-width:2; stroke-opacity:0.1; fill:none" points="256.209,1423.18 2352.76,1423.18 "/>
<polyline clip-path="url(#clip932)" style="stroke:#000000; stroke-linecap:round; stroke-linejoin:round; stroke-width:2; stroke-opacity:0.1; fill:none" points="256.209,505.889 2352.76,505.889 "/>
<polyline clip-path="url(#clip932)" style="stroke:#000000; stroke-linecap:round; stroke-linejoin:round; stroke-width:2; stroke-opacity:0.1; fill:none" points="256.209,47.2441 2352.76,47.2441 "/>
<polyline clip-path="url(#clip930)" style="stroke:#000000; stroke-linecap:round; stroke-linejoin:round; stroke-width:4; stroke-opacity:1; fill:none" points="256.209,964.535 2352.76,964.535 "/>
<polyline clip-path="url(#clip930)" style="stroke:#000000; stroke-linecap:round; stroke-linejoin:round; stroke-width:4; stroke-opacity:1; fill:none" points="256.209,983.432 256.209,945.637 "/>
<polyline clip-path="url(#clip930)" style="stroke:#000000; stroke-linecap:round; stroke-linejoin:round; stroke-width:4; stroke-opacity:1; fill:none" points="1304.48,983.432 1304.48,945.637 "/>
<polyline clip-path="url(#clip930)" style="stroke:#000000; stroke-linecap:round; stroke-linejoin:round; stroke-width:4; stroke-opacity:1; fill:none" points="1828.62,983.432 1828.62,945.637 "/>
<polyline clip-path="url(#clip930)" style="stroke:#000000; stroke-linecap:round; stroke-linejoin:round; stroke-width:4; stroke-opacity:1; fill:none" points="2352.76,983.432 2352.76,945.637 "/>
<path clip-path="url(#clip930)" d="M225.966 1010.11 L255.642 1010.11 L255.642 1014.04 L225.966 1014.04 L225.966 1010.11 Z" fill="#000000" fill-rule="nonzero" fill-opacity="1" /><path clip-path="url(#clip930)" d="M266.544 1023 L274.183 1023 L274.183 996.634 L265.873 998.3 L265.873 994.041 L274.137 992.375 L278.813 992.375 L278.813 1023 L286.452 1023 L286.452 1026.93 L266.544 1026.93 L266.544 1023 Z" fill="#000000" fill-rule="nonzero" fill-opacity="1" /><path clip-path="url(#clip930)" d="M1294.86 1023 L1302.5 1023 L1302.5 996.634 L1294.19 998.3 L1294.19 994.041 L1302.46 992.375 L1307.13 992.375 L1307.13 1023 L1314.77 1023 L1314.77 1026.93 L1294.86 1026.93 L1294.86 1023 Z" fill="#000000" fill-rule="nonzero" fill-opacity="1" /><path clip-path="url(#clip930)" d="M1823.27 1023 L1839.59 1023 L1839.59 1026.93 L1817.65 1026.93 L1817.65 1023 Q1820.31 1020.24 1824.89 1015.62 Q1829.5 1010.96 1830.68 1009.62 Q1832.92 1007.1 1833.8 1005.36 Q1834.71 1003.6 1834.71 1001.91 Q1834.71 999.157 1832.76 997.421 Q1830.84 995.685 1827.74 995.685 Q1825.54 995.685 1823.09 996.449 Q1820.66 997.213 1817.88 998.763 L1817.88 994.041 Q1820.7 992.907 1823.16 992.328 Q1825.61 991.75 1827.65 991.75 Q1833.02 991.75 1836.21 994.435 Q1839.41 997.12 1839.41 1001.61 Q1839.41 1003.74 1838.6 1005.66 Q1837.81 1007.56 1835.7 1010.15 Q1835.12 1010.82 1832.02 1014.04 Q1828.92 1017.24 1823.27 1023 Z" fill="#000000" fill-rule="nonzero" fill-opacity="1" /><path clip-path="url(#clip930)" d="M2357 1008.3 Q2360.36 1009.02 2362.24 1011.29 Q2364.13 1013.56 2364.13 1016.89 Q2364.13 1022 2360.61 1024.8 Q2357.1 1027.61 2350.61 1027.61 Q2348.44 1027.61 2346.12 1027.17 Q2343.83 1026.75 2341.38 1025.89 L2341.38 1021.38 Q2343.32 1022.51 2345.64 1023.09 Q2347.95 1023.67 2350.48 1023.67 Q2354.87 1023.67 2357.17 1021.93 Q2359.48 1020.2 2359.48 1016.89 Q2359.48 1013.83 2357.33 1012.12 Q2355.2 1010.38 2351.38 1010.38 L2347.35 1010.38 L2347.35 1006.54 L2351.56 1006.54 Q2355.01 1006.54 2356.84 1005.18 Q2358.67 1003.79 2358.67 1001.19 Q2358.67 998.532 2356.77 997.12 Q2354.9 995.685 2351.38 995.685 Q2349.46 995.685 2347.26 996.101 Q2345.06 996.518 2342.42 997.398 L2342.42 993.231 Q2345.08 992.49 2347.4 992.12 Q2349.74 991.75 2351.8 991.75 Q2357.12 991.75 2360.22 994.18 Q2363.32 996.588 2363.32 1000.71 Q2363.32 1003.58 2361.68 1005.57 Q2360.04 1007.54 2357 1008.3 Z" fill="#000000" fill-rule="nonzero" fill-opacity="1" /><path clip-path="url(#clip930)" d="M1189.82 1520.52 L1227.15 1520.52 L1227.15 1525.43 L1197.11 1562.63 L1227.89 1562.63 L1227.89 1568.04 L1189.09 1568.04 L1189.09 1563.14 L1219.13 1525.93 L1189.82 1525.93 L1189.82 1520.52 Z" fill="#000000" fill-rule="nonzero" fill-opacity="1" /><path clip-path="url(#clip930)" d="M1272.8 1524.18 L1272.8 1530.96 Q1269.55 1527.94 1265.86 1526.44 Q1262.2 1524.95 1258.06 1524.95 Q1249.91 1524.95 1245.58 1529.95 Q1241.25 1534.91 1241.25 1544.33 Q1241.25 1553.72 1245.58 1558.72 Q1249.91 1563.68 1258.06 1563.68 Q1262.2 1563.68 1265.86 1562.19 Q1269.55 1560.69 1272.8 1557.67 L1272.8 1564.38 Q1269.42 1566.68 1265.64 1567.82 Q1261.88 1568.97 1257.68 1568.97 Q1246.89 1568.97 1240.68 1562.38 Q1234.48 1555.76 1234.48 1544.33 Q1234.48 1532.87 1240.68 1526.28 Q1246.89 1519.66 1257.68 1519.66 Q1261.94 1519.66 1265.7 1520.81 Q1269.49 1521.92 1272.8 1524.18 Z" fill="#000000" fill-rule="nonzero" fill-opacity="1" /><path clip-path="url(#clip930)" d="M1298.61 1526.86 L1289.89 1550.51 L1307.36 1550.51 L1298.61 1526.86 M1294.98 1520.52 L1302.27 1520.52 L1320.38 1568.04 L1313.7 1568.04 L1309.37 1555.85 L1287.95 1555.85 L1283.62 1568.04 L1276.84 1568.04 L1294.98 1520.52 Z" fill="#000000" fill-rule="nonzero" fill-opacity="1" /><path clip-path="url(#clip930)" d="M1333.75 1525.81 L1333.75 1562.76 L1341.51 1562.76 Q1351.35 1562.76 1355.9 1558.3 Q1360.48 1553.85 1360.48 1544.24 Q1360.48 1534.69 1355.9 1530.26 Q1351.35 1525.81 1341.51 1525.81 L1333.75 1525.81 M1327.32 1520.52 L1340.53 1520.52 Q1354.34 1520.52 1360.8 1526.28 Q1367.26 1532.01 1367.26 1544.24 Q1367.26 1556.52 1360.77 1562.28 Q1354.28 1568.04 1340.53 1568.04 L1327.32 1568.04 L1327.32 1520.52 Z" fill="#000000" fill-rule="nonzero" fill-opacity="1" /><path clip-path="url(#clip930)" d="M1377.51 1520.52 L1407.56 1520.52 L1407.56 1525.93 L1383.94 1525.93 L1383.94 1540 L1406.57 1540 L1406.57 1545.41 L1383.94 1545.41 L1383.94 1562.63 L1408.13 1562.63 L1408.13 1568.04 L1377.51 1568.04 L1377.51 1520.52 Z" fill="#000000" fill-rule="nonzero" fill-opacity="1" /><path clip-path="url(#clip930)" d="M1416.18 1548.09 L1419.88 1548.09 L1419.88 1568.04 L1416.18 1568.04 L1416.18 1548.09 M1416.18 1540.32 L1419.88 1540.32 L1419.88 1544.46 L1416.18 1544.46 L1416.18 1540.32 Z" fill="#000000" fill-rule="nonzero" fill-opacity="1" /><polyline clip-path="url(#clip930)" style="stroke:#000000; stroke-linecap:round; stroke-linejoin:round; stroke-width:4; stroke-opacity:1; fill:none" points="780.345,1423.18 780.345,47.2441 "/>
<polyline clip-path="url(#clip930)" style="stroke:#000000; stroke-linecap:round; stroke-linejoin:round; stroke-width:4; stroke-opacity:1; fill:none" points="761.448,1423.18 799.243,1423.18 "/>
<polyline clip-path="url(#clip930)" style="stroke:#000000; stroke-linecap:round; stroke-linejoin:round; stroke-width:4; stroke-opacity:1; fill:none" points="761.448,505.889 799.243,505.889 "/>
<polyline clip-path="url(#clip930)" style="stroke:#000000; stroke-linecap:round; stroke-linejoin:round; stroke-width:4; stroke-opacity:1; fill:none" points="761.448,47.2441 799.243,47.2441 "/>
<path clip-path="url(#clip930)" d="M638.397 1423.63 L668.073 1423.63 L668.073 1427.57 L638.397 1427.57 L638.397 1423.63 Z" fill="#000000" fill-rule="nonzero" fill-opacity="1" /><path clip-path="url(#clip930)" d="M688.165 1408.98 Q684.554 1408.98 682.725 1412.54 Q680.92 1416.08 680.92 1423.21 Q680.92 1430.32 682.725 1433.89 Q684.554 1437.43 688.165 1437.43 Q691.799 1437.43 693.605 1433.89 Q695.434 1430.32 695.434 1423.21 Q695.434 1416.08 693.605 1412.54 Q691.799 1408.98 688.165 1408.98 M688.165 1405.27 Q693.975 1405.27 697.031 1409.88 Q700.11 1414.46 700.11 1423.21 Q700.11 1431.94 697.031 1436.55 Q693.975 1441.13 688.165 1441.13 Q682.355 1441.13 679.276 1436.55 Q676.221 1431.94 676.221 1423.21 Q676.221 1414.46 679.276 1409.88 Q682.355 1405.27 688.165 1405.27 Z" fill="#000000" fill-rule="nonzero" fill-opacity="1" /><path clip-path="url(#clip930)" d="M708.327 1434.58 L713.211 1434.58 L713.211 1440.46 L708.327 1440.46 L708.327 1434.58 Z" fill="#000000" fill-rule="nonzero" fill-opacity="1" /><path clip-path="url(#clip930)" d="M723.443 1405.9 L741.799 1405.9 L741.799 1409.84 L727.725 1409.84 L727.725 1418.31 Q728.744 1417.96 729.762 1417.8 Q730.781 1417.61 731.799 1417.61 Q737.586 1417.61 740.966 1420.78 Q744.345 1423.96 744.345 1429.37 Q744.345 1434.95 740.873 1438.05 Q737.401 1441.13 731.082 1441.13 Q728.906 1441.13 726.637 1440.76 Q724.392 1440.39 721.984 1439.65 L721.984 1434.95 Q724.068 1436.08 726.29 1436.64 Q728.512 1437.2 730.989 1437.2 Q734.994 1437.2 737.332 1435.09 Q739.67 1432.98 739.67 1429.37 Q739.67 1425.76 737.332 1423.65 Q734.994 1421.55 730.989 1421.55 Q729.114 1421.55 727.239 1421.96 Q725.387 1422.38 723.443 1423.26 L723.443 1405.9 Z" fill="#000000" fill-rule="nonzero" fill-opacity="1" /><path clip-path="url(#clip930)" d="M688.165 491.688 Q684.554 491.688 682.725 495.253 Q680.92 498.794 680.92 505.924 Q680.92 513.031 682.725 516.595 Q684.554 520.137 688.165 520.137 Q691.799 520.137 693.605 516.595 Q695.434 513.031 695.434 505.924 Q695.434 498.794 693.605 495.253 Q691.799 491.688 688.165 491.688 M688.165 487.984 Q693.975 487.984 697.031 492.591 Q700.11 497.174 700.11 505.924 Q700.11 514.651 697.031 519.257 Q693.975 523.841 688.165 523.841 Q682.355 523.841 679.276 519.257 Q676.221 514.651 676.221 505.924 Q676.221 497.174 679.276 492.591 Q682.355 487.984 688.165 487.984 Z" fill="#000000" fill-rule="nonzero" fill-opacity="1" /><path clip-path="url(#clip930)" d="M708.327 517.29 L713.211 517.29 L713.211 523.169 L708.327 523.169 L708.327 517.29 Z" fill="#000000" fill-rule="nonzero" fill-opacity="1" /><path clip-path="url(#clip930)" d="M723.443 488.609 L741.799 488.609 L741.799 492.545 L727.725 492.545 L727.725 501.017 Q728.744 500.669 729.762 500.507 Q730.781 500.322 731.799 500.322 Q737.586 500.322 740.966 503.494 Q744.345 506.665 744.345 512.081 Q744.345 517.66 740.873 520.762 Q737.401 523.841 731.082 523.841 Q728.906 523.841 726.637 523.47 Q724.392 523.1 721.984 522.359 L721.984 517.66 Q724.068 518.794 726.29 519.35 Q728.512 519.905 730.989 519.905 Q734.994 519.905 737.332 517.799 Q739.67 515.693 739.67 512.081 Q739.67 508.47 737.332 506.364 Q734.994 504.257 730.989 504.257 Q729.114 504.257 727.239 504.674 Q725.387 505.091 723.443 505.97 L723.443 488.609 Z" fill="#000000" fill-rule="nonzero" fill-opacity="1" /><path clip-path="url(#clip930)" d="M677.98 60.5889 L685.619 60.5889 L685.619 34.2233 L677.309 35.89 L677.309 31.6308 L685.573 29.9641 L690.249 29.9641 L690.249 60.5889 L697.887 60.5889 L697.887 64.5241 L677.98 64.5241 L677.98 60.5889 Z" fill="#000000" fill-rule="nonzero" fill-opacity="1" /><path clip-path="url(#clip930)" d="M707.332 58.6445 L712.216 58.6445 L712.216 64.5241 L707.332 64.5241 L707.332 58.6445 Z" fill="#000000" fill-rule="nonzero" fill-opacity="1" /><path clip-path="url(#clip930)" d="M732.401 33.0428 Q728.79 33.0428 726.961 36.6076 Q725.156 40.1492 725.156 47.2788 Q725.156 54.3853 726.961 57.9501 Q728.79 61.4917 732.401 61.4917 Q736.035 61.4917 737.841 57.9501 Q739.67 54.3853 739.67 47.2788 Q739.67 40.1492 737.841 36.6076 Q736.035 33.0428 732.401 33.0428 M732.401 29.3391 Q738.211 29.3391 741.267 33.9456 Q744.345 38.5289 744.345 47.2788 Q744.345 56.0056 741.267 60.6121 Q738.211 65.1954 732.401 65.1954 Q726.591 65.1954 723.512 60.6121 Q720.457 56.0056 720.457 47.2788 Q720.457 38.5289 723.512 33.9456 Q726.591 29.3391 732.401 29.3391 Z" fill="#000000" fill-rule="nonzero" fill-opacity="1" /><path clip-path="url(#clip930)" d="M20.1444 789.591 L26.9239 789.591 Q23.9002 792.838 22.4043 796.53 Q20.9083 800.19 20.9083 804.328 Q20.9083 812.476 25.9054 816.804 Q30.8707 821.133 40.2919 821.133 Q49.6813 821.133 54.6784 816.804 Q59.6436 812.476 59.6436 804.328 Q59.6436 800.19 58.1477 796.53 Q56.6518 792.838 53.6281 789.591 L60.3439 789.591 Q62.6355 792.965 63.7814 796.752 Q64.9272 800.508 64.9272 804.71 Q64.9272 815.499 58.3387 821.706 Q51.7183 827.913 40.2919 827.913 Q28.8336 827.913 22.2451 821.706 Q15.6248 815.499 15.6248 804.71 Q15.6248 800.445 16.7706 796.689 Q17.8846 792.901 20.1444 789.591 Z" fill="#000000" fill-rule="nonzero" fill-opacity="1" /><path clip-path="url(#clip930)" d="M22.818 763.778 L46.4666 772.499 L46.4666 755.025 L22.818 763.778 M16.4842 767.407 L16.4842 760.118 L64.0042 742.007 L64.0042 748.691 L51.8138 753.02 L51.8138 774.441 L64.0042 778.769 L64.0042 785.549 L16.4842 767.407 Z" fill="#000000" fill-rule="nonzero" fill-opacity="1" /><path clip-path="url(#clip930)" d="M21.7677 728.639 L58.7206 728.639 L58.7206 720.873 Q58.7206 711.038 54.2646 706.487 Q49.8086 701.903 40.1964 701.903 Q30.6479 701.903 26.2237 706.487 Q21.7677 711.038 21.7677 720.873 L21.7677 728.639 M16.4842 735.069 L16.4842 721.86 Q16.4842 708.046 22.2451 701.585 Q27.9743 695.124 40.1964 695.124 Q52.4822 695.124 58.2432 701.617 Q64.0042 708.11 64.0042 721.86 L64.0042 735.069 L16.4842 735.069 Z" fill="#000000" fill-rule="nonzero" fill-opacity="1" /><path clip-path="url(#clip930)" d="M16.4842 684.875 L16.4842 654.829 L21.895 654.829 L21.895 678.446 L35.9632 678.446 L35.9632 655.816 L41.3741 655.816 L41.3741 678.446 L58.5933 678.446 L58.5933 654.256 L64.0042 654.256 L64.0042 684.875 L16.4842 684.875 Z" fill="#000000" fill-rule="nonzero" fill-opacity="1" /><path clip-path="url(#clip930)" d="M44.0477 646.203 L44.0477 642.511 L64.0042 642.511 L64.0042 646.203 L44.0477 646.203 M36.2815 646.203 L36.2815 642.511 L40.4192 642.511 L40.4192 646.203 L36.2815 646.203 Z" fill="#000000" fill-rule="nonzero" fill-opacity="1" /><circle clip-path="url(#clip932)" cx="849.285" cy="951.526" r="14.4" fill="#009af9" fill-rule="evenodd" fill-opacity="1" stroke="#000000" stroke-opacity="1" stroke-width="3.2"/>
<circle clip-path="url(#clip932)" cx="724.375" cy="271.257" r="14.4" fill="#009af9" fill-rule="evenodd" fill-opacity="1" stroke="#000000" stroke-opacity="1" stroke-width="3.2"/>
<circle clip-path="url(#clip932)" cx="897.384" cy="348.892" r="14.4" fill="#009af9" fill-rule="evenodd" fill-opacity="1" stroke="#000000" stroke-opacity="1" stroke-width="3.2"/>
<circle clip-path="url(#clip932)" cx="884.593" cy="748.149" r="14.4" fill="#009af9" fill-rule="evenodd" fill-opacity="1" stroke="#000000" stroke-opacity="1" stroke-width="3.2"/>
<circle clip-path="url(#clip932)" cx="923.138" cy="883.642" r="14.4" fill="#009af9" fill-rule="evenodd" fill-opacity="1" stroke="#000000" stroke-opacity="1" stroke-width="3.2"/>
<circle clip-path="url(#clip932)" cx="1123.46" cy="283.51" r="14.4" fill="#009af9" fill-rule="evenodd" fill-opacity="1" stroke="#000000" stroke-opacity="1" stroke-width="3.2"/>
<circle clip-path="url(#clip932)" cx="773.122" cy="947.75" r="14.4" fill="#009af9" fill-rule="evenodd" fill-opacity="1" stroke="#000000" stroke-opacity="1" stroke-width="3.2"/>
<circle clip-path="url(#clip932)" cx="1013.8" cy="182.438" r="14.4" fill="#009af9" fill-rule="evenodd" fill-opacity="1" stroke="#000000" stroke-opacity="1" stroke-width="3.2"/>
<circle clip-path="url(#clip932)" cx="1124.85" cy="603.257" r="14.4" fill="#009af9" fill-rule="evenodd" fill-opacity="1" stroke="#000000" stroke-opacity="1" stroke-width="3.2"/>
<circle clip-path="url(#clip932)" cx="1011.65" cy="532.146" r="14.4" fill="#009af9" fill-rule="evenodd" fill-opacity="1" stroke="#000000" stroke-opacity="1" stroke-width="3.2"/>
<circle clip-path="url(#clip932)" cx="750.692" cy="960.07" r="14.4" fill="#009af9" fill-rule="evenodd" fill-opacity="1" stroke="#000000" stroke-opacity="1" stroke-width="3.2"/>
<circle clip-path="url(#clip932)" cx="671.752" cy="664.653" r="14.4" fill="#009af9" fill-rule="evenodd" fill-opacity="1" stroke="#000000" stroke-opacity="1" stroke-width="3.2"/>
<circle clip-path="url(#clip932)" cx="1020.44" cy="721.36" r="14.4" fill="#009af9" fill-rule="evenodd" fill-opacity="1" stroke="#000000" stroke-opacity="1" stroke-width="3.2"/>
<circle clip-path="url(#clip932)" cx="906.237" cy="817.356" r="14.4" fill="#009af9" fill-rule="evenodd" fill-opacity="1" stroke="#000000" stroke-opacity="1" stroke-width="3.2"/>
<circle clip-path="url(#clip932)" cx="958.679" cy="914.047" r="14.4" fill="#009af9" fill-rule="evenodd" fill-opacity="1" stroke="#000000" stroke-opacity="1" stroke-width="3.2"/>
<circle clip-path="url(#clip932)" cx="772.972" cy="837.909" r="14.4" fill="#009af9" fill-rule="evenodd" fill-opacity="1" stroke="#000000" stroke-opacity="1" stroke-width="3.2"/>
<circle clip-path="url(#clip932)" cx="1029.69" cy="912.121" r="14.4" fill="#009af9" fill-rule="evenodd" fill-opacity="1" stroke="#000000" stroke-opacity="1" stroke-width="3.2"/>
<circle clip-path="url(#clip932)" cx="877.968" cy="939.284" r="14.4" fill="#009af9" fill-rule="evenodd" fill-opacity="1" stroke="#000000" stroke-opacity="1" stroke-width="3.2"/>
<circle clip-path="url(#clip932)" cx="839.57" cy="470.83" r="14.4" fill="#009af9" fill-rule="evenodd" fill-opacity="1" stroke="#000000" stroke-opacity="1" stroke-width="3.2"/>
<circle clip-path="url(#clip932)" cx="1232.35" cy="610.386" r="14.4" fill="#009af9" fill-rule="evenodd" fill-opacity="1" stroke="#000000" stroke-opacity="1" stroke-width="3.2"/>
<circle clip-path="url(#clip932)" cx="801.832" cy="275.954" r="14.4" fill="#009af9" fill-rule="evenodd" fill-opacity="1" stroke="#000000" stroke-opacity="1" stroke-width="3.2"/>
<circle clip-path="url(#clip932)" cx="919.683" cy="933.647" r="14.4" fill="#009af9" fill-rule="evenodd" fill-opacity="1" stroke="#000000" stroke-opacity="1" stroke-width="3.2"/>
<circle clip-path="url(#clip932)" cx="666.014" cy="888.057" r="14.4" fill="#009af9" fill-rule="evenodd" fill-opacity="1" stroke="#000000" stroke-opacity="1" stroke-width="3.2"/>
<circle clip-path="url(#clip932)" cx="770.469" cy="393.447" r="14.4" fill="#009af9" fill-rule="evenodd" fill-opacity="1" stroke="#000000" stroke-opacity="1" stroke-width="3.2"/>
<circle clip-path="url(#clip932)" cx="850.067" cy="287.735" r="14.4" fill="#009af9" fill-rule="evenodd" fill-opacity="1" stroke="#000000" stroke-opacity="1" stroke-width="3.2"/>
<circle clip-path="url(#clip932)" cx="790.756" cy="838.178" r="14.4" fill="#009af9" fill-rule="evenodd" fill-opacity="1" stroke="#000000" stroke-opacity="1" stroke-width="3.2"/>
<circle clip-path="url(#clip932)" cx="952.406" cy="92.0781" r="14.4" fill="#009af9" fill-rule="evenodd" fill-opacity="1" stroke="#000000" stroke-opacity="1" stroke-width="3.2"/>
<circle clip-path="url(#clip932)" cx="840.275" cy="494.434" r="14.4" fill="#009af9" fill-rule="evenodd" fill-opacity="1" stroke="#000000" stroke-opacity="1" stroke-width="3.2"/>
<circle clip-path="url(#clip932)" cx="1208.56" cy="172.982" r="14.4" fill="#009af9" fill-rule="evenodd" fill-opacity="1" stroke="#000000" stroke-opacity="1" stroke-width="3.2"/>
<circle clip-path="url(#clip932)" cx="902.309" cy="132.967" r="14.4" fill="#009af9" fill-rule="evenodd" fill-opacity="1" stroke="#000000" stroke-opacity="1" stroke-width="3.2"/>
<circle clip-path="url(#clip932)" cx="925.77" cy="806.166" r="14.4" fill="#009af9" fill-rule="evenodd" fill-opacity="1" stroke="#000000" stroke-opacity="1" stroke-width="3.2"/>
<circle clip-path="url(#clip932)" cx="952.384" cy="902.549" r="14.4" fill="#009af9" fill-rule="evenodd" fill-opacity="1" stroke="#000000" stroke-opacity="1" stroke-width="3.2"/>
<circle clip-path="url(#clip932)" cx="1102.98" cy="498.862" r="14.4" fill="#009af9" fill-rule="evenodd" fill-opacity="1" stroke="#000000" stroke-opacity="1" stroke-width="3.2"/>
<circle clip-path="url(#clip932)" cx="1134.58" cy="339.25" r="14.4" fill="#009af9" fill-rule="evenodd" fill-opacity="1" stroke="#000000" stroke-opacity="1" stroke-width="3.2"/>
<circle clip-path="url(#clip932)" cx="685.54" cy="188.818" r="14.4" fill="#009af9" fill-rule="evenodd" fill-opacity="1" stroke="#000000" stroke-opacity="1" stroke-width="3.2"/>
<circle clip-path="url(#clip932)" cx="1866.29" cy="375.382" r="14.4" fill="#009af9" fill-rule="evenodd" fill-opacity="1" stroke="#000000" stroke-opacity="1" stroke-width="3.2"/>
<circle clip-path="url(#clip932)" cx="951.044" cy="259.703" r="14.4" fill="#009af9" fill-rule="evenodd" fill-opacity="1" stroke="#000000" stroke-opacity="1" stroke-width="3.2"/>
<circle clip-path="url(#clip932)" cx="718.775" cy="928.101" r="14.4" fill="#009af9" fill-rule="evenodd" fill-opacity="1" stroke="#000000" stroke-opacity="1" stroke-width="3.2"/>
<circle clip-path="url(#clip932)" cx="1417.57" cy="113.183" r="14.4" fill="#009af9" fill-rule="evenodd" fill-opacity="1" stroke="#000000" stroke-opacity="1" stroke-width="3.2"/>
<circle clip-path="url(#clip932)" cx="1020.44" cy="721.36" r="14.4" fill="#009af9" fill-rule="evenodd" fill-opacity="1" stroke="#000000" stroke-opacity="1" stroke-width="3.2"/>
<circle clip-path="url(#clip932)" cx="1287.05" cy="823.291" r="14.4" fill="#009af9" fill-rule="evenodd" fill-opacity="1" stroke="#000000" stroke-opacity="1" stroke-width="3.2"/>
<circle clip-path="url(#clip932)" cx="868.811" cy="553.618" r="14.4" fill="#009af9" fill-rule="evenodd" fill-opacity="1" stroke="#000000" stroke-opacity="1" stroke-width="3.2"/>
<circle clip-path="url(#clip932)" cx="1142.6" cy="874.46" r="14.4" fill="#009af9" fill-rule="evenodd" fill-opacity="1" stroke="#000000" stroke-opacity="1" stroke-width="3.2"/>
<circle clip-path="url(#clip932)" cx="868.988" cy="1058.58" r="14.4" fill="#e26f46" fill-rule="evenodd" fill-opacity="1" stroke="#000000" stroke-opacity="1" stroke-width="3.2"/>
<circle clip-path="url(#clip932)" cx="1022.27" cy="962.884" r="14.4" fill="#e26f46" fill-rule="evenodd" fill-opacity="1" stroke="#000000" stroke-opacity="1" stroke-width="3.2"/>
<circle clip-path="url(#clip932)" cx="760.341" cy="1331.95" r="14.4" fill="#e26f46" fill-rule="evenodd" fill-opacity="1" stroke="#000000" stroke-opacity="1" stroke-width="3.2"/>
<circle clip-path="url(#clip932)" cx="1509.54" cy="956.076" r="14.4" fill="#e26f46" fill-rule="evenodd" fill-opacity="1" stroke="#000000" stroke-opacity="1" stroke-width="3.2"/>
<circle clip-path="url(#clip932)" cx="988.125" cy="996.419" r="14.4" fill="#e26f46" fill-rule="evenodd" fill-opacity="1" stroke="#000000" stroke-opacity="1" stroke-width="3.2"/>
<circle clip-path="url(#clip932)" cx="980.53" cy="955.01" r="14.4" fill="#e26f46" fill-rule="evenodd" fill-opacity="1" stroke="#000000" stroke-opacity="1" stroke-width="3.2"/>
<circle clip-path="url(#clip932)" cx="1028.19" cy="971.358" r="14.4" fill="#e26f46" fill-rule="evenodd" fill-opacity="1" stroke="#000000" stroke-opacity="1" stroke-width="3.2"/>
<circle clip-path="url(#clip932)" cx="1856.64" cy="954.952" r="14.4" fill="#e26f46" fill-rule="evenodd" fill-opacity="1" stroke="#000000" stroke-opacity="1" stroke-width="3.2"/>
<circle clip-path="url(#clip932)" cx="932.35" cy="967.183" r="14.4" fill="#e26f46" fill-rule="evenodd" fill-opacity="1" stroke="#000000" stroke-opacity="1" stroke-width="3.2"/>
<circle clip-path="url(#clip932)" cx="1756.24" cy="967.888" r="14.4" fill="#e26f46" fill-rule="evenodd" fill-opacity="1" stroke="#000000" stroke-opacity="1" stroke-width="3.2"/>
<circle clip-path="url(#clip932)" cx="1142.1" cy="959.325" r="14.4" fill="#e26f46" fill-rule="evenodd" fill-opacity="1" stroke="#000000" stroke-opacity="1" stroke-width="3.2"/>
<circle clip-path="url(#clip932)" cx="943.396" cy="968.42" r="14.4" fill="#e26f46" fill-rule="evenodd" fill-opacity="1" stroke="#000000" stroke-opacity="1" stroke-width="3.2"/>
<circle clip-path="url(#clip932)" cx="1318.93" cy="964.487" r="14.4" fill="#e26f46" fill-rule="evenodd" fill-opacity="1" stroke="#000000" stroke-opacity="1" stroke-width="3.2"/>
<circle clip-path="url(#clip932)" cx="1345.17" cy="948.672" r="14.4" fill="#e26f46" fill-rule="evenodd" fill-opacity="1" stroke="#000000" stroke-opacity="1" stroke-width="3.2"/>
<circle clip-path="url(#clip932)" cx="874.174" cy="1025.29" r="14.4" fill="#e26f46" fill-rule="evenodd" fill-opacity="1" stroke="#000000" stroke-opacity="1" stroke-width="3.2"/>
<circle clip-path="url(#clip932)" cx="772.314" cy="1011.12" r="14.4" fill="#e26f46" fill-rule="evenodd" fill-opacity="1" stroke="#000000" stroke-opacity="1" stroke-width="3.2"/>
<circle clip-path="url(#clip932)" cx="1076.94" cy="1002.8" r="14.4" fill="#e26f46" fill-rule="evenodd" fill-opacity="1" stroke="#000000" stroke-opacity="1" stroke-width="3.2"/>
<circle clip-path="url(#clip932)" cx="823.848" cy="1213.89" r="14.4" fill="#e26f46" fill-rule="evenodd" fill-opacity="1" stroke="#000000" stroke-opacity="1" stroke-width="3.2"/>
<circle clip-path="url(#clip932)" cx="1563.22" cy="963.13" r="14.4" fill="#e26f46" fill-rule="evenodd" fill-opacity="1" stroke="#000000" stroke-opacity="1" stroke-width="3.2"/>
<circle clip-path="url(#clip932)" cx="1468.34" cy="959.229" r="14.4" fill="#e26f46" fill-rule="evenodd" fill-opacity="1" stroke="#000000" stroke-opacity="1" stroke-width="3.2"/>
<circle clip-path="url(#clip932)" cx="763.481" cy="999.583" r="14.4" fill="#e26f46" fill-rule="evenodd" fill-opacity="1" stroke="#000000" stroke-opacity="1" stroke-width="3.2"/>
<circle clip-path="url(#clip932)" cx="838.652" cy="975.443" r="14.4" fill="#e26f46" fill-rule="evenodd" fill-opacity="1" stroke="#000000" stroke-opacity="1" stroke-width="3.2"/>
<circle clip-path="url(#clip932)" cx="1215.66" cy="979.132" r="14.4" fill="#e26f46" fill-rule="evenodd" fill-opacity="1" stroke="#000000" stroke-opacity="1" stroke-width="3.2"/>
<circle clip-path="url(#clip932)" cx="1026.55" cy="971.415" r="14.4" fill="#e26f46" fill-rule="evenodd" fill-opacity="1" stroke="#000000" stroke-opacity="1" stroke-width="3.2"/>
<circle clip-path="url(#clip932)" cx="1224.45" cy="961.885" r="14.4" fill="#e26f46" fill-rule="evenodd" fill-opacity="1" stroke="#000000" stroke-opacity="1" stroke-width="3.2"/>
<circle clip-path="url(#clip932)" cx="1680.27" cy="927.978" r="14.4" fill="#e26f46" fill-rule="evenodd" fill-opacity="1" stroke="#000000" stroke-opacity="1" stroke-width="3.2"/>
<circle clip-path="url(#clip932)" cx="887.511" cy="949.587" r="14.4" fill="#e26f46" fill-rule="evenodd" fill-opacity="1" stroke="#000000" stroke-opacity="1" stroke-width="3.2"/>
<circle clip-path="url(#clip932)" cx="1094.26" cy="954.484" r="14.4" fill="#e26f46" fill-rule="evenodd" fill-opacity="1" stroke="#000000" stroke-opacity="1" stroke-width="3.2"/>
<circle clip-path="url(#clip932)" cx="988.485" cy="1254.92" r="14.4" fill="#e26f46" fill-rule="evenodd" fill-opacity="1" stroke="#000000" stroke-opacity="1" stroke-width="3.2"/>
<circle clip-path="url(#clip932)" cx="935.58" cy="1051.5" r="14.4" fill="#e26f46" fill-rule="evenodd" fill-opacity="1" stroke="#000000" stroke-opacity="1" stroke-width="3.2"/>
<circle clip-path="url(#clip932)" cx="1047.49" cy="1150.68" r="14.4" fill="#e26f46" fill-rule="evenodd" fill-opacity="1" stroke="#000000" stroke-opacity="1" stroke-width="3.2"/>
<circle clip-path="url(#clip932)" cx="1510.31" cy="963.795" r="14.4" fill="#e26f46" fill-rule="evenodd" fill-opacity="1" stroke="#000000" stroke-opacity="1" stroke-width="3.2"/>
<circle clip-path="url(#clip932)" cx="1049.94" cy="989.663" r="14.4" fill="#e26f46" fill-rule="evenodd" fill-opacity="1" stroke="#000000" stroke-opacity="1" stroke-width="3.2"/>
<circle clip-path="url(#clip932)" cx="972.688" cy="965.592" r="14.4" fill="#e26f46" fill-rule="evenodd" fill-opacity="1" stroke="#000000" stroke-opacity="1" stroke-width="3.2"/>
<circle clip-path="url(#clip932)" cx="812.917" cy="1019.34" r="14.4" fill="#e26f46" fill-rule="evenodd" fill-opacity="1" stroke="#000000" stroke-opacity="1" stroke-width="3.2"/>
<circle clip-path="url(#clip932)" cx="1261.95" cy="1073.8" r="14.4" fill="#e26f46" fill-rule="evenodd" fill-opacity="1" stroke="#000000" stroke-opacity="1" stroke-width="3.2"/>
<circle clip-path="url(#clip932)" cx="1434.59" cy="964.119" r="14.4" fill="#e26f46" fill-rule="evenodd" fill-opacity="1" stroke="#000000" stroke-opacity="1" stroke-width="3.2"/>
<circle clip-path="url(#clip932)" cx="561.339" cy="1398.61" r="14.4" fill="#e26f46" fill-rule="evenodd" fill-opacity="1" stroke="#000000" stroke-opacity="1" stroke-width="3.2"/>
<circle clip-path="url(#clip932)" cx="1135.86" cy="1098.92" r="14.4" fill="#e26f46" fill-rule="evenodd" fill-opacity="1" stroke="#000000" stroke-opacity="1" stroke-width="3.2"/>
<circle clip-path="url(#clip932)" cx="1034.22" cy="1057.67" r="14.4" fill="#e26f46" fill-rule="evenodd" fill-opacity="1" stroke="#000000" stroke-opacity="1" stroke-width="3.2"/>
<circle clip-path="url(#clip932)" cx="1394.82" cy="926.125" r="14.4" fill="#e26f46" fill-rule="evenodd" fill-opacity="1" stroke="#000000" stroke-opacity="1" stroke-width="3.2"/>
<circle clip-path="url(#clip932)" cx="953.557" cy="977.751" r="14.4" fill="#e26f46" fill-rule="evenodd" fill-opacity="1" stroke="#000000" stroke-opacity="1" stroke-width="3.2"/>
<circle clip-path="url(#clip932)" cx="859.526" cy="985.148" r="14.4" fill="#e26f46" fill-rule="evenodd" fill-opacity="1" stroke="#000000" stroke-opacity="1" stroke-width="3.2"/>
<circle clip-path="url(#clip932)" cx="878.656" cy="947.98" r="14.4" fill="#e26f46" fill-rule="evenodd" fill-opacity="1" stroke="#000000" stroke-opacity="1" stroke-width="3.2"/>
<circle clip-path="url(#clip932)" cx="1345.41" cy="959.472" r="14.4" fill="#e26f46" fill-rule="evenodd" fill-opacity="1" stroke="#000000" stroke-opacity="1" stroke-width="3.2"/>
<circle clip-path="url(#clip932)" cx="1001.42" cy="963.275" r="14.4" fill="#e26f46" fill-rule="evenodd" fill-opacity="1" stroke="#000000" stroke-opacity="1" stroke-width="3.2"/>
<circle clip-path="url(#clip932)" cx="1149.58" cy="964.026" r="14.4" fill="#e26f46" fill-rule="evenodd" fill-opacity="1" stroke="#000000" stroke-opacity="1" stroke-width="3.2"/>
<circle clip-path="url(#clip932)" cx="976.538" cy="1064.18" r="14.4" fill="#e26f46" fill-rule="evenodd" fill-opacity="1" stroke="#000000" stroke-opacity="1" stroke-width="3.2"/>
<circle clip-path="url(#clip932)" cx="959.204" cy="1042.87" r="14.4" fill="#e26f46" fill-rule="evenodd" fill-opacity="1" stroke="#000000" stroke-opacity="1" stroke-width="3.2"/>
<circle clip-path="url(#clip932)" cx="906.856" cy="991.628" r="14.4" fill="#e26f46" fill-rule="evenodd" fill-opacity="1" stroke="#000000" stroke-opacity="1" stroke-width="3.2"/>
<circle clip-path="url(#clip932)" cx="942.023" cy="945.409" r="14.4" fill="#e26f46" fill-rule="evenodd" fill-opacity="1" stroke="#000000" stroke-opacity="1" stroke-width="3.2"/>
<circle clip-path="url(#clip932)" cx="1090.08" cy="957.89" r="14.4" fill="#e26f46" fill-rule="evenodd" fill-opacity="1" stroke="#000000" stroke-opacity="1" stroke-width="3.2"/>
<circle clip-path="url(#clip932)" cx="1539.75" cy="1025.42" r="14.4" fill="#e26f46" fill-rule="evenodd" fill-opacity="1" stroke="#000000" stroke-opacity="1" stroke-width="3.2"/>
<circle clip-path="url(#clip932)" cx="1032.14" cy="964.46" r="14.4" fill="#e26f46" fill-rule="evenodd" fill-opacity="1" stroke="#000000" stroke-opacity="1" stroke-width="3.2"/>
<circle clip-path="url(#clip932)" cx="640.694" cy="1128.57" r="14.4" fill="#e26f46" fill-rule="evenodd" fill-opacity="1" stroke="#000000" stroke-opacity="1" stroke-width="3.2"/>
<circle clip-path="url(#clip932)" cx="1549.59" cy="966.194" r="14.4" fill="#e26f46" fill-rule="evenodd" fill-opacity="1" stroke="#000000" stroke-opacity="1" stroke-width="3.2"/>
<circle clip-path="url(#clip932)" cx="1475.17" cy="964.472" r="14.4" fill="#e26f46" fill-rule="evenodd" fill-opacity="1" stroke="#000000" stroke-opacity="1" stroke-width="3.2"/>
<circle clip-path="url(#clip932)" cx="1737.98" cy="950.411" r="14.4" fill="#e26f46" fill-rule="evenodd" fill-opacity="1" stroke="#000000" stroke-opacity="1" stroke-width="3.2"/>
<circle clip-path="url(#clip932)" cx="1163.98" cy="1200.1" r="14.4" fill="#e26f46" fill-rule="evenodd" fill-opacity="1" stroke="#000000" stroke-opacity="1" stroke-width="3.2"/>
<circle clip-path="url(#clip932)" cx="1033.6" cy="1013.34" r="14.4" fill="#e26f46" fill-rule="evenodd" fill-opacity="1" stroke="#000000" stroke-opacity="1" stroke-width="3.2"/>
<circle clip-path="url(#clip932)" cx="838.225" cy="1199.63" r="14.4" fill="#e26f46" fill-rule="evenodd" fill-opacity="1" stroke="#000000" stroke-opacity="1" stroke-width="3.2"/>
<circle clip-path="url(#clip932)" cx="1756.24" cy="967.888" r="14.4" fill="#e26f46" fill-rule="evenodd" fill-opacity="1" stroke="#000000" stroke-opacity="1" stroke-width="3.2"/>
<circle clip-path="url(#clip932)" cx="852.195" cy="967.554" r="14.4" fill="#e26f46" fill-rule="evenodd" fill-opacity="1" stroke="#000000" stroke-opacity="1" stroke-width="3.2"/>
<circle clip-path="url(#clip932)" cx="1439.83" cy="966.444" r="14.4" fill="#e26f46" fill-rule="evenodd" fill-opacity="1" stroke="#000000" stroke-opacity="1" stroke-width="3.2"/>
<circle clip-path="url(#clip932)" cx="1009.24" cy="979.441" r="14.4" fill="#e26f46" fill-rule="evenodd" fill-opacity="1" stroke="#000000" stroke-opacity="1" stroke-width="3.2"/>
<circle clip-path="url(#clip932)" cx="892.772" cy="963.733" r="14.4" fill="#e26f46" fill-rule="evenodd" fill-opacity="1" stroke="#000000" stroke-opacity="1" stroke-width="3.2"/>
<circle clip-path="url(#clip932)" cx="979.174" cy="1281.77" r="14.4" fill="#e26f46" fill-rule="evenodd" fill-opacity="1" stroke="#000000" stroke-opacity="1" stroke-width="3.2"/>
<circle clip-path="url(#clip932)" cx="1193.07" cy="960.718" r="14.4" fill="#e26f46" fill-rule="evenodd" fill-opacity="1" stroke="#000000" stroke-opacity="1" stroke-width="3.2"/>
<circle clip-path="url(#clip932)" cx="1263.29" cy="901.236" r="14.4" fill="#e26f46" fill-rule="evenodd" fill-opacity="1" stroke="#000000" stroke-opacity="1" stroke-width="3.2"/>
<circle clip-path="url(#clip932)" cx="1339.24" cy="964.766" r="14.4" fill="#e26f46" fill-rule="evenodd" fill-opacity="1" stroke="#000000" stroke-opacity="1" stroke-width="3.2"/>
<circle clip-path="url(#clip932)" cx="814.615" cy="1328.43" r="14.4" fill="#e26f46" fill-rule="evenodd" fill-opacity="1" stroke="#000000" stroke-opacity="1" stroke-width="3.2"/>
<circle clip-path="url(#clip932)" cx="1769.26" cy="936.175" r="14.4" fill="#e26f46" fill-rule="evenodd" fill-opacity="1" stroke="#000000" stroke-opacity="1" stroke-width="3.2"/>
<circle clip-path="url(#clip932)" cx="1007.29" cy="1021.79" r="14.4" fill="#e26f46" fill-rule="evenodd" fill-opacity="1" stroke="#000000" stroke-opacity="1" stroke-width="3.2"/>
<circle clip-path="url(#clip932)" cx="789.66" cy="969.515" r="14.4" fill="#e26f46" fill-rule="evenodd" fill-opacity="1" stroke="#000000" stroke-opacity="1" stroke-width="3.2"/>
<circle clip-path="url(#clip932)" cx="1236.59" cy="905.641" r="14.4" fill="#e26f46" fill-rule="evenodd" fill-opacity="1" stroke="#000000" stroke-opacity="1" stroke-width="3.2"/>
<circle clip-path="url(#clip932)" cx="824.413" cy="1340.46" r="14.4" fill="#e26f46" fill-rule="evenodd" fill-opacity="1" stroke="#000000" stroke-opacity="1" stroke-width="3.2"/>
<circle clip-path="url(#clip932)" cx="1098.42" cy="1034.57" r="14.4" fill="#e26f46" fill-rule="evenodd" fill-opacity="1" stroke="#000000" stroke-opacity="1" stroke-width="3.2"/>
<circle clip-path="url(#clip932)" cx="998.738" cy="948.79" r="14.4" fill="#e26f46" fill-rule="evenodd" fill-opacity="1" stroke="#000000" stroke-opacity="1" stroke-width="3.2"/>
<circle clip-path="url(#clip932)" cx="862.244" cy="1082.84" r="14.4" fill="#e26f46" fill-rule="evenodd" fill-opacity="1" stroke="#000000" stroke-opacity="1" stroke-width="3.2"/>
<circle clip-path="url(#clip932)" cx="1439.83" cy="966.444" r="14.4" fill="#e26f46" fill-rule="evenodd" fill-opacity="1" stroke="#000000" stroke-opacity="1" stroke-width="3.2"/>
<circle clip-path="url(#clip932)" cx="816.007" cy="1044.25" r="14.4" fill="#e26f46" fill-rule="evenodd" fill-opacity="1" stroke="#000000" stroke-opacity="1" stroke-width="3.2"/>
<circle clip-path="url(#clip932)" cx="1038.49" cy="928.804" r="14.4" fill="#e26f46" fill-rule="evenodd" fill-opacity="1" stroke="#000000" stroke-opacity="1" stroke-width="3.2"/>
<circle clip-path="url(#clip932)" cx="1349.61" cy="959.94" r="14.4" fill="#e26f46" fill-rule="evenodd" fill-opacity="1" stroke="#000000" stroke-opacity="1" stroke-width="3.2"/>
<circle clip-path="url(#clip932)" cx="1531.44" cy="862.9" r="14.4" fill="#e26f46" fill-rule="evenodd" fill-opacity="1" stroke="#000000" stroke-opacity="1" stroke-width="3.2"/>
<circle clip-path="url(#clip932)" cx="872.64" cy="969.515" r="14.4" fill="#e26f46" fill-rule="evenodd" fill-opacity="1" stroke="#000000" stroke-opacity="1" stroke-width="3.2"/>
<circle clip-path="url(#clip932)" cx="892.656" cy="1037.34" r="14.4" fill="#e26f46" fill-rule="evenodd" fill-opacity="1" stroke="#000000" stroke-opacity="1" stroke-width="3.2"/>
<circle clip-path="url(#clip932)" cx="1240.87" cy="960.108" r="14.4" fill="#e26f46" fill-rule="evenodd" fill-opacity="1" stroke="#000000" stroke-opacity="1" stroke-width="3.2"/>
<circle clip-path="url(#clip932)" cx="896.634" cy="962.016" r="14.4" fill="#e26f46" fill-rule="evenodd" fill-opacity="1" stroke="#000000" stroke-opacity="1" stroke-width="3.2"/>
<circle clip-path="url(#clip932)" cx="888.725" cy="957.376" r="14.4" fill="#e26f46" fill-rule="evenodd" fill-opacity="1" stroke="#000000" stroke-opacity="1" stroke-width="3.2"/>
<circle clip-path="url(#clip932)" cx="962.486" cy="958.059" r="14.4" fill="#e26f46" fill-rule="evenodd" fill-opacity="1" stroke="#000000" stroke-opacity="1" stroke-width="3.2"/>
<circle clip-path="url(#clip932)" cx="1876.83" cy="963.062" r="14.4" fill="#e26f46" fill-rule="evenodd" fill-opacity="1" stroke="#000000" stroke-opacity="1" stroke-width="3.2"/>
<circle clip-path="url(#clip932)" cx="1242.41" cy="958.257" r="14.4" fill="#e26f46" fill-rule="evenodd" fill-opacity="1" stroke="#000000" stroke-opacity="1" stroke-width="3.2"/>
<circle clip-path="url(#clip932)" cx="703.233" cy="1166" r="14.4" fill="#e26f46" fill-rule="evenodd" fill-opacity="1" stroke="#000000" stroke-opacity="1" stroke-width="3.2"/>
<circle clip-path="url(#clip932)" cx="1253.58" cy="934.021" r="14.4" fill="#e26f46" fill-rule="evenodd" fill-opacity="1" stroke="#000000" stroke-opacity="1" stroke-width="3.2"/>
<polyline clip-path="url(#clip932)" style="stroke:#3da44d; stroke-linecap:round; stroke-linejoin:round; stroke-width:8; stroke-opacity:1; fill:none" points="165.042,1079.61 170.283,1078.63 175.525,1077.65 180.766,1076.67 186.007,1075.69 191.249,1074.71 196.49,1073.73 201.731,1072.75 206.973,1071.77 212.214,1070.79 217.456,1069.81 222.697,1068.82 227.938,1067.84 233.18,1066.86 238.421,1065.88 243.662,1064.9 248.904,1063.92 254.145,1062.94 259.387,1061.96 264.628,1060.98 269.869,1060 275.111,1059.02 280.352,1058.04 285.593,1057.06 290.835,1056.08 296.076,1055.1 301.317,1054.12 306.559,1053.14 311.8,1052.16 317.042,1051.18 322.283,1050.2 327.524,1049.22 332.766,1048.24 338.007,1047.26 343.248,1046.28 348.49,1045.3 353.731,1044.32 358.972,1043.34 364.214,1042.36 369.455,1041.38 374.697,1040.4 379.938,1039.42 385.179,1038.44 390.421,1037.46 395.662,1036.48 400.903,1035.5 406.145,1034.52 411.386,1033.54 416.628,1032.56 421.869,1031.58 427.11,1030.6 432.352,1029.62 437.593,1028.64 442.834,1027.66 448.076,1026.68 453.317,1025.69 458.558,1024.71 463.8,1023.73 469.041,1022.75 474.283,1021.77 479.524,1020.79 484.765,1019.81 490.007,1018.83 495.248,1017.85 500.489,1016.87 505.731,1015.89 510.972,1014.91 516.214,1013.93 521.455,1012.95 526.696,1011.97 531.938,1010.99 537.179,1010.01 542.42,1009.03 547.662,1008.05 552.903,1007.07 558.144,1006.09 563.386,1005.11 568.627,1004.13 573.869,1003.15 579.11,1002.17 584.351,1001.19 589.593,1000.21 594.834,999.229 600.075,998.248 605.317,997.268 610.558,996.288 615.8,995.308 621.041,994.327 626.282,993.347 631.524,992.367 636.765,991.387 642.006,990.406 647.248,989.426 652.489,988.446 657.73,987.466 662.972,986.486 668.213,985.505 673.455,984.525 678.696,983.545 683.937,982.565 689.179,981.584 694.42,980.604 699.661,979.624 704.903,978.644 710.144,977.664 715.386,976.683 720.627,975.703 725.868,974.723 731.11,973.743 736.351,972.762 741.592,971.782 746.834,970.802 752.075,969.822 757.316,968.841 762.558,967.861 767.799,966.881 773.041,965.901 778.282,964.921 783.523,963.94 788.765,962.96 794.006,961.98 799.247,961 804.489,960.019 809.73,959.039 814.972,958.059 820.213,957.079 825.454,956.098 830.696,955.118 835.937,954.138 841.178,953.158 846.42,952.178 851.661,951.197 856.902,950.217 862.144,949.237 867.385,948.257 872.627,947.276 877.868,946.296 883.109,945.316 888.351,944.336 893.592,943.355 898.833,942.375 904.075,941.395 909.316,940.415 914.558,939.435 919.799,938.454 925.04,937.474 930.282,936.494 935.523,935.514 940.764,934.533 946.006,933.553 951.247,932.573 956.488,931.593 961.73,930.612 966.971,929.632 972.213,928.652 977.454,927.672 982.695,926.692 987.937,925.711 993.178,924.731 998.419,923.751 1003.66,922.771 1008.9,921.79 1014.14,920.81 1019.38,919.83 1024.63,918.85 1029.87,917.869 1035.11,916.889 1040.35,915.909 1045.59,914.929 1050.83,913.949 1056.07,912.968 1061.32,911.988 1066.56,911.008 1071.8,910.028 1077.04,909.047 1082.28,908.067 1087.52,907.087 1092.76,906.107 1098.01,905.126 1103.25,904.146 1108.49,903.166 1113.73,902.186 1118.97,901.206 1124.21,900.225 1129.45,899.245 1134.69,898.265 1139.94,897.285 1145.18,896.304 1150.42,895.324 1155.66,894.344 1160.9,893.364 1166.14,892.383 1171.38,891.403 1176.63,890.423 1181.87,889.443 1187.11,888.463 1192.35,887.482 1197.59,886.502 1202.83,885.522 1208.07,884.542 1213.32,883.561 1218.56,882.581 1223.8,881.601 1229.04,880.621 1234.28,879.64 1239.52,878.66 1244.76,877.68 1250.01,876.7 1255.25,875.72 1260.49,874.739 1265.73,873.759 1270.97,872.779 1276.21,871.799 1281.45,870.818 1286.69,869.838 1291.94,868.858 1297.18,867.878 1302.42,866.897 1307.66,865.917 1312.9,864.937 1318.14,863.957 1323.38,862.977 1328.63,861.996 1333.87,861.016 1339.11,860.036 1344.35,859.056 1349.59,858.075 1354.83,857.095 1360.07,856.115 1365.32,855.135 1370.56,854.154 1375.8,853.174 1381.04,852.194 1386.28,851.214 1391.52,850.234 1396.76,849.253 1402,848.273 1407.25,847.293 1412.49,846.313 1417.73,845.332 1422.97,844.352 1428.21,843.372 1433.45,842.392 1438.69,841.411 1443.94,840.431 1449.18,839.451 1454.42,838.471 1459.66,837.491 1464.9,836.51 1470.14,835.53 1475.38,834.55 1480.63,833.57 1485.87,832.589 1491.11,831.609 1496.35,830.629 1501.59,829.649 1506.83,828.669 1512.07,827.688 1517.31,826.708 1522.56,825.728 1527.8,824.748 1533.04,823.767 1538.28,822.787 1543.52,821.807 1548.76,820.827 1554,819.846 1559.25,818.866 1564.49,817.886 1569.73,816.906 1574.97,815.926 1580.21,814.945 1585.45,813.965 1590.69,812.985 1595.94,812.005 1601.18,811.024 1606.42,810.044 1611.66,809.064 1616.9,808.084 1622.14,807.103 1627.38,806.123 1632.62,805.143 1637.87,804.163 1643.11,803.183 1648.35,802.202 1653.59,801.222 1658.83,800.242 1664.07,799.262 1669.31,798.281 1674.56,797.301 1679.8,796.321 1685.04,795.341 1690.28,794.36 1695.52,793.38 1700.76,792.4 1706,791.42 1711.25,790.44 1716.49,789.459 1721.73,788.479 1726.97,787.499 1732.21,786.519 1737.45,785.538 1742.69,784.558 1747.94,783.578 1753.18,782.598 1758.42,781.617 1763.66,780.637 1768.9,779.657 1774.14,778.677 1779.38,777.697 1784.62,776.716 1789.87,775.736 1795.11,774.756 1800.35,773.776 1805.59,772.795 1810.83,771.815 1816.07,770.835 1821.31,769.855 1826.56,768.874 1831.8,767.894 1837.04,766.914 1842.28,765.934 1847.52,764.954 1852.76,763.973 1858,762.993 1863.25,762.013 1868.49,761.033 1873.73,760.052 1878.97,759.072 1884.21,758.092 1889.45,757.112 1894.69,756.131 1899.93,755.151 1905.18,754.171 1910.42,753.191 1915.66,752.211 1920.9,751.23 1926.14,750.25 1931.38,749.27 1936.62,748.29 1941.87,747.309 1947.11,746.329 1952.35,745.349 1957.59,744.369 1962.83,743.388 1968.07,742.408 1973.31,741.428 1978.56,740.448 1983.8,739.468 1989.04,738.487 1994.28,737.507 1999.52,736.527 2004.76,735.547 2010,734.566 2015.24,733.586 2020.49,732.606 2025.73,731.626 2030.97,730.645 2036.21,729.665 2041.45,728.685 2046.69,727.705 2051.93,726.725 2057.18,725.744 2062.42,724.764 2067.66,723.784 2072.9,722.804 2078.14,721.823 2083.38,720.843 2088.62,719.863 2093.87,718.883 2099.11,717.902 2104.35,716.922 2109.59,715.942 2114.83,714.962 2120.07,713.982 2125.31,713.001 2130.55,712.021 2135.8,711.041 2141.04,710.061 2146.28,709.08 2151.52,708.1 2156.76,707.12 2162,706.14 2167.24,705.159 2172.49,704.179 2177.73,703.199 2182.97,702.219 2188.21,701.239 2193.45,700.258 2198.69,699.278 "/>
<path clip-path="url(#clip930)" d="M1716.11 300.469 L2282.87 300.469 L2282.87 93.1086 L1716.11 93.1086  Z" fill="#ffffff" fill-rule="evenodd" fill-opacity="1"/>
<polyline clip-path="url(#clip930)" style="stroke:#000000; stroke-linecap:round; stroke-linejoin:round; stroke-width:4; stroke-opacity:1; fill:none" points="1716.11,300.469 2282.87,300.469 2282.87,93.1086 1716.11,93.1086 1716.11,300.469 "/>
<circle clip-path="url(#clip930)" cx="1809.29" cy="144.949" r="20.48" fill="#009af9" fill-rule="evenodd" fill-opacity="1" stroke="#000000" stroke-opacity="1" stroke-width="4.55111"/>
<path clip-path="url(#clip930)" d="M1902.47 127.669 L1931.71 127.669 L1931.71 131.604 L1919.44 131.604 L1919.44 162.229 L1914.74 162.229 L1914.74 131.604 L1902.47 131.604 L1902.47 127.669 Z" fill="#000000" fill-rule="nonzero" fill-opacity="1" /><path clip-path="url(#clip930)" d="M1944.09 140.284 Q1943.37 139.868 1942.52 139.682 Q1941.68 139.474 1940.67 139.474 Q1937.05 139.474 1935.11 141.835 Q1933.19 144.173 1933.19 148.571 L1933.19 162.229 L1928.91 162.229 L1928.91 136.303 L1933.19 136.303 L1933.19 140.331 Q1934.53 137.969 1936.68 136.835 Q1938.84 135.678 1941.92 135.678 Q1942.36 135.678 1942.89 135.747 Q1943.42 135.794 1944.07 135.909 L1944.09 140.284 Z" fill="#000000" fill-rule="nonzero" fill-opacity="1" /><path clip-path="url(#clip930)" d="M1969.69 148.201 L1969.69 150.284 L1950.11 150.284 Q1950.39 154.682 1952.75 156.997 Q1955.13 159.289 1959.37 159.289 Q1961.82 159.289 1964.11 158.687 Q1966.43 158.085 1968.7 156.881 L1968.7 160.909 Q1966.41 161.881 1964 162.391 Q1961.59 162.9 1959.11 162.9 Q1952.91 162.9 1949.28 159.289 Q1945.67 155.678 1945.67 149.52 Q1945.67 143.155 1949.09 139.428 Q1952.54 135.678 1958.37 135.678 Q1963.61 135.678 1966.64 139.057 Q1969.69 142.414 1969.69 148.201 M1965.43 146.951 Q1965.39 143.456 1963.47 141.372 Q1961.57 139.289 1958.42 139.289 Q1954.86 139.289 1952.7 141.303 Q1950.57 143.317 1950.25 146.974 L1965.43 146.951 Z" fill="#000000" fill-rule="nonzero" fill-opacity="1" /><path clip-path="url(#clip930)" d="M1988.47 149.196 Q1983.3 149.196 1981.31 150.377 Q1979.32 151.557 1979.32 154.405 Q1979.32 156.673 1980.8 158.016 Q1982.31 159.335 1984.88 159.335 Q1988.42 159.335 1990.55 156.835 Q1992.7 154.312 1992.7 150.145 L1992.7 149.196 L1988.47 149.196 M1996.96 147.437 L1996.96 162.229 L1992.7 162.229 L1992.7 158.293 Q1991.24 160.655 1989.07 161.789 Q1986.89 162.9 1983.74 162.9 Q1979.76 162.9 1977.4 160.678 Q1975.06 158.432 1975.06 154.682 Q1975.06 150.307 1977.98 148.085 Q1980.92 145.863 1986.73 145.863 L1992.7 145.863 L1992.7 145.446 Q1992.7 142.507 1990.76 140.909 Q1988.84 139.289 1985.34 139.289 Q1983.12 139.289 1981.01 139.821 Q1978.91 140.354 1976.96 141.419 L1976.96 137.483 Q1979.3 136.581 1981.5 136.141 Q1983.7 135.678 1985.78 135.678 Q1991.41 135.678 1994.18 138.594 Q1996.96 141.511 1996.96 147.437 Z" fill="#000000" fill-rule="nonzero" fill-opacity="1" /><path clip-path="url(#clip930)" d="M2009.95 128.942 L2009.95 136.303 L2018.72 136.303 L2018.72 139.613 L2009.95 139.613 L2009.95 153.687 Q2009.95 156.858 2010.8 157.761 Q2011.68 158.664 2014.35 158.664 L2018.72 158.664 L2018.72 162.229 L2014.35 162.229 Q2009.42 162.229 2007.54 160.4 Q2005.67 158.548 2005.67 153.687 L2005.67 139.613 L2002.54 139.613 L2002.54 136.303 L2005.67 136.303 L2005.67 128.942 L2009.95 128.942 Z" fill="#000000" fill-rule="nonzero" fill-opacity="1" /><path clip-path="url(#clip930)" d="M2046.5 148.201 L2046.5 150.284 L2026.92 150.284 Q2027.19 154.682 2029.55 156.997 Q2031.94 159.289 2036.17 159.289 Q2038.63 159.289 2040.92 158.687 Q2043.23 158.085 2045.5 156.881 L2045.5 160.909 Q2043.21 161.881 2040.8 162.391 Q2038.4 162.9 2035.92 162.9 Q2029.72 162.9 2026.08 159.289 Q2022.47 155.678 2022.47 149.52 Q2022.47 143.155 2025.9 139.428 Q2029.35 135.678 2035.18 135.678 Q2040.41 135.678 2043.44 139.057 Q2046.5 142.414 2046.5 148.201 M2042.24 146.951 Q2042.19 143.456 2040.27 141.372 Q2038.37 139.289 2035.23 139.289 Q2031.66 139.289 2029.51 141.303 Q2027.38 143.317 2027.05 146.974 L2042.24 146.951 Z" fill="#000000" fill-rule="nonzero" fill-opacity="1" /><path clip-path="url(#clip930)" d="M2070.55 140.238 L2070.55 126.21 L2074.81 126.21 L2074.81 162.229 L2070.55 162.229 L2070.55 158.34 Q2069.21 160.655 2067.15 161.789 Q2065.11 162.9 2062.24 162.9 Q2057.54 162.9 2054.58 159.15 Q2051.64 155.4 2051.64 149.289 Q2051.64 143.178 2054.58 139.428 Q2057.54 135.678 2062.24 135.678 Q2065.11 135.678 2067.15 136.812 Q2069.21 137.923 2070.55 140.238 M2056.04 149.289 Q2056.04 153.988 2057.96 156.673 Q2059.9 159.335 2063.28 159.335 Q2066.66 159.335 2068.6 156.673 Q2070.55 153.988 2070.55 149.289 Q2070.55 144.59 2068.6 141.928 Q2066.66 139.243 2063.28 139.243 Q2059.9 139.243 2057.96 141.928 Q2056.04 144.59 2056.04 149.289 Z" fill="#000000" fill-rule="nonzero" fill-opacity="1" /><circle clip-path="url(#clip930)" cx="1809.29" cy="196.789" r="20.48" fill="#e26f46" fill-rule="evenodd" fill-opacity="1" stroke="#000000" stroke-opacity="1" stroke-width="4.55111"/>
<path clip-path="url(#clip930)" d="M1930.34 182.171 L1930.34 187.101 Q1927.98 184.902 1925.3 183.814 Q1922.63 182.726 1919.62 182.726 Q1913.7 182.726 1910.55 186.36 Q1907.4 189.972 1907.4 196.823 Q1907.4 203.652 1910.55 207.286 Q1913.7 210.897 1919.62 210.897 Q1922.63 210.897 1925.3 209.809 Q1927.98 208.721 1930.34 206.522 L1930.34 211.407 Q1927.89 213.073 1925.13 213.907 Q1922.4 214.74 1919.35 214.74 Q1911.5 214.74 1906.99 209.948 Q1902.47 205.133 1902.47 196.823 Q1902.47 188.49 1906.99 183.698 Q1911.5 178.884 1919.35 178.884 Q1922.45 178.884 1925.18 179.717 Q1927.93 180.527 1930.34 182.171 Z" fill="#000000" fill-rule="nonzero" fill-opacity="1" /><path clip-path="url(#clip930)" d="M1947.42 191.129 Q1944 191.129 1942.01 193.814 Q1940.02 196.476 1940.02 201.129 Q1940.02 205.782 1941.99 208.467 Q1943.98 211.129 1947.42 211.129 Q1950.83 211.129 1952.82 208.444 Q1954.81 205.758 1954.81 201.129 Q1954.81 196.522 1952.82 193.837 Q1950.83 191.129 1947.42 191.129 M1947.42 187.518 Q1952.98 187.518 1956.15 191.129 Q1959.32 194.74 1959.32 201.129 Q1959.32 207.495 1956.15 211.129 Q1952.98 214.74 1947.42 214.74 Q1941.85 214.74 1938.67 211.129 Q1935.53 207.495 1935.53 201.129 Q1935.53 194.74 1938.67 191.129 Q1941.85 187.518 1947.42 187.518 Z" fill="#000000" fill-rule="nonzero" fill-opacity="1" /><path clip-path="url(#clip930)" d="M1987.93 198.421 L1987.93 214.069 L1983.67 214.069 L1983.67 198.559 Q1983.67 194.879 1982.24 193.05 Q1980.8 191.222 1977.93 191.222 Q1974.48 191.222 1972.49 193.421 Q1970.5 195.62 1970.5 199.416 L1970.5 214.069 L1966.22 214.069 L1966.22 188.143 L1970.5 188.143 L1970.5 192.171 Q1972.03 189.833 1974.09 188.675 Q1976.17 187.518 1978.88 187.518 Q1983.35 187.518 1985.64 190.296 Q1987.93 193.05 1987.93 198.421 Z" fill="#000000" fill-rule="nonzero" fill-opacity="1" /><path clip-path="url(#clip930)" d="M2000.64 180.782 L2000.64 188.143 L2009.42 188.143 L2009.42 191.453 L2000.64 191.453 L2000.64 205.527 Q2000.64 208.698 2001.5 209.601 Q2002.38 210.504 2005.04 210.504 L2009.42 210.504 L2009.42 214.069 L2005.04 214.069 Q2000.11 214.069 1998.23 212.24 Q1996.36 210.388 1996.36 205.527 L1996.36 191.453 L1993.23 191.453 L1993.23 188.143 L1996.36 188.143 L1996.36 180.782 L2000.64 180.782 Z" fill="#000000" fill-rule="nonzero" fill-opacity="1" /><path clip-path="url(#clip930)" d="M2030.04 192.124 Q2029.32 191.708 2028.47 191.522 Q2027.63 191.314 2026.61 191.314 Q2023 191.314 2021.06 193.675 Q2019.14 196.013 2019.14 200.411 L2019.14 214.069 L2014.86 214.069 L2014.86 188.143 L2019.14 188.143 L2019.14 192.171 Q2020.48 189.809 2022.63 188.675 Q2024.79 187.518 2027.86 187.518 Q2028.3 187.518 2028.84 187.587 Q2029.37 187.634 2030.02 187.749 L2030.04 192.124 Z" fill="#000000" fill-rule="nonzero" fill-opacity="1" /><path clip-path="url(#clip930)" d="M2043.51 191.129 Q2040.09 191.129 2038.1 193.814 Q2036.11 196.476 2036.11 201.129 Q2036.11 205.782 2038.07 208.467 Q2040.06 211.129 2043.51 211.129 Q2046.92 211.129 2048.91 208.444 Q2050.9 205.758 2050.9 201.129 Q2050.9 196.522 2048.91 193.837 Q2046.92 191.129 2043.51 191.129 M2043.51 187.518 Q2049.07 187.518 2052.24 191.129 Q2055.41 194.74 2055.41 201.129 Q2055.41 207.495 2052.24 211.129 Q2049.07 214.74 2043.51 214.74 Q2037.93 214.74 2034.76 211.129 Q2031.61 207.495 2031.61 201.129 Q2031.61 194.74 2034.76 191.129 Q2037.93 187.518 2043.51 187.518 Z" fill="#000000" fill-rule="nonzero" fill-opacity="1" /><path clip-path="url(#clip930)" d="M2062.47 178.05 L2066.73 178.05 L2066.73 214.069 L2062.47 214.069 L2062.47 178.05 Z" fill="#000000" fill-rule="nonzero" fill-opacity="1" /><polyline clip-path="url(#clip930)" style="stroke:#3da44d; stroke-linecap:round; stroke-linejoin:round; stroke-width:8; stroke-opacity:1; fill:none" points="1739.41,248.629 1879.18,248.629 "/>
<path clip-path="url(#clip930)" d="M1902.47 231.349 L1931.71 231.349 L1931.71 235.284 L1919.44 235.284 L1919.44 265.909 L1914.74 265.909 L1914.74 235.284 L1902.47 235.284 L1902.47 231.349 Z" fill="#000000" fill-rule="nonzero" fill-opacity="1" /><path clip-path="url(#clip930)" d="M1944.09 243.964 Q1943.37 243.548 1942.52 243.362 Q1941.68 243.154 1940.67 243.154 Q1937.05 243.154 1935.11 245.515 Q1933.19 247.853 1933.19 252.251 L1933.19 265.909 L1928.91 265.909 L1928.91 239.983 L1933.19 239.983 L1933.19 244.011 Q1934.53 241.649 1936.68 240.515 Q1938.84 239.358 1941.92 239.358 Q1942.36 239.358 1942.89 239.427 Q1943.42 239.474 1944.07 239.589 L1944.09 243.964 Z" fill="#000000" fill-rule="nonzero" fill-opacity="1" /><path clip-path="url(#clip930)" d="M1969.69 251.881 L1969.69 253.964 L1950.11 253.964 Q1950.39 258.362 1952.75 260.677 Q1955.13 262.969 1959.37 262.969 Q1961.82 262.969 1964.11 262.367 Q1966.43 261.765 1968.7 260.561 L1968.7 264.589 Q1966.41 265.561 1964 266.071 Q1961.59 266.58 1959.11 266.58 Q1952.91 266.58 1949.28 262.969 Q1945.67 259.358 1945.67 253.2 Q1945.67 246.835 1949.09 243.108 Q1952.54 239.358 1958.37 239.358 Q1963.61 239.358 1966.64 242.737 Q1969.69 246.094 1969.69 251.881 M1965.43 250.631 Q1965.39 247.136 1963.47 245.052 Q1961.57 242.969 1958.42 242.969 Q1954.86 242.969 1952.7 244.983 Q1950.57 246.997 1950.25 250.654 L1965.43 250.631 Z" fill="#000000" fill-rule="nonzero" fill-opacity="1" /><path clip-path="url(#clip930)" d="M1988.47 252.876 Q1983.3 252.876 1981.31 254.057 Q1979.32 255.237 1979.32 258.085 Q1979.32 260.353 1980.8 261.696 Q1982.31 263.015 1984.88 263.015 Q1988.42 263.015 1990.55 260.515 Q1992.7 257.992 1992.7 253.825 L1992.7 252.876 L1988.47 252.876 M1996.96 251.117 L1996.96 265.909 L1992.7 265.909 L1992.7 261.973 Q1991.24 264.335 1989.07 265.469 Q1986.89 266.58 1983.74 266.58 Q1979.76 266.58 1977.4 264.358 Q1975.06 262.112 1975.06 258.362 Q1975.06 253.987 1977.98 251.765 Q1980.92 249.543 1986.73 249.543 L1992.7 249.543 L1992.7 249.126 Q1992.7 246.187 1990.76 244.589 Q1988.84 242.969 1985.34 242.969 Q1983.12 242.969 1981.01 243.501 Q1978.91 244.034 1976.96 245.099 L1976.96 241.163 Q1979.3 240.261 1981.5 239.821 Q1983.7 239.358 1985.78 239.358 Q1991.41 239.358 1994.18 242.274 Q1996.96 245.191 1996.96 251.117 Z" fill="#000000" fill-rule="nonzero" fill-opacity="1" /><path clip-path="url(#clip930)" d="M2009.95 232.622 L2009.95 239.983 L2018.72 239.983 L2018.72 243.293 L2009.95 243.293 L2009.95 257.367 Q2009.95 260.538 2010.8 261.441 Q2011.68 262.344 2014.35 262.344 L2018.72 262.344 L2018.72 265.909 L2014.35 265.909 Q2009.42 265.909 2007.54 264.08 Q2005.67 262.228 2005.67 257.367 L2005.67 243.293 L2002.54 243.293 L2002.54 239.983 L2005.67 239.983 L2005.67 232.622 L2009.95 232.622 Z" fill="#000000" fill-rule="nonzero" fill-opacity="1" /><path clip-path="url(#clip930)" d="M2044.51 244.96 Q2046.1 242.089 2048.33 240.724 Q2050.55 239.358 2053.56 239.358 Q2057.61 239.358 2059.81 242.205 Q2062.01 245.029 2062.01 250.261 L2062.01 265.909 L2057.73 265.909 L2057.73 250.399 Q2057.73 246.673 2056.41 244.867 Q2055.09 243.062 2052.38 243.062 Q2049.07 243.062 2047.15 245.261 Q2045.23 247.46 2045.23 251.256 L2045.23 265.909 L2040.94 265.909 L2040.94 250.399 Q2040.94 246.649 2039.62 244.867 Q2038.3 243.062 2035.55 243.062 Q2032.29 243.062 2030.36 245.284 Q2028.44 247.483 2028.44 251.256 L2028.44 265.909 L2024.16 265.909 L2024.16 239.983 L2028.44 239.983 L2028.44 244.011 Q2029.9 241.626 2031.94 240.492 Q2033.98 239.358 2036.78 239.358 Q2039.6 239.358 2041.57 240.793 Q2043.56 242.228 2044.51 244.96 Z" fill="#000000" fill-rule="nonzero" fill-opacity="1" /><path clip-path="url(#clip930)" d="M2092.68 251.881 L2092.68 253.964 L2073.1 253.964 Q2073.37 258.362 2075.73 260.677 Q2078.12 262.969 2082.35 262.969 Q2084.81 262.969 2087.1 262.367 Q2089.41 261.765 2091.68 260.561 L2091.68 264.589 Q2089.39 265.561 2086.98 266.071 Q2084.58 266.58 2082.1 266.58 Q2075.9 266.58 2072.26 262.969 Q2068.65 259.358 2068.65 253.2 Q2068.65 246.835 2072.08 243.108 Q2075.53 239.358 2081.36 239.358 Q2086.59 239.358 2089.62 242.737 Q2092.68 246.094 2092.68 251.881 M2088.42 250.631 Q2088.37 247.136 2086.45 245.052 Q2084.55 242.969 2081.41 242.969 Q2077.84 242.969 2075.69 244.983 Q2073.56 246.997 2073.23 250.654 L2088.42 250.631 Z" fill="#000000" fill-rule="nonzero" fill-opacity="1" /><path clip-path="url(#clip930)" d="M2121.22 250.261 L2121.22 265.909 L2116.96 265.909 L2116.96 250.399 Q2116.96 246.719 2115.53 244.89 Q2114.09 243.062 2111.22 243.062 Q2107.77 243.062 2105.78 245.261 Q2103.79 247.46 2103.79 251.256 L2103.79 265.909 L2099.51 265.909 L2099.51 239.983 L2103.79 239.983 L2103.79 244.011 Q2105.32 241.673 2107.38 240.515 Q2109.46 239.358 2112.17 239.358 Q2116.64 239.358 2118.93 242.136 Q2121.22 244.89 2121.22 250.261 Z" fill="#000000" fill-rule="nonzero" fill-opacity="1" /><path clip-path="url(#clip930)" d="M2133.93 232.622 L2133.93 239.983 L2142.7 239.983 L2142.7 243.293 L2133.93 243.293 L2133.93 257.367 Q2133.93 260.538 2134.79 261.441 Q2135.66 262.344 2138.33 262.344 L2142.7 262.344 L2142.7 265.909 L2138.33 265.909 Q2133.4 265.909 2131.52 264.08 Q2129.65 262.228 2129.65 257.367 L2129.65 243.293 L2126.52 243.293 L2126.52 239.983 L2129.65 239.983 L2129.65 232.622 L2133.93 232.622 Z" fill="#000000" fill-rule="nonzero" fill-opacity="1" /><path clip-path="url(#clip930)" d="M2179.95 249.705 Q2181.45 250.214 2182.86 251.881 Q2184.3 253.548 2185.73 256.464 L2190.48 265.909 L2185.46 265.909 L2181.03 257.043 Q2179.32 253.571 2177.7 252.436 Q2176.1 251.302 2173.33 251.302 L2168.23 251.302 L2168.23 265.909 L2163.56 265.909 L2163.56 231.349 L2174.11 231.349 Q2180.04 231.349 2182.96 233.825 Q2185.87 236.302 2185.87 241.302 Q2185.87 244.566 2184.34 246.719 Q2182.84 248.872 2179.95 249.705 M2168.23 235.191 L2168.23 247.46 L2174.11 247.46 Q2177.49 247.46 2179.21 245.909 Q2180.94 244.335 2180.94 241.302 Q2180.94 238.27 2179.21 236.742 Q2177.49 235.191 2174.11 235.191 L2168.23 235.191 Z" fill="#000000" fill-rule="nonzero" fill-opacity="1" /><path clip-path="url(#clip930)" d="M2193.74 255.677 L2193.74 239.983 L2198 239.983 L2198 255.515 Q2198 259.196 2199.44 261.048 Q2200.87 262.876 2203.74 262.876 Q2207.19 262.876 2209.18 260.677 Q2211.2 258.478 2211.2 254.682 L2211.2 239.983 L2215.46 239.983 L2215.46 265.909 L2211.2 265.909 L2211.2 261.927 Q2209.65 264.288 2207.59 265.446 Q2205.55 266.58 2202.84 266.58 Q2198.37 266.58 2196.06 263.802 Q2193.74 261.024 2193.74 255.677 M2204.46 239.358 L2204.46 239.358 Z" fill="#000000" fill-rule="nonzero" fill-opacity="1" /><path clip-path="url(#clip930)" d="M2224.23 229.89 L2228.49 229.89 L2228.49 265.909 L2224.23 265.909 L2224.23 229.89 Z" fill="#000000" fill-rule="nonzero" fill-opacity="1" /><path clip-path="url(#clip930)" d="M2259.58 251.881 L2259.58 253.964 L2239.99 253.964 Q2240.27 258.362 2242.63 260.677 Q2245.02 262.969 2249.25 262.969 Q2251.71 262.969 2254 262.367 Q2256.31 261.765 2258.58 260.561 L2258.58 264.589 Q2256.29 265.561 2253.88 266.071 Q2251.47 266.58 2249 266.58 Q2242.79 266.58 2239.16 262.969 Q2235.55 259.358 2235.55 253.2 Q2235.55 246.835 2238.97 243.108 Q2242.42 239.358 2248.26 239.358 Q2253.49 239.358 2256.52 242.737 Q2259.58 246.094 2259.58 251.881 M2255.32 250.631 Q2255.27 247.136 2253.35 245.052 Q2251.45 242.969 2248.3 242.969 Q2244.74 242.969 2242.59 244.983 Q2240.46 246.997 2240.13 250.654 L2255.32 250.631 Z" fill="#000000" fill-rule="nonzero" fill-opacity="1" /></svg>
